<svg width="190" height="80" viewBox="0 0 190 80" fill="none" xmlns="http://www.w3.org/2000/svg">
<rect width="190" height="80" fill="#003F5C"/>
<path d="M45.5506 22.5H45.4448V57.4403H45.5506V22.5Z" fill="white"/>
<path d="M23.7209 39.2166C23.4566 39.1196 23.0111 39.1103 22.6354 39.4125C22.2597 39.1103 21.8142 39.1196 21.5498 39.2166C21.329 39.2987 21.1553 39.3528 20.8306 39.3491C21.1534 40.0132 21.8406 40.4722 22.6354 40.4722C23.4302 40.4722 24.1174 40.0132 24.4402 39.3491C24.1155 39.3528 23.9418 39.2987 23.7209 39.2166Z" fill="white"/>
<path d="M22.6375 22.5166C17.1947 22.5166 12.7827 26.8767 12.7827 32.2554C12.7827 36.8655 16.0242 40.7293 20.3796 41.7367C16.9191 39.9084 15.5088 35.7125 17.1777 32.1994C17.4477 33.5875 18.3633 34.8244 19.7301 35.4644C17.9461 31.3412 19.26 26.4942 22.9414 23.8132C22.2165 26.2647 23.3284 28.5054 25.7147 30.1994C28.4446 32.136 28.5597 36.0875 26.1508 38.2218C27.108 38.0017 27.9972 37.4812 28.6636 36.6845C28.2539 38.7722 26.9286 40.6621 24.8973 41.7367C29.2507 40.7274 32.4941 36.8655 32.4941 32.2554C32.4903 26.8767 28.0783 22.5166 22.6375 22.5166Z" fill="white"/>
<path d="M8.75943 45.7146C8.64615 45.8826 8.45359 45.9777 8.27613 46.0654C8.08168 46.1605 7.88156 46.2557 7.71732 46.4012V44.8714H8.17041C8.42527 44.8714 8.70468 44.9479 8.80474 45.2053C8.86515 45.3602 8.85571 45.571 8.75943 45.7146ZM8.78208 44.5505C8.55365 44.4423 8.30445 44.4292 8.05525 44.4292H7.23779V47.4721H7.71543C7.71543 47.3005 7.7041 47.1214 7.77962 46.9609C7.90044 46.7016 8.18173 46.5766 8.42716 46.459C8.68957 46.334 8.9822 46.2109 9.15588 45.9665C9.31069 45.7501 9.35222 45.4646 9.30691 45.2053C9.25594 44.9124 9.05205 44.6792 8.78208 44.5505Z" fill="white"/>
<path d="M12.2957 46.33C12.0144 46.0483 11.582 45.9494 11.1931 46.011V45.5147C11.1931 45.4233 11.1913 45.3319 11.2139 45.2423C11.2592 45.0707 11.3914 44.9289 11.5613 44.8729C11.7387 44.8132 11.9445 44.8412 12.0956 44.9513C12.2466 45.0632 12.3164 45.2348 12.3183 45.4177C12.3202 45.5613 12.3183 45.7031 12.3183 45.8468V46.3598C12.3127 46.3487 12.3051 46.3393 12.2957 46.33ZM12.3013 44.5128C11.886 44.2815 11.2932 44.3487 10.9723 44.7069C10.8175 44.8804 10.7382 45.1024 10.7231 45.3319C10.7193 45.3897 10.7212 47.4718 10.7212 47.4718H11.195V46.4643C11.4744 46.4289 11.7859 46.4569 12.02 46.6248C12.2296 46.7759 12.3221 47.0128 12.3221 47.2628C12.3221 47.3337 12.3221 47.4737 12.3221 47.4737H12.796V45.4326C12.796 45.0576 12.6393 44.7031 12.3013 44.5128Z" fill="white"/>
<path d="M15.331 44.8695C15.6349 44.8695 15.9426 45.0169 15.9766 45.3453C15.9917 45.5038 15.9577 45.6606 15.8501 45.7818C15.7331 45.9143 15.5594 45.9945 15.4027 46.071C15.212 46.1624 15.0195 46.2557 14.8609 46.3994V44.8695H15.331V44.8695ZM16.0521 46.3415C15.9974 46.3135 15.9389 46.2893 15.8784 46.2706C16.0314 46.1885 16.1805 46.0859 16.2881 45.9479C16.3863 45.821 16.4429 45.6736 16.4599 45.5132C16.4977 45.1792 16.3863 44.8621 16.1088 44.6587C15.7387 44.3863 15.2705 44.4292 14.8344 44.4292H14.3813V47.4721H14.859C14.859 47.3826 14.8552 47.2912 14.8609 47.1997C14.8703 46.9982 14.9609 46.8042 15.1384 46.696C15.3121 46.5915 15.5499 46.5785 15.735 46.6606C15.9219 46.7427 16.0427 46.9199 16.0729 47.1177C16.0899 47.2333 16.0823 47.3527 16.0823 47.4703H16.5656C16.5656 47.3024 16.5751 47.1326 16.5373 46.9684C16.4769 46.6997 16.2994 46.4721 16.0521 46.3415Z" fill="white"/>
<path d="M18.0552 44.8545C18.2119 44.8134 18.3723 44.7948 18.5328 44.7836V44.4272H18.0552V44.8545Z" fill="white"/>
<path d="M18.0552 45.1213V47.472H18.5328V45.0522C18.3723 45.0578 18.21 45.0821 18.0552 45.1213Z" fill="white"/>
<path d="M21.7272 46.011C21.5555 45.8786 21.3497 45.8021 21.1477 45.7275C20.9608 45.6603 20.7418 45.5875 20.604 45.4346C20.4794 45.2928 20.5058 45.0689 20.6361 44.9401C20.7701 44.8077 20.9853 44.7778 21.1609 44.8319C21.3591 44.8935 21.4799 45.0707 21.4799 45.2741H21.9538C21.9538 45.0502 21.8821 44.8357 21.7254 44.6715C21.5743 44.5129 21.3667 44.4178 21.1496 44.3898C20.9249 44.3599 20.6908 44.3898 20.4907 44.5017C20.3038 44.6062 20.1452 44.7741 20.0791 44.9793C20.0149 45.1752 20.0282 45.4196 20.1301 45.6006C20.2434 45.8021 20.4492 45.9234 20.6587 46.0129C20.8871 46.1081 21.1496 46.1678 21.3516 46.3114C21.4346 46.3693 21.5026 46.4439 21.5271 46.5428C21.5517 46.6398 21.5422 46.748 21.4969 46.8375C21.3855 47.054 21.1118 47.1211 20.8853 47.0782C20.6323 47.0297 20.4492 46.8207 20.4492 46.5651H19.981C19.981 46.8133 20.0621 47.0465 20.2415 47.2219C20.4189 47.3972 20.6663 47.4924 20.9136 47.511C21.1741 47.5316 21.4422 47.4793 21.6555 47.3301C21.8537 47.192 21.9859 46.9775 22.0123 46.7387C22.0444 46.4607 21.9538 46.1883 21.7272 46.011Z" fill="white"/>
<path d="M26.1845 46.0765C26.2902 45.9459 26.3941 45.8097 26.4639 45.6567C26.5319 45.5056 26.5583 45.3395 26.5394 45.1753C26.5036 44.8619 26.2846 44.6026 25.9995 44.4738C25.7088 44.3414 25.3406 44.3488 25.0556 44.4925C24.7667 44.638 24.5609 44.916 24.5439 45.2406C24.527 45.5727 24.6818 45.8638 24.9461 46.0634L25.216 45.722C25.1197 45.6306 25.0423 45.5205 25.0197 45.3862C24.9989 45.2574 25.0197 45.1287 25.099 45.0242C25.2538 44.8171 25.5634 44.7556 25.7937 44.8694C25.9089 44.9253 26.0052 45.0242 26.0467 45.1455C26.0901 45.2723 26.0694 45.416 26.0146 45.5354C25.9599 45.6567 25.8711 45.7593 25.7881 45.8619C25.469 46.2574 25.1481 46.6529 24.829 47.0485C24.7157 47.1903 24.6006 47.3302 24.4873 47.472H26.6527V47.0373H25.4105L26.1845 46.0765Z" fill="white"/>
<path d="M30.5797 46.3883C30.3928 46.823 29.9511 47.101 29.4734 47.073C29.0109 47.045 28.6088 46.7166 28.4747 46.2819C28.3369 45.8342 28.5012 45.3342 28.8768 45.0506C29.2544 44.767 29.7887 44.7558 30.1795 45.0226C30.6137 45.3192 30.7874 45.9051 30.5797 46.3883ZM30.6854 44.836C30.2078 44.3752 29.4602 44.2521 28.8561 44.5282C28.2444 44.8062 27.8782 45.448 27.9405 46.1084C28.0028 46.7558 28.4936 47.3118 29.1298 47.4704C29.7755 47.6327 30.4834 47.3939 30.8705 46.8528C31.2594 46.3081 31.248 45.545 30.8421 45.0114C30.7949 44.9498 30.7421 44.8901 30.6854 44.836Z" fill="white"/>
<path d="M34.2005 46.0765C34.3062 45.9459 34.41 45.8097 34.4799 45.6567C34.5497 45.5056 34.5743 45.3395 34.5554 45.1753C34.5195 44.8619 34.3005 44.6026 34.0155 44.4738C33.7247 44.3414 33.3566 44.3488 33.0715 44.4925C32.7827 44.638 32.5769 44.916 32.5599 45.2406C32.5429 45.5727 32.6977 45.8638 32.962 46.0634L33.232 45.722C33.1357 45.6306 33.0583 45.5205 33.0357 45.3862C33.0149 45.2574 33.0357 45.1287 33.115 45.0242C33.2698 44.8171 33.5794 44.7556 33.8097 44.8694C33.9249 44.9253 34.0211 45.0242 34.0608 45.1455C34.1042 45.2723 34.0834 45.416 34.0287 45.5354C33.9739 45.6567 33.8852 45.7593 33.8021 45.8619C33.4831 46.2574 33.1622 46.6529 32.8431 47.0485C32.7298 47.1903 32.6147 47.3302 32.4995 47.472H34.6649V47.0373H33.4227L34.2005 46.0765Z" fill="white"/>
<path d="M37.574 45.2425V46.2743C37.3456 46.1138 37.0624 46.0653 36.8227 45.9235C36.6169 45.8022 36.5508 45.5896 36.5508 45.3638C36.5489 45.1437 36.5508 44.4272 36.5508 44.4272H36.0713C36.0713 44.4272 36.0713 45.0616 36.0713 45.3769C36.0713 45.7015 36.1525 46.0187 36.4205 46.2276C36.5867 46.3563 36.7849 46.4347 36.9831 46.5037C37.1587 46.5653 37.3475 46.6399 37.4664 46.7873C37.5608 46.903 37.5722 47.0411 37.5722 47.1847V47.4702H38.0309V45.2407H37.574V45.2425Z" fill="white"/>
<path d="M19.896 52.918C18.7331 52.918 17.7892 53.8508 17.7892 55.0001C17.7892 56.1493 18.7331 57.0822 19.896 57.0822C21.059 57.0822 22.0029 56.1493 22.0029 55.0001C22.0048 53.8508 21.0609 52.918 19.896 52.918ZM22.4258 55.0001C22.4258 56.3807 21.2931 57.5001 19.896 57.5001C18.499 57.5001 17.3682 56.3807 17.3682 55.0001C17.3682 53.6195 18.499 52.502 19.896 52.502C21.2931 52.502 22.4258 53.6195 22.4258 55.0001Z" fill="white"/>
<path d="M25.3746 52.918C24.2097 52.918 23.2677 53.8508 23.2677 55.0001C23.2677 56.1493 24.2097 57.0822 25.3746 57.0822C26.5375 57.0822 27.4814 56.1493 27.4814 55.0001C27.4833 53.8508 26.5394 52.918 25.3746 52.918ZM27.9043 55.0001C27.9043 56.3807 26.7716 57.5001 25.3746 57.5001C23.9775 57.5001 22.8467 56.3807 22.8467 55.0001C22.8467 53.6195 23.9794 52.502 25.3746 52.502C26.7716 52.502 27.9043 53.6195 27.9043 55.0001Z" fill="white"/>
<path d="M17.1587 50.2109C15.7616 50.2109 14.6289 51.3285 14.6289 52.7091C14.6289 54.0897 15.7616 55.2072 17.1587 55.2072C17.2323 55.2072 17.304 55.2035 17.3777 55.1979C17.372 55.1326 17.3682 55.0673 17.3682 55.0001C17.3682 54.9255 17.372 54.8527 17.3777 54.78C17.3059 54.7874 17.2323 54.7912 17.1568 54.7912C15.992 54.7912 15.0499 53.8602 15.0499 52.7091C15.0499 51.558 15.9938 50.627 17.1568 50.627C18.3197 50.627 19.2637 51.5598 19.2637 52.7091C19.2637 53.6326 18.6558 54.4143 17.8119 54.6885C17.7968 54.7912 17.7873 54.8956 17.7873 55.0001C17.7873 55.043 17.7892 55.0859 17.7911 55.1288C18.8804 54.849 19.6828 53.8732 19.6828 52.7109C19.6865 51.3303 18.5538 50.2109 17.1587 50.2109Z" fill="white"/>
<path d="M28.1141 50.2109C26.785 50.2109 25.6976 51.224 25.5938 52.5113C25.7353 52.5225 25.875 52.5468 26.011 52.5822C26.077 51.4908 26.9946 50.627 28.1141 50.627C29.2789 50.627 30.221 51.5598 30.221 52.7091C30.221 53.8602 29.2789 54.7912 28.1141 54.7912C27.0587 54.7912 26.1828 54.0225 26.0317 53.0206C25.892 52.9759 25.7467 52.946 25.5956 52.9292C25.7089 54.2053 26.7926 55.2072 28.1141 55.2072C29.5111 55.2072 30.642 54.0878 30.642 52.7072C30.6438 51.3303 29.5111 50.2109 28.1141 50.2109Z" fill="white"/>
<path d="M22.6375 50.2109C21.3084 50.2109 20.2191 51.224 20.1172 52.5113C20.2607 52.5244 20.3985 52.5468 20.5344 52.5822C20.6005 51.4908 21.5161 50.627 22.6375 50.627C23.8004 50.627 24.7444 51.5598 24.7444 52.7091C24.7444 53.6326 24.1365 54.4162 23.2945 54.6886C23.2794 54.7912 23.27 54.8938 23.27 55.0001C23.27 55.043 23.2718 55.0859 23.2737 55.1289C24.3611 54.849 25.1654 53.8714 25.1654 52.7091C25.1654 51.3303 24.0327 50.2109 22.6375 50.2109Z" fill="white"/>
<path d="M22.8471 55.0001C22.8471 54.9255 22.8508 54.8527 22.8565 54.7799C22.7829 54.7874 22.7092 54.7911 22.6356 54.7911C21.5784 54.7911 20.7043 54.0225 20.5514 53.0206C20.4117 52.9758 20.2682 52.946 20.1172 52.9292C20.2305 54.2053 21.3141 55.2072 22.6356 55.2072C22.7092 55.2072 22.7829 55.2035 22.8546 55.1979C22.849 55.1326 22.8471 55.0673 22.8471 55.0001Z" fill="white"/>
<path d="M22.6375 50.2109C21.3084 50.2109 20.2191 51.224 20.1172 52.5113C20.2607 52.5244 20.3985 52.5468 20.5344 52.5822C20.6005 51.4908 21.5161 50.627 22.6375 50.627C23.8004 50.627 24.7444 51.5598 24.7444 52.7091C24.7444 53.6326 24.1365 54.4162 23.2945 54.6886C23.2794 54.7912 23.27 54.8938 23.27 55.0001C23.27 55.043 23.2718 55.0859 23.2737 55.1289C24.3611 54.849 25.1654 53.8714 25.1654 52.7091C25.1654 51.3303 24.0327 50.2109 22.6375 50.2109Z" fill="white"/>
<path d="M69.466 39.2125C69.2017 39.1155 68.7561 39.1062 68.3804 39.4084C68.0047 39.1062 67.5592 39.1137 67.2949 39.2125C67.074 39.2946 66.9003 39.3487 66.5737 39.345C66.8966 40.011 67.5837 40.4681 68.3804 40.4681C69.1771 40.4681 69.8643 40.0092 70.1871 39.345C69.8605 39.3487 69.6868 39.2946 69.466 39.2125Z" fill="white"/>
<path d="M68.3808 22.5C62.9343 22.5 58.5186 26.8638 58.5186 32.2463C58.5186 36.8601 61.7638 40.7257 66.1211 41.7351C62.6587 39.9048 61.2465 35.7071 62.9154 32.1903C63.1854 33.5784 64.101 34.8172 65.4697 35.459C63.6838 31.3321 64.9997 26.4813 68.6829 23.7985C67.958 26.2519 69.0718 28.4944 71.46 30.1903C74.1917 32.1287 74.3069 36.0821 71.8961 38.2201C72.8532 38 73.7443 37.4795 74.4107 36.681C74.0011 38.7705 72.6739 40.6623 70.6406 41.7369C74.9979 40.7276 78.2431 36.8619 78.2431 32.2481C78.2431 26.8638 73.8274 22.5 68.3808 22.5Z" fill="white"/>
<path d="M54.4914 45.7165C54.3781 45.8844 54.1855 45.9796 54.0081 46.0673C53.8136 46.1624 53.6135 46.2594 53.4492 46.4031V44.8714H53.9023C54.1572 44.8714 54.4366 44.9479 54.5367 45.2072C54.599 45.362 54.5876 45.5729 54.4914 45.7165ZM54.5159 44.5505C54.2856 44.4423 54.0383 44.4292 53.7891 44.4292H52.9697V47.4758H53.4492C53.4492 47.3042 53.4379 47.1232 53.5115 46.9628C53.6324 46.7035 53.9137 46.5785 54.1591 46.4609C54.4215 46.3359 54.7141 46.2128 54.8897 45.9684C55.0445 45.752 55.086 45.4665 55.0407 45.2072C54.9898 44.9124 54.7859 44.6792 54.5159 44.5505Z" fill="white"/>
<path d="M58.0314 46.3319C57.7501 46.0501 57.3178 45.9513 56.9289 46.0128V45.5147C56.9289 45.4233 56.927 45.3319 56.9497 45.2423C56.995 45.0707 57.1271 44.9289 57.2989 44.8729C57.4764 44.8132 57.6822 44.8412 57.8332 44.9513C57.9842 45.0632 58.0541 45.2348 58.056 45.4195C58.0579 45.5632 58.056 45.705 58.056 45.8487V46.3636C58.0484 46.3524 58.0409 46.3412 58.0314 46.3319ZM58.0371 44.5128C57.6218 44.2815 57.0271 44.3487 56.7062 44.7069C56.5495 44.8804 56.4721 45.1043 56.457 45.3337C56.4532 45.3916 56.4551 47.4755 56.4551 47.4755H56.9289V46.4662C57.2083 46.4307 57.5217 46.4587 57.7558 46.6266C57.9654 46.7778 58.0579 47.0147 58.0579 47.2647C58.0579 47.3356 58.0579 47.4755 58.0579 47.4755H58.5317V45.4326C58.5317 45.0576 58.3769 44.7031 58.0371 44.5128Z" fill="white"/>
<path d="M61.0687 44.8695C61.3727 44.8695 61.6823 45.0169 61.7144 45.3453C61.7314 45.5038 61.6955 45.6606 61.5879 45.7818C61.4709 45.9143 61.2972 45.9945 61.1386 46.071C60.9479 46.1624 60.7554 46.2576 60.5968 46.3994V44.8695H61.0687V44.8695ZM61.7918 46.3434C61.737 46.3154 61.6785 46.2912 61.6162 46.2725C61.7691 46.1904 61.9183 46.0878 62.0259 45.9497C62.1241 45.8229 62.1807 45.6755 62.1977 45.515C62.2336 45.1811 62.1241 44.8639 61.8465 44.6587C61.4765 44.3863 61.0064 44.4292 60.5722 44.4292H60.1191V47.4759H60.5987C60.5987 47.3863 60.5949 47.2949 60.6005 47.2035C60.61 47.002 60.7006 46.808 60.8781 46.6997C61.0517 46.5953 61.2896 46.5822 61.4746 46.6643C61.6615 46.7464 61.7824 46.9255 61.8145 47.1214C61.8314 47.2371 61.8239 47.3583 61.8239 47.474H62.3072C62.3072 47.3061 62.3166 47.1363 62.2789 46.9721C62.2166 46.7035 62.0391 46.474 61.7918 46.3434Z" fill="white"/>
<path d="M63.7949 44.8564C63.9516 44.8154 64.1121 44.7967 64.2744 44.7855V44.4292H63.7949V44.8564Z" fill="white"/>
<path d="M63.7949 45.1231V47.4758H64.2744V45.0522C64.1121 45.0597 63.9516 45.0821 63.7949 45.1231Z" fill="white"/>
<path d="M67.4705 46.0131C67.2987 45.8806 67.0929 45.8041 66.889 45.7295C66.7002 45.6623 66.4812 45.5896 66.3453 45.4366C66.2188 45.2948 66.2471 45.0709 66.3774 44.9422C66.5114 44.8097 66.7266 44.7799 66.9041 44.834C67.1023 44.8955 67.2232 45.0728 67.2232 45.278H67.697C67.697 45.0541 67.6253 44.8396 67.4686 44.6754C67.3175 44.5168 67.1099 44.4217 66.8928 44.3937C66.6662 44.3638 66.434 44.3937 66.2339 44.5056C66.047 44.612 65.8884 44.778 65.8224 44.9832C65.7582 45.1791 65.7714 45.4235 65.8752 45.6045C65.9885 45.806 66.1943 45.9291 66.4038 46.0168C66.6323 46.1138 66.8947 46.1717 67.0986 46.3153C67.1816 46.3732 67.2496 46.4478 67.2741 46.5467C67.2987 46.6437 67.2892 46.7519 67.2439 46.8414C67.1325 47.0597 66.8569 47.125 66.6323 47.0821C66.3793 47.0336 66.1962 46.8247 66.1962 46.5691H65.7261C65.7261 46.8172 65.8072 47.0504 65.9866 47.2276C66.1641 47.403 66.4114 47.4982 66.6587 47.5168C66.9192 47.5373 67.1873 47.4851 67.4025 47.334C67.6007 47.1959 67.7348 46.9795 67.7593 46.7407C67.7876 46.4646 67.697 46.1903 67.4705 46.0131Z" fill="white"/>
<path d="M71.9319 46.0783C72.0377 45.9477 72.1415 45.8115 72.2113 45.6585C72.2812 45.5074 72.3057 45.3414 72.2869 45.1753C72.251 44.8619 72.032 44.6026 71.7469 44.4738C71.4562 44.3414 71.0881 44.3488 70.8011 44.4925C70.5123 44.638 70.3065 44.916 70.2895 45.2406C70.2725 45.5727 70.4273 45.8656 70.6916 46.0634L70.9616 45.722C70.8653 45.6306 70.7879 45.5205 70.7652 45.3862C70.7445 45.2574 70.7652 45.1287 70.8445 45.0242C70.9993 44.8171 71.3089 44.7556 71.5393 44.8694C71.6544 44.9253 71.7507 45.0242 71.7922 45.1455C71.8357 45.2723 71.8149 45.416 71.7601 45.5373C71.7054 45.6585 71.6167 45.7612 71.5336 45.8638C71.2145 46.2593 70.8936 46.6548 70.5746 47.0503C70.4594 47.1921 70.3461 47.3339 70.231 47.4738H72.3983V47.0373H71.156L71.9319 46.0783Z" fill="white"/>
<path d="M76.3305 46.3901C76.1436 46.8248 75.7018 47.1028 75.2242 47.0748C74.7617 47.0468 74.3577 46.7184 74.2236 46.2819C74.0858 45.8341 74.2501 45.3341 74.6257 45.0505C75.0033 44.7651 75.5376 44.7557 75.9284 45.0225C76.3645 45.321 76.5382 45.9069 76.3305 46.3901ZM76.4362 44.8378C75.9586 44.377 75.211 44.252 74.605 44.53C73.9933 44.808 73.6252 45.4498 73.6894 46.1102C73.7517 46.7576 74.2425 47.3136 74.8787 47.4722C75.5244 47.6345 76.2342 47.3957 76.6212 46.8546C77.0101 46.3099 76.9988 45.5449 76.5929 45.0113C76.5438 44.9498 76.4928 44.8919 76.4362 44.8378Z" fill="white"/>
<path d="M79.9554 46.0783C80.0611 45.9477 80.1649 45.8115 80.2348 45.6585C80.3046 45.5074 80.3292 45.3414 80.3103 45.1753C80.2744 44.8619 80.0554 44.6026 79.7703 44.4738C79.4796 44.3414 79.1115 44.3488 78.8245 44.4925C78.5357 44.638 78.3299 44.916 78.3129 45.2406C78.2959 45.5727 78.4507 45.8656 78.715 46.0634L78.985 45.722C78.8887 45.6306 78.8113 45.5205 78.7887 45.3862C78.7679 45.2574 78.7887 45.1287 78.8679 45.0242C79.0228 44.8171 79.3324 44.7556 79.5627 44.8694C79.6778 44.9253 79.7741 45.0242 79.8157 45.1455C79.8591 45.2723 79.8383 45.416 79.7836 45.5373C79.7288 45.6585 79.6401 45.7612 79.557 45.8638C79.238 46.2593 78.917 46.6548 78.598 47.0503C78.4828 47.1921 78.3696 47.3339 78.2544 47.4738H80.4217V47.0373H79.1794L79.9554 46.0783Z" fill="white"/>
<path d="M83.3309 45.2445V46.2762C83.1025 46.1158 82.8174 46.0673 82.5795 45.9255C82.3737 45.8042 82.3077 45.5896 82.3077 45.3658C82.3058 45.1456 82.3077 44.4292 82.3077 44.4292H81.8281C81.8281 44.4292 81.8281 45.0635 81.8281 45.3807C81.8281 45.7053 81.9093 46.0225 82.1793 46.2314C82.3454 46.3602 82.5436 46.4385 82.7419 46.5076C82.9174 46.5691 83.1062 46.6456 83.2271 46.7911C83.3214 46.9068 83.3328 47.0449 83.3328 47.1885V47.474H83.7934V45.2426H83.3309V45.2445Z" fill="white"/>
<path d="M67.8823 50.2743C67.163 50.1102 66.1813 50.2911 65.2544 50.821C63.8045 51.6493 63.0342 53.0169 63.5383 53.877C63.8592 54.4273 64.6219 54.6363 65.5092 54.5001C65.1033 54.4087 64.7824 54.2053 64.5993 53.8956C64.0971 53.0355 64.8655 51.668 66.3154 50.8396C66.8402 50.5393 67.3801 50.3527 67.8823 50.2743Z" fill="white"/>
<path d="M67.8936 53.668C68.1088 54.3658 68.7582 55.1158 69.6852 55.6438C71.135 56.4721 72.719 56.446 73.2211 55.5841C73.5421 55.0337 73.3439 54.2781 72.7813 53.5859C72.904 53.9796 72.887 54.3565 72.7058 54.6662C72.2036 55.5262 70.6197 55.5524 69.1698 54.7259C68.6468 54.4292 68.2126 54.0598 67.8936 53.668Z" fill="white"/>
<path d="M66.9101 51.9795C66.4079 52.5131 66.0737 53.4422 66.0737 54.5019C66.0737 56.1567 66.8893 57.5 67.8936 57.5C68.5355 57.5 69.1 56.9515 69.4247 56.125C69.1415 56.4254 68.8036 56.6008 68.4411 56.6008C67.4368 56.6008 66.6212 55.2593 66.6212 53.6026C66.6212 53.0037 66.7269 52.4478 66.9101 51.9795Z" fill="white"/>
<path d="M95.7738 35.8613H97.9956V35.073C97.9956 34.2272 98.5546 33.6682 99.3574 33.6682C100.174 33.6682 100.719 34.2272 100.719 35.073V35.8613H103.041V35.1876C103.041 33.7542 102.325 32.6935 101.092 32.1918C101.966 31.6471 102.669 30.9017 102.669 29.5257C102.669 27.7339 101.163 26.5442 98.8557 26.5442H95.7738V35.8613ZM97.9956 28.6083H98.913C99.8304 28.6083 100.389 29.0813 100.389 29.8267C100.389 31.1167 98.9847 31.2171 97.9956 32.1345V28.6083ZM109.564 33.8976H106.267C106.496 32.8082 107.442 32.1345 108.833 32.1345H109.177V30.1994H108.919C107.844 30.1994 106.941 30.529 106.31 31.1311V28.5079H109.564V26.5442H104.117V35.8613H109.564V33.8976ZM117.808 31.8334C117.536 33.0518 116.49 33.9262 115.199 33.9262C113.694 33.9262 112.533 32.7222 112.533 31.2027C112.533 29.6833 113.694 28.4793 115.199 28.4793C116.375 28.4793 117.35 29.2246 117.737 30.2854H120.044C119.629 28.0206 117.636 26.3865 115.199 26.3865C112.404 26.3865 110.226 28.4936 110.226 31.2027C110.226 33.9119 112.404 36.019 115.199 36.019C117.737 36.019 119.801 34.2416 120.102 31.8334H117.808ZM121.138 35.8613H123.36V35.073C123.36 34.2272 123.919 33.6682 124.722 33.6682C125.539 33.6682 126.084 34.2272 126.084 35.073V35.8613H128.406V35.1876C128.406 33.7542 127.689 32.6935 126.456 32.1918C127.331 31.6471 128.033 30.9017 128.033 29.5257C128.033 27.7339 126.528 26.5442 124.22 26.5442H121.138V35.8613ZM123.36 28.6083H124.278C125.195 28.6083 125.754 29.0813 125.754 29.8267C125.754 31.1167 124.349 31.2171 123.36 32.1345V28.6083ZM132.654 33.8402C131.923 33.8402 131.436 33.3385 131.436 32.6075V26.5442H129.185V32.6075C129.185 34.6716 130.547 36.019 132.654 36.019C134.747 36.019 136.094 34.6716 136.094 32.6075V26.5442H133.858V32.6075C133.858 33.3385 133.356 33.8402 132.654 33.8402ZM143.323 28.6656V26.6445C142.506 26.5012 141.302 26.3865 140.184 26.3865C139.066 26.3865 137.848 26.5012 137.045 26.6445V28.6656C137.676 28.5509 138.364 28.4793 139.066 28.4363V35.8613H141.302V28.4363C141.99 28.4649 142.607 28.5509 143.323 28.6656ZM149.808 33.8976H146.512C146.741 32.8082 147.687 32.1345 149.077 32.1345H149.421V30.1994H149.163C148.088 30.1994 147.185 30.529 146.555 31.1311V28.5079H149.808V26.5442H144.361V35.8613H149.808V33.8976ZM154.882 30.7584V33.2669H157.046V30.7584C157.046 29.6117 157.663 28.9523 158.723 28.8806V35.8613H160.959V26.5442H159.87C158.179 26.5442 156.803 27.0745 155.957 28.0779C155.125 27.0745 153.749 26.5442 152.058 26.5442H150.969V35.8613H153.19V28.8806C154.265 28.9523 154.882 29.6403 154.882 30.7584ZM167.838 33.8976H164.541C164.77 32.8082 165.717 32.1345 167.107 32.1345H167.451V30.1994H167.193C166.118 30.1994 165.215 30.529 164.584 31.1311V28.5079H167.838V26.5442H162.391V35.8613H167.838V33.8976ZM173.7 35.8613H175.95V26.5442H173.7V31.1741C172.539 29.8123 171.736 28.3503 171.105 26.5442H168.998V35.8613H171.249V31.1024C171.879 32.1918 172.682 33.1952 173.7 34.1556V35.8613ZM183.26 28.6656V26.6445C182.443 26.5012 181.239 26.3865 180.121 26.3865C179.003 26.3865 177.784 26.5012 176.982 26.6445V28.6656C177.612 28.5509 178.3 28.4793 179.003 28.4363V35.8613H181.239V28.4363C181.927 28.4649 182.543 28.5509 183.26 28.6656ZM95.7738 53.8613H97.9956V53.4026C97.9956 50.6218 102.712 51.4102 102.712 47.6547C102.712 45.8342 101.221 44.5442 98.9847 44.5442H95.7738V53.8613ZM97.9956 50.0198V46.6083H99.085C99.9021 46.6083 100.432 47.0813 100.432 47.7837C100.432 49.0021 99.085 49.1597 97.9956 50.0198ZM105.948 51.4389C107.41 51.4389 108.27 52.2989 108.27 53.6607V53.8613H110.463V47.8267C110.463 45.7626 109.087 44.3865 107.023 44.3865C104.959 44.3865 103.582 45.7626 103.582 47.8267V53.8613H105.79V51.4389H105.948ZM105.847 49.4321H105.79V47.8267C105.79 47.067 106.292 46.5366 107.023 46.5366C107.754 46.5366 108.27 47.0526 108.27 47.8267V50.2205C107.682 49.7188 106.865 49.4321 105.847 49.4321ZM111.816 53.8613H114.037V53.073C114.037 52.2272 114.597 51.6682 115.399 51.6682C116.216 51.6682 116.761 52.2272 116.761 53.073V53.8613H119.083V53.1876C119.083 51.7542 118.366 50.6935 117.134 50.1918C118.008 49.6471 118.71 48.9017 118.71 47.5257C118.71 45.7339 117.205 44.5442 114.898 44.5442H111.816V53.8613ZM114.037 46.6083H114.955C115.872 46.6083 116.431 47.0813 116.431 47.8267C116.431 49.1167 115.027 49.2171 114.037 50.1345V46.6083ZM122.409 53.8613V44.5442H120.159V53.8613H122.409ZM126.879 54.019C128.829 54.019 130.162 52.7719 130.162 51.1522C130.162 47.8267 125.747 48.6294 125.747 47.11C125.747 46.6369 126.163 46.2786 126.707 46.2786C127.381 46.2786 127.825 46.6799 127.825 47.3106H130.004C130.004 45.5762 128.671 44.3865 126.707 44.3865C124.858 44.3865 123.554 45.6909 123.554 47.2103C123.554 50.4928 127.969 49.6471 127.969 51.2095C127.969 51.7542 127.51 52.1269 126.851 52.1269C126.134 52.1269 125.647 51.6682 125.647 50.9945H123.468C123.453 52.8436 124.901 54.019 126.879 54.019ZM140.708 51.8402H137.827L139.389 49.7761C140.192 48.7154 140.45 48.1277 140.45 47.3393C140.45 45.6479 139.016 44.3865 137.124 44.3865C135.232 44.3865 133.799 45.7052 133.799 47.454C133.799 48.486 134.257 49.3461 135.203 49.9911L136.422 48.3427C136.107 48.0704 135.963 47.7837 135.963 47.411C135.963 46.7946 136.465 46.3359 137.124 46.3359C137.769 46.3359 138.271 46.809 138.271 47.411C138.271 47.798 138.128 48.0847 137.741 48.6007L133.77 53.8613H140.708V51.8402ZM141.259 49.2027C141.259 51.9119 143.438 54.019 146.233 54.019C149.028 54.019 151.207 51.9119 151.207 49.2027C151.207 46.4936 149.028 44.3865 146.233 44.3865C143.438 44.3865 141.259 46.4936 141.259 49.2027ZM143.567 49.2027C143.567 47.6833 144.743 46.4793 146.233 46.4793C147.724 46.4793 148.899 47.6833 148.899 49.2027C148.899 50.7222 147.724 51.9262 146.233 51.9262C144.743 51.9262 143.567 50.7222 143.567 49.2027ZM158.849 51.8402H155.968L157.531 49.7761C158.333 48.7154 158.591 48.1277 158.591 47.3393C158.591 45.6479 157.158 44.3865 155.266 44.3865C153.374 44.3865 151.94 45.7052 151.94 47.454C151.94 48.486 152.399 49.3461 153.345 49.9911L154.563 48.3427C154.248 48.0704 154.105 47.7837 154.105 47.411C154.105 46.7946 154.606 46.3359 155.266 46.3359C155.911 46.3359 156.413 46.809 156.413 47.411C156.413 47.798 156.269 48.0847 155.882 48.6007L151.912 53.8613H158.849V51.8402ZM166.054 46.9236H163.889V49.6471C162.929 49.0307 161.796 49.0881 161.796 47.583V44.5442H159.546V47.6977C159.546 51.9406 163.889 50.6362 163.889 52.9726V53.8613H166.054V46.9236Z" fill="white"/>
</svg>
