<svg width="190" height="80" viewBox="0 0 190 80" fill="none" xmlns="http://www.w3.org/2000/svg">
<rect width="190" height="80" fill="#003F5C"/>
<path d="M42.5506 22.5H42.4448V57.4403H42.5506V22.5Z" fill="white"/>
<path d="M20.7209 39.2166C20.4566 39.1196 20.0111 39.1103 19.6354 39.4125C19.2597 39.1103 18.8142 39.1196 18.5498 39.2166C18.329 39.2987 18.1553 39.3528 17.8306 39.3491C18.1534 40.0132 18.8406 40.4722 19.6354 40.4722C20.4302 40.4722 21.1174 40.0132 21.4402 39.3491C21.1155 39.3528 20.9418 39.2987 20.7209 39.2166Z" fill="white"/>
<path d="M19.6375 22.5166C14.1947 22.5166 9.78271 26.8767 9.78271 32.2554C9.78271 36.8655 13.0242 40.7293 17.3795 41.7367C13.9191 39.9084 12.5088 35.7125 14.1777 32.1994C14.4477 33.5875 15.3633 34.8244 16.7301 35.4644C14.9461 31.3412 16.26 26.4942 19.9414 23.8132C19.2165 26.2647 20.3284 28.5054 22.7147 30.1994C25.4446 32.136 25.5597 36.0875 23.1508 38.2218C24.108 38.0017 24.9972 37.4811 25.6636 36.6845C25.2539 38.7722 23.9286 40.6621 21.8973 41.7367C26.2507 40.7274 29.4941 36.8655 29.4941 32.2554C29.4903 26.8767 25.0783 22.5166 19.6375 22.5166Z" fill="white"/>
<path d="M5.75943 45.7146C5.64615 45.8826 5.45359 45.9777 5.27613 46.0654C5.08168 46.1605 4.88156 46.2557 4.71732 46.4012V44.8714H5.17041C5.42527 44.8714 5.70468 44.9479 5.80474 45.2053C5.86515 45.3602 5.85571 45.571 5.75943 45.7146ZM5.78208 44.5505C5.55365 44.4423 5.30445 44.4292 5.05525 44.4292H4.23779V47.4721H4.71543C4.71543 47.3005 4.7041 47.1214 4.77962 46.9609C4.90044 46.7016 5.18173 46.5766 5.42716 46.459C5.68957 46.334 5.9822 46.2109 6.15588 45.9665C6.31069 45.7501 6.35222 45.4646 6.30691 45.2053C6.25594 44.9124 6.05205 44.6792 5.78208 44.5505Z" fill="white"/>
<path d="M9.29567 46.33C9.01437 46.0483 8.58205 45.9494 8.19315 46.011V45.5147C8.19315 45.4233 8.19126 45.3319 8.21391 45.2423C8.25922 45.0707 8.39137 44.9289 8.56128 44.8729C8.73874 44.8132 8.94452 44.8412 9.09555 44.9513C9.24658 45.0632 9.31644 45.2348 9.31832 45.4177C9.32021 45.5613 9.31832 45.7031 9.31832 45.8468V46.3598C9.31266 46.3487 9.30511 46.3393 9.29567 46.33ZM9.30133 44.5128C8.886 44.2815 8.2932 44.3487 7.97226 44.7069C7.81746 44.8804 7.73817 45.1024 7.72306 45.3319C7.71929 45.3897 7.72118 47.4718 7.72118 47.4718H8.19503V46.4643C8.47444 46.4289 8.78594 46.4569 9.02004 46.6248C9.22959 46.7759 9.3221 47.0128 9.3221 47.2628C9.3221 47.3337 9.3221 47.4737 9.3221 47.4737H9.79596V45.4326C9.79596 45.0576 9.63926 44.7031 9.30133 44.5128Z" fill="white"/>
<path d="M12.331 44.8695C12.6349 44.8695 12.9426 45.0169 12.9766 45.3453C12.9917 45.5038 12.9577 45.6606 12.8501 45.7818C12.7331 45.9143 12.5594 45.9945 12.4027 46.071C12.212 46.1624 12.0195 46.2557 11.8609 46.3994V44.8695H12.331ZM13.0521 46.3415C12.9974 46.3135 12.9389 46.2893 12.8784 46.2706C13.0314 46.1885 13.1805 46.0859 13.2881 45.9479C13.3863 45.821 13.4429 45.6736 13.4599 45.5132C13.4977 45.1792 13.3863 44.8621 13.1088 44.6587C12.7387 44.3863 12.2705 44.4292 11.8344 44.4292H11.3813V47.4721H11.859C11.859 47.3826 11.8552 47.2912 11.8609 47.1997C11.8703 46.9982 11.9609 46.8042 12.1384 46.696C12.3121 46.5915 12.5499 46.5785 12.735 46.6606C12.9219 46.7427 13.0427 46.9199 13.0729 47.1177C13.0899 47.2333 13.0823 47.3527 13.0823 47.4703H13.5656C13.5656 47.3024 13.5751 47.1326 13.5373 46.9684C13.4769 46.6997 13.2994 46.4721 13.0521 46.3415Z" fill="white"/>
<path d="M15.0552 44.8545C15.2119 44.8134 15.3723 44.7948 15.5328 44.7836V44.4272H15.0552V44.8545Z" fill="white"/>
<path d="M15.0552 45.1213V47.472H15.5328V45.0522C15.3723 45.0578 15.21 45.0821 15.0552 45.1213Z" fill="white"/>
<path d="M18.7272 46.011C18.5555 45.8786 18.3497 45.8021 18.1477 45.7275C17.9608 45.6603 17.7418 45.5875 17.604 45.4346C17.4794 45.2928 17.5058 45.0689 17.6361 44.9401C17.7701 44.8077 17.9853 44.7778 18.1609 44.8319C18.3591 44.8935 18.4799 45.0707 18.4799 45.2741H18.9538C18.9538 45.0502 18.8821 44.8357 18.7254 44.6715C18.5743 44.5129 18.3667 44.4178 18.1496 44.3898C17.9249 44.3599 17.6908 44.3898 17.4907 44.5017C17.3038 44.6062 17.1452 44.7741 17.0791 44.9793C17.0149 45.1752 17.0282 45.4196 17.1301 45.6006C17.2434 45.8021 17.4492 45.9234 17.6587 46.0129C17.8871 46.1081 18.1496 46.1678 18.3516 46.3114C18.4346 46.3693 18.5026 46.4439 18.5271 46.5428C18.5517 46.6398 18.5422 46.748 18.4969 46.8375C18.3855 47.054 18.1118 47.1211 17.8853 47.0782C17.6323 47.0297 17.4492 46.8207 17.4492 46.5651H16.981C16.981 46.8133 17.0621 47.0465 17.2415 47.2219C17.4189 47.3972 17.6663 47.4924 17.9136 47.511C18.1741 47.5316 18.4422 47.4793 18.6555 47.3301C18.8537 47.192 18.9859 46.9775 19.0123 46.7387C19.0444 46.4607 18.9538 46.1883 18.7272 46.011Z" fill="white"/>
<path d="M23.1845 46.0765C23.2902 45.9459 23.3941 45.8097 23.4639 45.6567C23.5319 45.5056 23.5583 45.3395 23.5394 45.1753C23.5036 44.8619 23.2846 44.6026 22.9995 44.4738C22.7088 44.3414 22.3406 44.3488 22.0556 44.4925C21.7667 44.638 21.5609 44.916 21.5439 45.2406C21.527 45.5727 21.6818 45.8638 21.9461 46.0634L22.216 45.722C22.1197 45.6306 22.0423 45.5205 22.0197 45.3862C21.9989 45.2574 22.0197 45.1287 22.099 45.0242C22.2538 44.8171 22.5634 44.7556 22.7937 44.8694C22.9089 44.9253 23.0052 45.0242 23.0467 45.1455C23.0901 45.2723 23.0694 45.416 23.0146 45.5354C22.9599 45.6567 22.8711 45.7593 22.7881 45.8619C22.469 46.2574 22.1481 46.6529 21.829 47.0485C21.7157 47.1903 21.6006 47.3302 21.4873 47.472H23.6527V47.0373H22.4105L23.1845 46.0765Z" fill="white"/>
<path d="M27.5797 46.3883C27.3928 46.823 26.9511 47.101 26.4734 47.073C26.0109 47.045 25.6088 46.7166 25.4747 46.2819C25.3369 45.8342 25.5012 45.3342 25.8768 45.0506C26.2544 44.767 26.7887 44.7558 27.1795 45.0226C27.6137 45.3192 27.7874 45.9051 27.5797 46.3883ZM27.6854 44.836C27.2078 44.3752 26.4602 44.2521 25.8561 44.5282C25.2444 44.8062 24.8782 45.448 24.9405 46.1084C25.0028 46.7558 25.4936 47.3118 26.1298 47.4704C26.7755 47.6327 27.4834 47.3939 27.8705 46.8528C28.2594 46.3081 28.248 45.545 27.8421 45.0114C27.7949 44.9498 27.7421 44.8901 27.6854 44.836Z" fill="white"/>
<path d="M31.2005 46.0765C31.3062 45.9459 31.41 45.8097 31.4799 45.6567C31.5497 45.5056 31.5743 45.3395 31.5554 45.1753C31.5195 44.8619 31.3005 44.6026 31.0155 44.4738C30.7247 44.3414 30.3566 44.3488 30.0715 44.4925C29.7827 44.638 29.5769 44.916 29.5599 45.2406C29.5429 45.5727 29.6977 45.8638 29.962 46.0634L30.232 45.722C30.1357 45.6306 30.0583 45.5205 30.0357 45.3862C30.0149 45.2574 30.0357 45.1287 30.115 45.0242C30.2698 44.8171 30.5794 44.7556 30.8097 44.8694C30.9249 44.9253 31.0211 45.0242 31.0608 45.1455C31.1042 45.2723 31.0834 45.416 31.0287 45.5354C30.9739 45.6567 30.8852 45.7593 30.8021 45.8619C30.4831 46.2574 30.1622 46.6529 29.8431 47.0485C29.7298 47.1903 29.6147 47.3302 29.4995 47.472H31.6649V47.0373H30.4227L31.2005 46.0765Z" fill="white"/>
<path d="M34.574 45.2425V46.2743C34.3456 46.1138 34.0624 46.0653 33.8227 45.9235C33.6169 45.8022 33.5508 45.5896 33.5508 45.3638C33.5489 45.1437 33.5508 44.4272 33.5508 44.4272H33.0713C33.0713 44.4272 33.0713 45.0616 33.0713 45.3769C33.0713 45.7015 33.1525 46.0187 33.4205 46.2276C33.5867 46.3563 33.7849 46.4347 33.9831 46.5037C34.1587 46.5653 34.3475 46.6399 34.4664 46.7873C34.5608 46.903 34.5722 47.0411 34.5722 47.1847V47.4702H35.0309V45.2407H34.574V45.2425Z" fill="white"/>
<path d="M16.896 52.918C15.7331 52.918 14.7892 53.8508 14.7892 55.0001C14.7892 56.1493 15.7331 57.0822 16.896 57.0822C18.059 57.0822 19.0029 56.1493 19.0029 55.0001C19.0048 53.8508 18.0609 52.918 16.896 52.918ZM19.4258 55.0001C19.4258 56.3807 18.2931 57.5001 16.896 57.5001C15.499 57.5001 14.3682 56.3807 14.3682 55.0001C14.3682 53.6195 15.499 52.502 16.896 52.502C18.2931 52.502 19.4258 53.6195 19.4258 55.0001Z" fill="white"/>
<path d="M22.3746 52.918C21.2097 52.918 20.2677 53.8508 20.2677 55.0001C20.2677 56.1493 21.2097 57.0822 22.3746 57.0822C23.5375 57.0822 24.4814 56.1493 24.4814 55.0001C24.4833 53.8508 23.5394 52.918 22.3746 52.918ZM24.9043 55.0001C24.9043 56.3807 23.7716 57.5001 22.3746 57.5001C20.9775 57.5001 19.8467 56.3807 19.8467 55.0001C19.8467 53.6195 20.9794 52.502 22.3746 52.502C23.7716 52.502 24.9043 53.6195 24.9043 55.0001Z" fill="white"/>
<path d="M14.1587 50.2109C12.7616 50.2109 11.6289 51.3285 11.6289 52.7091C11.6289 54.0897 12.7616 55.2072 14.1587 55.2072C14.2323 55.2072 14.304 55.2035 14.3777 55.1979C14.372 55.1326 14.3682 55.0673 14.3682 55.0001C14.3682 54.9255 14.372 54.8527 14.3777 54.78C14.3059 54.7874 14.2323 54.7912 14.1568 54.7912C12.992 54.7912 12.0499 53.8602 12.0499 52.7091C12.0499 51.558 12.9938 50.627 14.1568 50.627C15.3197 50.627 16.2637 51.5598 16.2637 52.7091C16.2637 53.6326 15.6558 54.4143 14.8119 54.6885C14.7968 54.7912 14.7873 54.8956 14.7873 55.0001C14.7873 55.043 14.7892 55.0859 14.7911 55.1288C15.8804 54.849 16.6828 53.8732 16.6828 52.7109C16.6865 51.3303 15.5538 50.2109 14.1587 50.2109Z" fill="white"/>
<path d="M25.1141 50.2109C23.785 50.2109 22.6976 51.224 22.5938 52.5113C22.7353 52.5225 22.875 52.5468 23.011 52.5822C23.077 51.4908 23.9946 50.627 25.1141 50.627C26.2789 50.627 27.221 51.5598 27.221 52.7091C27.221 53.8602 26.2789 54.7912 25.1141 54.7912C24.0587 54.7912 23.1828 54.0225 23.0317 53.0206C22.892 52.9759 22.7467 52.946 22.5956 52.9292C22.7089 54.2053 23.7926 55.2072 25.1141 55.2072C26.5111 55.2072 27.642 54.0878 27.642 52.7072C27.6438 51.3303 26.5111 50.2109 25.1141 50.2109Z" fill="white"/>
<path d="M19.6375 50.2109C18.3084 50.2109 17.2191 51.224 17.1172 52.5113C17.2607 52.5244 17.3985 52.5468 17.5344 52.5822C17.6005 51.4908 18.5161 50.627 19.6375 50.627C20.8004 50.627 21.7444 51.5598 21.7444 52.7091C21.7444 53.6326 21.1365 54.4162 20.2945 54.6886C20.2794 54.7912 20.27 54.8938 20.27 55.0001C20.27 55.043 20.2718 55.0859 20.2737 55.1289C21.3611 54.849 22.1654 53.8714 22.1654 52.7091C22.1654 51.3303 21.0327 50.2109 19.6375 50.2109Z" fill="white"/>
<path d="M19.8471 55.0001C19.8471 54.9255 19.8508 54.8527 19.8565 54.7799C19.7829 54.7874 19.7092 54.7911 19.6356 54.7911C18.5784 54.7911 17.7043 54.0225 17.5514 53.0206C17.4117 52.9758 17.2682 52.946 17.1172 52.9292C17.2305 54.2053 18.3141 55.2072 19.6356 55.2072C19.7092 55.2072 19.7829 55.2035 19.8546 55.1979C19.849 55.1326 19.8471 55.0673 19.8471 55.0001Z" fill="white"/>
<path d="M19.6375 50.2109C18.3084 50.2109 17.2191 51.224 17.1172 52.5113C17.2607 52.5244 17.3985 52.5468 17.5344 52.5822C17.6005 51.4908 18.5161 50.627 19.6375 50.627C20.8004 50.627 21.7444 51.5598 21.7444 52.7091C21.7444 53.6326 21.1365 54.4162 20.2945 54.6886C20.2794 54.7912 20.27 54.8938 20.27 55.0001C20.27 55.043 20.2718 55.0859 20.2737 55.1289C21.3611 54.849 22.1654 53.8714 22.1654 52.7091C22.1654 51.3303 21.0327 50.2109 19.6375 50.2109Z" fill="white"/>
<path d="M66.466 39.2125C66.2017 39.1155 65.7561 39.1062 65.3804 39.4084C65.0047 39.1062 64.5592 39.1137 64.2949 39.2125C64.074 39.2946 63.9003 39.3487 63.5737 39.345C63.8966 40.011 64.5837 40.4681 65.3804 40.4681C66.1771 40.4681 66.8643 40.0092 67.1871 39.345C66.8605 39.3487 66.6868 39.2946 66.466 39.2125Z" fill="white"/>
<path d="M65.3808 22.5C59.9343 22.5 55.5186 26.8638 55.5186 32.2463C55.5186 36.8601 58.7638 40.7257 63.1211 41.7351C59.6587 39.9048 58.2465 35.7071 59.9154 32.1903C60.1854 33.5784 61.101 34.8172 62.4697 35.459C60.6838 31.3321 61.9997 26.4813 65.6829 23.7985C64.958 26.2519 66.0718 28.4944 68.46 30.1903C71.1917 32.1287 71.3069 36.0821 68.8961 38.2201C69.8532 38 70.7443 37.4795 71.4107 36.681C71.0011 38.7705 69.6739 40.6623 67.6406 41.7369C71.9979 40.7276 75.2431 36.8619 75.2431 32.2481C75.2431 26.8638 70.8274 22.5 65.3808 22.5Z" fill="white"/>
<path d="M51.4914 45.7165C51.3781 45.8844 51.1855 45.9796 51.0081 46.0673C50.8136 46.1624 50.6135 46.2594 50.4492 46.4031V44.8714H50.9023C51.1572 44.8714 51.4366 44.9479 51.5367 45.2072C51.599 45.362 51.5876 45.5729 51.4914 45.7165ZM51.5159 44.5505C51.2856 44.4423 51.0383 44.4292 50.7891 44.4292H49.9697V47.4758H50.4492C50.4492 47.3042 50.4379 47.1232 50.5115 46.9628C50.6324 46.7035 50.9137 46.5785 51.1591 46.4609C51.4215 46.3359 51.7141 46.2128 51.8897 45.9684C52.0445 45.752 52.086 45.4665 52.0407 45.2072C51.9898 44.9124 51.7859 44.6792 51.5159 44.5505Z" fill="white"/>
<path d="M55.0314 46.3319C54.7501 46.0501 54.3178 45.9513 53.9289 46.0128V45.5147C53.9289 45.4233 53.927 45.3319 53.9497 45.2423C53.995 45.0707 54.1271 44.9289 54.2989 44.8729C54.4764 44.8132 54.6822 44.8412 54.8332 44.9513C54.9842 45.0632 55.0541 45.2348 55.056 45.4195C55.0579 45.5632 55.056 45.705 55.056 45.8487V46.3636C55.0484 46.3524 55.0409 46.3412 55.0314 46.3319ZM55.0371 44.5128C54.6218 44.2815 54.0271 44.3487 53.7062 44.7069C53.5495 44.8804 53.4721 45.1043 53.457 45.3337C53.4532 45.3916 53.4551 47.4755 53.4551 47.4755H53.9289V46.4662C54.2083 46.4307 54.5217 46.4587 54.7558 46.6266C54.9654 46.7778 55.0579 47.0147 55.0579 47.2647C55.0579 47.3356 55.0579 47.4755 55.0579 47.4755H55.5317V45.4326C55.5317 45.0576 55.3769 44.7031 55.0371 44.5128Z" fill="white"/>
<path d="M58.0687 44.8695C58.3727 44.8695 58.6823 45.0169 58.7144 45.3453C58.7314 45.5038 58.6955 45.6606 58.5879 45.7818C58.4709 45.9143 58.2972 45.9945 58.1386 46.071C57.9479 46.1624 57.7554 46.2576 57.5968 46.3994V44.8695H58.0687ZM58.7918 46.3434C58.737 46.3154 58.6785 46.2912 58.6162 46.2725C58.7691 46.1904 58.9183 46.0878 59.0259 45.9497C59.1241 45.8229 59.1807 45.6755 59.1977 45.515C59.2336 45.1811 59.1241 44.8639 58.8465 44.6587C58.4765 44.3863 58.0064 44.4292 57.5722 44.4292H57.1191V47.4759H57.5987C57.5987 47.3863 57.5949 47.2949 57.6005 47.2035C57.61 47.002 57.7006 46.808 57.8781 46.6997C58.0517 46.5953 58.2896 46.5822 58.4746 46.6643C58.6615 46.7464 58.7824 46.9255 58.8145 47.1214C58.8314 47.2371 58.8239 47.3583 58.8239 47.474H59.3072C59.3072 47.3061 59.3166 47.1363 59.2789 46.9721C59.2166 46.7035 59.0391 46.474 58.7918 46.3434Z" fill="white"/>
<path d="M60.7949 44.8564C60.9516 44.8154 61.1121 44.7967 61.2744 44.7855V44.4292H60.7949V44.8564Z" fill="white"/>
<path d="M60.7949 45.1231V47.4758H61.2744V45.0522C61.1121 45.0597 60.9516 45.0821 60.7949 45.1231Z" fill="white"/>
<path d="M64.4705 46.0131C64.2987 45.8806 64.0929 45.8041 63.889 45.7295C63.7002 45.6623 63.4812 45.5896 63.3453 45.4366C63.2188 45.2948 63.2471 45.0709 63.3774 44.9422C63.5114 44.8097 63.7266 44.7799 63.9041 44.834C64.1023 44.8955 64.2232 45.0728 64.2232 45.278H64.697C64.697 45.0541 64.6253 44.8396 64.4686 44.6754C64.3175 44.5168 64.1099 44.4217 63.8928 44.3937C63.6662 44.3638 63.434 44.3937 63.2339 44.5056C63.047 44.612 62.8884 44.778 62.8224 44.9832C62.7582 45.1791 62.7714 45.4235 62.8752 45.6045C62.9885 45.806 63.1943 45.9291 63.4038 46.0168C63.6323 46.1138 63.8947 46.1717 64.0986 46.3153C64.1816 46.3732 64.2496 46.4478 64.2741 46.5467C64.2987 46.6437 64.2892 46.7519 64.2439 46.8414C64.1325 47.0597 63.8569 47.125 63.6323 47.0821C63.3793 47.0336 63.1962 46.8247 63.1962 46.5691H62.7261C62.7261 46.8172 62.8072 47.0504 62.9866 47.2276C63.1641 47.403 63.4114 47.4982 63.6587 47.5168C63.9192 47.5373 64.1873 47.4851 64.4025 47.334C64.6007 47.1959 64.7348 46.9795 64.7593 46.7407C64.7876 46.4646 64.697 46.1903 64.4705 46.0131Z" fill="white"/>
<path d="M68.9319 46.0783C69.0377 45.9477 69.1415 45.8115 69.2113 45.6585C69.2812 45.5074 69.3057 45.3414 69.2869 45.1753C69.251 44.8619 69.032 44.6026 68.7469 44.4738C68.4562 44.3414 68.0881 44.3488 67.8011 44.4925C67.5123 44.638 67.3065 44.916 67.2895 45.2406C67.2725 45.5727 67.4273 45.8656 67.6916 46.0634L67.9616 45.722C67.8653 45.6306 67.7879 45.5205 67.7652 45.3862C67.7445 45.2574 67.7652 45.1287 67.8445 45.0242C67.9993 44.8171 68.3089 44.7556 68.5393 44.8694C68.6544 44.9253 68.7507 45.0242 68.7922 45.1455C68.8357 45.2723 68.8149 45.416 68.7601 45.5373C68.7054 45.6585 68.6167 45.7612 68.5336 45.8638C68.2145 46.2593 67.8936 46.6548 67.5746 47.0503C67.4594 47.1921 67.3461 47.3339 67.231 47.4738H69.3983V47.0373H68.156L68.9319 46.0783Z" fill="white"/>
<path d="M73.3305 46.3901C73.1436 46.8248 72.7018 47.1028 72.2242 47.0748C71.7617 47.0468 71.3577 46.7184 71.2236 46.2819C71.0858 45.8341 71.2501 45.3341 71.6257 45.0505C72.0033 44.7651 72.5376 44.7557 72.9284 45.0225C73.3645 45.321 73.5382 45.9069 73.3305 46.3901ZM73.4362 44.8378C72.9586 44.377 72.211 44.252 71.605 44.53C70.9933 44.808 70.6252 45.4498 70.6894 46.1102C70.7517 46.7576 71.2425 47.3136 71.8787 47.4722C72.5244 47.6345 73.2342 47.3957 73.6212 46.8546C74.0101 46.3099 73.9988 45.5449 73.5929 45.0113C73.5438 44.9498 73.4928 44.8919 73.4362 44.8378Z" fill="white"/>
<path d="M76.9554 46.0783C77.0611 45.9477 77.1649 45.8115 77.2348 45.6585C77.3046 45.5074 77.3292 45.3414 77.3103 45.1753C77.2744 44.8619 77.0554 44.6026 76.7703 44.4738C76.4796 44.3414 76.1115 44.3488 75.8245 44.4925C75.5357 44.638 75.3299 44.916 75.3129 45.2406C75.2959 45.5727 75.4507 45.8656 75.715 46.0634L75.985 45.722C75.8887 45.6306 75.8113 45.5205 75.7887 45.3862C75.7679 45.2574 75.7887 45.1287 75.8679 45.0242C76.0228 44.8171 76.3324 44.7556 76.5627 44.8694C76.6778 44.9253 76.7741 45.0242 76.8157 45.1455C76.8591 45.2723 76.8383 45.416 76.7836 45.5373C76.7288 45.6585 76.6401 45.7612 76.557 45.8638C76.238 46.2593 75.917 46.6548 75.598 47.0503C75.4828 47.1921 75.3696 47.3339 75.2544 47.4738H77.4217V47.0373H76.1794L76.9554 46.0783Z" fill="white"/>
<path d="M80.3309 45.2445V46.2762C80.1025 46.1158 79.8174 46.0673 79.5795 45.9255C79.3737 45.8042 79.3077 45.5896 79.3077 45.3658C79.3058 45.1456 79.3077 44.4292 79.3077 44.4292H78.8281C78.8281 44.4292 78.8281 45.0635 78.8281 45.3807C78.8281 45.7053 78.9093 46.0225 79.1793 46.2314C79.3454 46.3602 79.5436 46.4385 79.7419 46.5076C79.9174 46.5691 80.1062 46.6456 80.2271 46.7911C80.3214 46.9068 80.3328 47.0449 80.3328 47.1885V47.474H80.7934V45.2426H80.3309V45.2445Z" fill="white"/>
<path d="M64.8823 50.2743C64.163 50.1102 63.1813 50.2911 62.2544 50.821C60.8045 51.6493 60.0342 53.0169 60.5383 53.877C60.8592 54.4273 61.6219 54.6363 62.5092 54.5001C62.1033 54.4087 61.7824 54.2053 61.5993 53.8956C61.0971 53.0355 61.8655 51.668 63.3154 50.8396C63.8402 50.5393 64.3801 50.3527 64.8823 50.2743Z" fill="white"/>
<path d="M64.8936 53.668C65.1088 54.3658 65.7582 55.1158 66.6852 55.6438C68.135 56.4721 69.719 56.446 70.2211 55.5841C70.5421 55.0337 70.3439 54.2781 69.7813 53.5859C69.904 53.9796 69.887 54.3565 69.7058 54.6662C69.2036 55.5262 67.6197 55.5524 66.1698 54.7259C65.6468 54.4292 65.2126 54.0598 64.8936 53.668Z" fill="white"/>
<path d="M63.9101 51.9795C63.4079 52.5131 63.0737 53.4422 63.0737 54.5019C63.0737 56.1567 63.8893 57.5 64.8936 57.5C65.5355 57.5 66.1 56.9515 66.4247 56.125C66.1415 56.4254 65.8036 56.6008 65.4411 56.6008C64.4368 56.6008 63.6212 55.2593 63.6212 53.6026C63.6212 53.0037 63.7269 52.4478 63.9101 51.9795Z" fill="white"/>
<path d="M100.774 35.8613H102.996V35.073C102.996 34.2272 103.555 33.6682 104.357 33.6682C105.174 33.6682 105.719 34.2272 105.719 35.073V35.8613H108.041V35.1876C108.041 33.7542 107.325 32.6935 106.092 32.1918C106.966 31.6471 107.669 30.9017 107.669 29.5257C107.669 27.7339 106.163 26.5442 103.856 26.5442H100.774V35.8613ZM102.996 28.6083H103.913C104.83 28.6083 105.389 29.0813 105.389 29.8267C105.389 31.1167 103.985 31.2171 102.996 32.1345V28.6083ZM114.564 33.8976H111.267C111.496 32.8082 112.442 32.1345 113.833 32.1345H114.177V30.1994H113.919C112.844 30.1994 111.941 30.529 111.31 31.1311V28.5079H114.564V26.5442H109.117V35.8613H114.564V33.8976ZM122.808 31.8334C122.536 33.0518 121.49 33.9262 120.199 33.9262C118.694 33.9262 117.533 32.7222 117.533 31.2027C117.533 29.6833 118.694 28.4793 120.199 28.4793C121.375 28.4793 122.35 29.2246 122.737 30.2854H125.044C124.629 28.0206 122.636 26.3865 120.199 26.3865C117.404 26.3865 115.226 28.4936 115.226 31.2027C115.226 33.9119 117.404 36.019 120.199 36.019C122.737 36.019 124.801 34.2416 125.102 31.8334H122.808ZM126.138 35.8613H128.36V35.073C128.36 34.2272 128.919 33.6682 129.722 33.6682C130.539 33.6682 131.084 34.2272 131.084 35.073V35.8613H133.406V35.1876C133.406 33.7542 132.689 32.6935 131.456 32.1918C132.331 31.6471 133.033 30.9017 133.033 29.5257C133.033 27.7339 131.528 26.5442 129.22 26.5442H126.138V35.8613ZM128.36 28.6083H129.278C130.195 28.6083 130.754 29.0813 130.754 29.8267C130.754 31.1167 129.349 31.2171 128.36 32.1345V28.6083ZM137.654 33.8402C136.923 33.8402 136.436 33.3385 136.436 32.6075V26.5442H134.185V32.6075C134.185 34.6716 135.547 36.019 137.654 36.019C139.747 36.019 141.094 34.6716 141.094 32.6075V26.5442H138.858V32.6075C138.858 33.3385 138.356 33.8402 137.654 33.8402ZM148.323 28.6656V26.6445C147.506 26.5012 146.302 26.3865 145.184 26.3865C144.066 26.3865 142.848 26.5012 142.045 26.6445V28.6656C142.676 28.5509 143.364 28.4793 144.066 28.4363V35.8613H146.302V28.4363C146.99 28.4649 147.607 28.5509 148.323 28.6656ZM154.808 33.8976H151.512C151.741 32.8082 152.687 32.1345 154.077 32.1345H154.421V30.1994H154.163C153.088 30.1994 152.185 30.529 151.555 31.1311V28.5079H154.808V26.5442H149.361V35.8613H154.808V33.8976ZM159.882 30.7584V33.2669H162.046V30.7584C162.046 29.6117 162.663 28.9523 163.723 28.8806V35.8613H165.959V26.5442H164.87C163.179 26.5442 161.803 27.0745 160.957 28.0779C160.125 27.0745 158.749 26.5442 157.058 26.5442H155.969V35.8613H158.19V28.8806C159.265 28.9523 159.882 29.6403 159.882 30.7584ZM172.838 33.8976H169.541C169.77 32.8082 170.717 32.1345 172.107 32.1345H172.451V30.1994H172.193C171.118 30.1994 170.215 30.529 169.584 31.1311V28.5079H172.838V26.5442H167.391V35.8613H172.838V33.8976ZM178.7 35.8613H180.95V26.5442H178.7V31.1741C177.539 29.8123 176.736 28.3503 176.105 26.5442H173.998V35.8613H176.249V31.1024C176.879 32.1918 177.682 33.1952 178.7 34.1556V35.8613ZM188.26 28.6656V26.6445C187.443 26.5012 186.239 26.3865 185.121 26.3865C184.003 26.3865 182.784 26.5012 181.982 26.6445V28.6656C182.612 28.5509 183.3 28.4793 184.003 28.4363V35.8613H186.239V28.4363C186.927 28.4649 187.543 28.5509 188.26 28.6656ZM100.774 53.8613H102.996V53.4026C102.996 50.6218 107.712 51.4102 107.712 47.6547C107.712 45.8342 106.221 44.5442 103.985 44.5442H100.774V53.8613ZM102.996 50.0198V46.6083H104.085C104.902 46.6083 105.432 47.0813 105.432 47.7837C105.432 49.0021 104.085 49.1597 102.996 50.0198ZM110.948 51.4389C112.41 51.4389 113.27 52.2989 113.27 53.6607V53.8613H115.463V47.8267C115.463 45.7626 114.087 44.3865 112.023 44.3865C109.959 44.3865 108.582 45.7626 108.582 47.8267V53.8613H110.79V51.4389H110.948ZM110.847 49.4321H110.79V47.8267C110.79 47.067 111.292 46.5366 112.023 46.5366C112.754 46.5366 113.27 47.0526 113.27 47.8267V50.2205C112.682 49.7188 111.865 49.4321 110.847 49.4321ZM116.816 53.8613H119.037V53.073C119.037 52.2272 119.597 51.6682 120.399 51.6682C121.216 51.6682 121.761 52.2272 121.761 53.073V53.8613H124.083V53.1876C124.083 51.7542 123.366 50.6935 122.134 50.1918C123.008 49.6471 123.71 48.9017 123.71 47.5257C123.71 45.7339 122.205 44.5442 119.898 44.5442H116.816V53.8613ZM119.037 46.6083H119.955C120.872 46.6083 121.431 47.0813 121.431 47.8267C121.431 49.1167 120.027 49.2171 119.037 50.1345V46.6083ZM127.409 53.8613V44.5442H125.159V53.8613H127.409ZM131.879 54.019C133.829 54.019 135.162 52.7719 135.162 51.1522C135.162 47.8267 130.747 48.6294 130.747 47.11C130.747 46.6369 131.163 46.2786 131.707 46.2786C132.381 46.2786 132.825 46.6799 132.825 47.3106H135.004C135.004 45.5762 133.671 44.3865 131.707 44.3865C129.858 44.3865 128.554 45.6909 128.554 47.2103C128.554 50.4928 132.969 49.6471 132.969 51.2095C132.969 51.7542 132.51 52.1269 131.851 52.1269C131.134 52.1269 130.647 51.6682 130.647 50.9945H128.468C128.453 52.8436 129.901 54.019 131.879 54.019ZM145.708 51.8402H142.827L144.389 49.7761C145.192 48.7154 145.45 48.1277 145.45 47.3393C145.45 45.6479 144.016 44.3865 142.124 44.3865C140.232 44.3865 138.799 45.7052 138.799 47.454C138.799 48.486 139.257 49.3461 140.203 49.9911L141.422 48.3427C141.107 48.0704 140.963 47.7837 140.963 47.411C140.963 46.7946 141.465 46.3359 142.124 46.3359C142.769 46.3359 143.271 46.809 143.271 47.411C143.271 47.798 143.128 48.0847 142.741 48.6007L138.77 53.8613H145.708V51.8402ZM146.259 49.2027C146.259 51.9119 148.438 54.019 151.233 54.019C154.028 54.019 156.207 51.9119 156.207 49.2027C156.207 46.4936 154.028 44.3865 151.233 44.3865C148.438 44.3865 146.259 46.4936 146.259 49.2027ZM148.567 49.2027C148.567 47.6833 149.743 46.4793 151.233 46.4793C152.724 46.4793 153.899 47.6833 153.899 49.2027C153.899 50.7222 152.724 51.9262 151.233 51.9262C149.743 51.9262 148.567 50.7222 148.567 49.2027ZM163.849 51.8402H160.968L162.531 49.7761C163.333 48.7154 163.591 48.1277 163.591 47.3393C163.591 45.6479 162.158 44.3865 160.266 44.3865C158.374 44.3865 156.94 45.7052 156.94 47.454C156.94 48.486 157.399 49.3461 158.345 49.9911L159.563 48.3427C159.248 48.0704 159.105 47.7837 159.105 47.411C159.105 46.7946 159.606 46.3359 160.266 46.3359C160.911 46.3359 161.413 46.809 161.413 47.411C161.413 47.798 161.269 48.0847 160.882 48.6007L156.912 53.8613H163.849V51.8402ZM171.054 46.9236H168.889V49.6471C167.929 49.0307 166.796 49.0881 166.796 47.583V44.5442H164.546V47.6977C164.546 51.9406 168.889 50.6362 168.889 52.9726V53.8613H171.054V46.9236Z" fill="white"/>
</svg>
