<?xml version="1.0" encoding="UTF-8"?> <svg xmlns="http://www.w3.org/2000/svg" viewBox="0 0 1000 600"><path class="cls-1" d="M 788.018 279.203 C 784.914 279.119 781.867 278.343 779.102 276.926 C 738.648 255.865 692.75 243.402 648.187 243.402 C 643.195 243.386 638.214 243.633 633.25 244.145 C 643.35 259.645 654.302 274.567 666.066 288.842 C 668.65 291.926 669.411 293.791 669.411 296.777 C 669.411 301.977 663.962 307.001 658.13 307.001 C 654.25 307.001 651.934 305.466 648.315 301.249 C 636.24 287.077 618.098 261.998 609.499 247.692 C 567.202 255.165 520.039 280.153 492.178 302.195 C 488.995 304.745 486.728 305.802 483.579 305.802 C 477.571 305.702 472.702 300.905 472.512 294.902 C 472.512 291.535 473.755 288.995 478.117 285.365 C 520.629 249.967 586.693 222.007 642.781 222.007 C 664.519 222.152 686.162 224.918 707.239 230.238 C 723.358 234.441 739.13 239.886 754.41 246.522 C 712.717 221.319 660.429 198.295 627.368 198.295 C 618.94 198.295 613.771 201.119 613.771 206.798 C 613.771 210.143 615.648 214.614 618.414 219.117 C 611.018 219.827 603.679 221.077 596.46 222.858 C 593.018 216.535 590.618 209.775 590.618 202.557 C 590.618 186.433 601.126 176.515 622.23 176.515 C 670.195 176.515 750.685 221.21 790.866 253.794 C 795.462 257.533 800 262.166 800 267.607 C 799.786 274.07 794.487 279.203 788.018 279.203 Z" style="fill: rgb(255, 55, 0);"></path><path class="cls-2" d="M 267.24 374.233 C 267.24 371.353 268.982 369.581 271.652 369.581 C 274.328 369.581 276.016 371.353 276.016 374.233 L 276.016 379.085 C 278.348 374.3 283.527 369.581 288.172 369.581 C 291.165 369.581 292.617 371.335 292.617 373.665 C 292.617 375.998 291.372 377.642 287.528 378.725 C 279.538 380.904 276.038 385.405 276.038 393.985 L 276.038 418.831 C 276.038 421.707 274.35 423.485 271.676 423.485 C 269.004 423.485 267.24 421.679 267.24 418.831 L 267.24 374.233 Z" style="fill: rgb(65, 65, 65);"></path><path class="cls-2" d="M 463.803 374.233 C 463.803 371.353 465.536 369.581 468.218 369.581 C 470.899 369.581 472.578 371.353 472.578 374.233 L 472.578 379.085 C 474.908 374.3 480.087 369.581 484.73 369.581 C 487.73 369.581 489.181 371.335 489.181 373.665 C 489.181 375.998 487.938 377.642 484.086 378.725 C 476.088 380.904 472.596 385.405 472.596 393.985 L 472.596 418.831 C 472.596 421.707 470.913 423.485 468.237 423.485 C 465.567 423.485 463.828 421.707 463.828 418.831 L 463.803 374.233 Z" style="fill: rgb(65, 65, 65);"></path><path class="cls-2" d="M 317.604 369.581 C 326.162 369.581 331.67 373.014 331.67 376.119 C 331.726 378.093 330.182 379.743 328.21 379.813 C 325.014 379.813 323.498 377.22 317.604 377.22 C 307.65 377.22 302.551 386.126 302.551 396.525 C 302.551 407.798 308.305 415.831 317.604 415.831 C 324.145 415.831 325.506 413.149 328.562 413.149 C 330.434 413.065 331.945 414.674 331.742 416.543 C 331.742 418.526 330.108 420.137 327.151 421.499 C 324.144 422.814 320.886 423.485 317.604 423.463 C 302.688 423.463 293.74 412.278 293.74 396.525 C 293.74 381.099 302.768 369.581 317.604 369.581 Z" style="fill: rgb(65, 65, 65);"></path><path class="cls-2" d="M 344.51 399.883 C 344.672 408.497 350.252 415.823 360.066 415.823 C 370.363 415.823 372.81 410.042 376.527 410.042 C 378.555 409.95 380.217 411.647 380.082 413.673 C 380.082 417.933 370.67 423.485 360.14 423.485 C 352.272 423.485 346.982 420.989 343.048 417 C 338.035 411.92 335.7 404.421 335.7 396.545 C 335.7 382.159 344.618 369.609 359.382 369.609 C 373.101 369.609 381.996 381.719 381.996 395.263 C 381.996 398.322 380.755 399.912 377.146 399.912 L 344.51 399.883 Z M 373.222 393.344 C 373.222 385.823 368.94 377.208 359.33 377.208 C 349.894 377.208 344.834 384.623 344.51 393.344 L 373.222 393.344 Z" style="fill: rgb(65, 65, 65);"></path><path class="cls-2" d="M 399.962 418.831 C 399.962 421.707 398.26 423.485 395.604 423.485 C 392.942 423.485 391.242 421.707 391.242 418.831 L 391.242 356.409 C 391.242 353.533 392.966 351.743 395.604 351.743 C 398.239 351.743 399.962 353.533 399.962 356.409 L 399.962 418.831 Z" style="fill: rgb(65, 65, 65);"></path><path class="cls-2" d="M 431.85 423.473 C 417.906 423.473 408.63 412.365 408.63 396.518 C 408.63 380.664 417.906 369.553 431.85 369.553 C 445.792 369.553 455.056 380.677 455.056 396.518 C 455.056 412.355 445.804 423.473 431.85 423.473 Z M 431.85 415.844 C 440.386 415.844 446.25 408.386 446.25 396.537 C 446.25 384.687 440.386 377.232 431.85 377.232 C 423.313 377.232 417.436 384.687 417.436 396.537 C 417.436 408.386 423.324 415.823 431.85 415.823 L 431.85 415.844 Z" style="fill: rgb(65, 65, 65);"></path><path class="cls-2" d="M 550.009 373.209 C 545.115 390.007 537.092 417.621 536.428 419.886 C 536.024 422.095 534.007 423.643 531.772 423.455 C 529.372 423.455 527.887 422.568 527.115 419.886 L 513.172 371.953 C 512.379 369.218 511.636 365.97 511.08 363.23 C 510.744 365.918 510.315 369.055 509.848 371.953 C 507.343 387.665 503.46 412.145 502.382 419.058 C 501.903 422.111 500.355 423.42 497.814 423.42 C 495.272 423.42 493.898 421.821 493.898 419.267 C 493.957 417.933 494.121 416.609 494.392 415.311 C 494.392 415.311 503.178 362.394 503.883 358.352 C 504.638 353.988 506.874 351.711 510.524 351.711 C 513.796 351.711 516.346 353.628 517.382 357.159 C 518.016 359.396 525.098 384.249 529.614 399.96 C 530.43 402.86 531.268 406.272 531.903 409.358 C 532.503 406.337 533.283 403.067 534.085 400.244 L 546.454 357.159 C 547.484 353.575 549.728 351.711 552.996 351.711 C 556.428 351.711 558.934 353.892 559.634 358.352 C 560.286 362.407 569.143 415.311 569.143 415.311 C 569.407 416.609 569.565 417.933 569.619 419.267 C 569.619 421.821 568.108 423.42 565.718 423.42 C 563.33 423.42 561.62 422.124 561.151 419.058 C 560.06 412.355 556.396 389.036 553.892 373.272 C 553.378 370.057 552.908 366.416 552.517 363.078 C 551.908 366.078 551.044 369.653 550.009 373.209 Z" style="fill: rgb(65, 65, 65);"></path><path class="cls-2" d="M 585.069 354.133 C 589.186 354.119 591.772 358.575 589.718 362.149 C 587.666 365.724 582.517 365.732 580.45 362.167 C 579.972 361.352 579.723 360.42 579.728 359.472 C 579.716 356.517 582.114 354.117 585.069 354.133 Z M 589.428 374.233 C 589.428 371.353 587.706 369.581 585.069 369.581 C 582.429 369.581 580.708 371.353 580.708 374.233 L 580.708 418.831 C 580.708 421.707 582.409 423.485 585.069 423.485 C 587.727 423.485 589.428 421.707 589.428 418.831 L 589.428 374.233 Z" style="fill: rgb(65, 65, 65);"></path><path class="cls-2" d="M 604.717 358.775 C 604.717 355.903 606.414 354.133 609.073 354.133 C 611.733 354.133 613.437 355.903 613.437 358.775 L 613.437 370.166 L 616.998 370.166 C 619.866 370.166 621.362 371.571 621.362 373.952 C 621.362 376.325 619.876 377.754 616.998 377.754 L 613.437 377.754 L 613.437 418.831 C 613.437 421.707 611.712 423.485 609.073 423.485 C 606.434 423.485 604.717 421.707 604.717 418.831 L 604.717 377.754 L 601.527 377.754 C 598.66 377.754 597.171 376.325 597.171 373.952 C 597.171 371.571 598.65 370.166 601.527 370.166 L 604.717 370.166 L 604.717 358.775 Z" style="fill: rgb(65, 65, 65);"></path><path class="cls-2" d="M 632.358 358.775 C 632.358 355.903 634.065 354.133 636.716 354.133 C 639.368 354.133 641.082 355.903 641.082 358.775 L 641.082 370.166 L 644.643 370.166 C 647.522 370.166 649.005 371.571 649.005 373.952 C 649.005 376.325 647.522 377.754 644.643 377.754 L 641.155 377.754 L 641.155 418.831 C 641.155 421.707 639.452 423.485 636.796 423.485 C 634.138 423.485 632.436 421.707 632.436 418.831 L 632.436 377.754 L 629.164 377.754 C 626.299 377.754 624.802 376.325 624.802 373.952 C 624.802 371.571 626.283 370.166 629.164 370.166 L 632.37 370.166 L 632.358 358.775 Z" style="fill: rgb(65, 65, 65);"></path><path class="cls-2" d="M 257.852 415.428 C 256.018 410.525 238.894 364.487 236.223 357.389 C 234.894 353.828 232.845 351.743 229.466 351.743 C 226.083 351.743 224.156 353.828 222.804 357.389 C 221.596 360.587 202.956 410.533 201.092 415.428 C 200.492 416.775 200.121 418.212 200 419.683 C 200.072 421.88 201.952 423.588 204.151 423.455 C 206.223 423.56 208.083 422.191 208.599 420.181 C 209.049 418.952 211.468 412.159 214.562 403.487 L 244.437 403.487 C 247.345 411.666 249.698 418.243 250.396 420.181 C 250.873 422.136 252.645 423.501 254.656 423.455 C 256.928 423.455 259.018 422.067 259.018 419.789 C 259.039 418.831 258.802 417.991 257.852 415.428 Z M 217.298 395.751 C 220.932 385.56 224.93 374.421 227.557 366.973 C 228.3 364.891 228.952 362.919 229.466 361.28 C 230.022 363.06 230.694 365.077 231.362 366.949 L 241.63 395.751 L 217.298 395.751 Z" style="fill: rgb(65, 65, 65);"></path><path class="cls-2" d="M 720.648 418.831 C 720.648 421.707 718.928 423.485 716.283 423.485 C 713.65 423.485 711.927 421.707 711.927 418.831 L 711.927 356.409 C 711.927 353.533 713.628 351.743 716.283 351.743 C 718.95 351.743 720.648 353.533 720.648 356.409 L 720.648 418.831 Z" style="fill: rgb(65, 65, 65);"></path><path class="cls-2" d="M 695.106 369.581 C 692.428 369.581 690.75 371.353 690.75 374.233 L 690.75 378.165 C 687.667 372.801 681.933 369.51 675.75 369.553 C 662.37 369.553 653.149 380.677 653.149 396.518 C 653.149 412.355 662.326 423.473 675.681 423.473 C 681.866 423.519 687.603 420.228 690.681 414.861 L 690.681 418.831 C 690.681 421.707 692.383 423.485 695.043 423.485 C 697.699 423.485 699.397 421.707 699.397 418.831 L 699.397 374.233 C 699.499 371.353 697.779 369.581 695.106 369.581 Z M 676.41 415.831 C 667.866 415.831 661.998 408.365 661.998 396.518 C 661.998 384.666 667.866 377.198 676.41 377.198 C 684.955 377.198 690.81 384.666 690.81 396.518 C 690.81 408.365 684.955 415.831 676.41 415.831 Z" style="fill: rgb(65, 65, 65);"></path></svg> 