<?xml version="1.0" encoding="UTF-8"?> <svg xmlns="http://www.w3.org/2000/svg" id="Calque_1" data-name="Calque 1" viewBox="0 0 192.43 112.61"><defs><style>.cls-1{fill:none;}.cls-2{fill:#ff7900;}.cls-3{fill:#fff;}</style></defs><rect class="cls-1" width="192.43" height="112.61"></rect><rect class="cls-2" x="61.14" y="21.2" width="70.29" height="70.29"></rect><path class="cls-3" d="M88.72,84.69a5.83,5.83,0,0,1-3.24,1,2.72,2.72,0,0,1-2.91-2.84c0-2.19,2-3.35,6.17-3.82v-.55c0-.71-.54-1.12-1.54-1.12a2.9,2.9,0,0,0-2.38,1.12l-1.75-1a4.81,4.81,0,0,1,4.17-1.91c2.55,0,4,1.11,4,2.9,0,0,0,7.08,0,7.1H88.94Zm-3.61-2.06a1.18,1.18,0,0,0,1.16,1.27,3.6,3.6,0,0,0,2.38-1V80.55C86.25,80.85,85.11,81.47,85.11,82.63Z"></path><path class="cls-3" d="M93.26,76l2.13-.3.24,1.17A5.46,5.46,0,0,1,99,75.54c2,0,3.05,1.06,3.05,3.18v6.81H99.46V79.17c0-1.2-.31-1.74-1.24-1.74a3.79,3.79,0,0,0-2.41,1.08v7H93.26Z"></path><path class="cls-3" d="M119.09,85.72c-2.89,0-4.61-1.85-4.61-5.07s1.74-5.11,4.56-5.11,4.51,1.79,4.51,5c0,.16,0,.33,0,.5H117c0,1.85.79,2.79,2.3,2.79a2.49,2.49,0,0,0,2.22-1.25l1.89,1A4.7,4.7,0,0,1,119.09,85.72ZM121,79.36a1.87,1.87,0,0,0-2-2.08c-1.16,0-1.88.75-2,2.08Z"></path><path class="cls-3" d="M69.79,85.82c-2.54,0-4.84-1.62-4.84-5.16s2.3-5.16,4.84-5.16,4.84,1.62,4.84,5.16S72.34,85.82,69.79,85.82Zm0-8.14c-1.92,0-2.28,1.73-2.28,3s.36,3,2.28,3,2.28-1.73,2.28-3S71.71,77.68,69.79,77.68Z"></path><path class="cls-3" d="M76.4,75.76h2.44v1.15a3.81,3.81,0,0,1,2.7-1.35h.33V78h-.12c-1.12,0-2.35.17-2.74,1v6.51H76.4Z"></path><path class="cls-3" d="M108.34,83.44c2,0,2.12-2,2.12-3.3,0-1.53-.75-2.77-2.14-2.77-.93,0-2,.67-2,2.88C106.36,81.45,106.45,83.45,108.34,83.44Zm4.59-7.72V85c0,1.64-.13,4.33-4.79,4.36-1.92,0-3.7-.76-4.06-2.44l2.54-.41c.11.49.4,1,1.84,1s2-.63,2-2.16V84.15l0,0a2.57,2.57,0,0,1-2.52,1.43c-2.28,0-4.08-1.59-4.08-4.89s1.85-5.1,3.93-5.11,2.68.89,2.84,1.36h0l.22-1.17Z"></path><path class="cls-3" d="M124.56,72.48h-1v2.8H123v-2.8h-1v-.43h2.56Zm4.21,2.8h-.53v-2.7h0l-1.06,2.7h-.34l-1.06-2.7h0v2.7h-.53V72.05H126l1,2.45,1-2.45h.82Z"></path></svg> 