<?xml version="1.0" encoding="UTF-8"?> <svg xmlns="http://www.w3.org/2000/svg" xmlns:xlink="http://www.w3.org/1999/xlink" version="1.1" id="Calque_1" x="0px" y="0px" viewBox="0 0 192.6 112.7" style="enable-background:new 0 0 192.6 112.7;" xml:space="preserve"> <style type="text/css"> .st0{fill:none;} .st1{fill:#D3A86A;} </style> <g> <rect class="st0" width="192.4" height="112.6"></rect> </g> <g> <path class="st1" d="M54.2,70h-6.5L43,60.1c-2.6,1.4-4.1,4.7-6.7,6.8C35,68,33.4,69,31.4,69.7c-0.9,0.3-2.4,0.7-3,0.7 c-0.2,0-0.4,0-0.4-0.1c0-0.1,0-0.1,0.3-0.2c0.3-0.1,1.5-0.6,2.2-1.1c0.9-0.6,1.5-1.3,1.5-1.9c-0.3-0.9-2.1-2.9-0.2-6.6 c0.7-1.3,1.2-2.3,1.7-3.2c0.5-1.1,0.8-2.6,0.9-3.8c0-0.1,0-0.1,0.1,0c0.9,0.9,4.4,4.5,3.9,8.1c1.2-0.4,3.2-1.8,4.1-2.5 c1-0.8,1.6-1.6,2.7-1.6c0.9,0,1,0.4,1.8,0.5c0.2,0,0.5,0,0.6-0.1c0.1,0,0-0.1,0-0.1c-1-0.2-1.3-1.1-2.6-1.1c-1.2,0-2.1,1.1-2.8,1.5 l-3.3-6.9c-1.4-2.9-1-5,2.1-9.1L54.2,70z"></path> <g> <g> <path class="st1" d="M164.5,63.1l-4.4-5.3c2.3-0.5,3.8-1.9,3.8-4.2c0-2.6-2.2-4-5.1-4h-8.9v13.5h2.4V58l5.3,0l4.1,5.1H164.5z M152.3,51.7h6.6c1.6,0,2.6,0.8,2.6,2c0,1.3-1,2.2-2.6,2.2h-6.6V51.7z"></path> <path class="st1" d="M69.8,49.6l-6.9,13.5h2.7l1.5-3h7.9l1.5,3h2.7l-6.9-13.5H69.8z M68,58l2.9-5.9l2.9,5.9H68z"></path> <path class="st1" d="M91.6,51.4c2.2,0,4,0.8,5,2.3l1.9-1.3c-1.3-1.9-3.7-3.2-6.9-3.2c-5.2,0-8.1,3.4-8.1,7.1c0,3.7,3,7.1,8.1,7.1 c3.2,0,5.5-1.3,6.9-3.2L96.6,59c-0.9,1.5-2.8,2.3-5,2.3c-3.5,0-5.7-1.9-5.7-5C85.9,53.3,88.1,51.4,91.6,51.4z"></path> <path class="st1" d="M113,51.4c2.2,0,4,0.8,5,2.3l1.9-1.3c-1.3-1.9-3.7-3.2-6.9-3.2c-5.2,0-8.1,3.4-8.1,7.1c0,3.7,3,7.1,8.1,7.1 c3.2,0,5.5-1.3,6.9-3.2l-1.9-1.3c-0.9,1.5-2.8,2.3-5,2.3c-3.5,0-5.7-1.9-5.7-5C107.3,53.3,109.5,51.4,113,51.4z"></path> <path class="st1" d="M134.3,49.3c-5.2,0-8.1,3.4-8.1,7.1c0,3.7,3,7.1,8.1,7.1s8.1-3.4,8.1-7.1C142.5,52.6,139.5,49.3,134.3,49.3z M134.3,61.3c-3.5,0-5.7-2-5.7-5c0-3,2.2-5,5.7-5c3.5,0,5.7,2,5.7,5C140.1,59.4,137.8,61.3,134.3,61.3z"></path> </g> </g> </g> </svg> 