<?xml version="1.0" encoding="UTF-8"?> <svg xmlns="http://www.w3.org/2000/svg" xmlns:xlink="http://www.w3.org/1999/xlink" version="1.1" id="Calque_1" x="0px" y="0px" viewBox="0 0 192.57 112.69" style="enable-background:new 0 0 192.57 112.69;" xml:space="preserve"> <style type="text/css"> .st0{fill:none;} .st1{fill:#FF0000;} .st2{fill:#051039;} </style> <g> <rect x="0" y="0" class="st0" width="192.43" height="112.61"></rect> </g> <g> <g> <g> <g> <path class="st1" d="M154.82,50.33l-5.89,8.52c-0.78,1.12-2.03,2.2-3.55,2.32v0.26h6.55c1.74,0,3.01-1.13,3.87-2.38l6.05-8.72 H154.82L154.82,50.33z"></path> </g> <g> <path class="st2" d="M46.36,61.43V51.27h2.97v10.16H46.36L46.36,61.43z M114.74,61.43l-7.12-6.03v6.03h-2.5V51.27h2.13 l7.03,5.94v-5.94h2.5v10.16H114.74L114.74,61.43z M130.24,54.55c-1.34-0.66-2.85-1.19-4.85-1.19c-2.39,0-4.17,1.24-4.17,2.95 c0,1.76,1.81,3.01,4.15,3.01c1.93,0,3.46-0.49,4.97-1.36v2.51c-1.33,0.66-3.1,1.15-5.09,1.15c-4.06,0-7.26-2.07-7.26-5.31 c0-3.19,3.26-5.23,7.25-5.23c1.89,0,3.59,0.36,5.01,0.93V54.55L130.24,54.55z M65.83,61.43V51.27h9.91v2.18h-6.95v2.52h6.79 v2.18h-6.79v3.28H65.83L65.83,61.43z M132.03,61.43V51.27h10.29v2.18h-7.32v1.76h7.21v2.18h-7.21v1.86h7.29v2.18H132.03 L132.03,61.43z M86.04,57.61l4.1,3.81h-3.16c-0.7,0-1.16-0.22-1.53-0.58l-2.79-2.7c-0.05-0.05-0.14-0.08-0.24-0.08h-1.9v3.36 h-2.96V51.27h6.42c3.33,0,4.74,1.5,4.74,3.15C88.71,56.35,86.99,57.27,86.04,57.61L86.04,57.61L86.04,57.61z M83.67,55.94 c1.17,0,1.74-0.6,1.74-1.27c0-0.67-0.5-1.23-1.74-1.23h-3.15v2.49H83.67L83.67,55.94z M60.59,57.61l4.1,3.81h-3.16 c-0.7,0-1.16-0.22-1.53-0.58l-2.79-2.7c-0.05-0.05-0.14-0.08-0.24-0.08h-1.9v3.36H52.1V51.27h6.42c3.33,0,4.74,1.5,4.74,3.15 C63.26,56.35,61.54,57.27,60.59,57.61L60.59,57.61L60.59,57.61z M58.22,55.94c1.17,0,1.74-0.6,1.74-1.27 c0-0.67-0.5-1.23-1.74-1.23h-3.15v2.49H58.22L58.22,55.94z M41.72,61.43l-1.3-2.23h-5.68l-1.18,2.23h-2.83l5.66-10.15h2.58 l6.41,10.15H41.72L41.72,61.43z M35.87,57.08h3.31l-1.72-3.1L35.87,57.08L35.87,57.08z M100.92,61.43l-1.27-2.23h-5.53 l-1.14,2.23h-2.76l5.51-10.15h2.5l6.23,10.15H100.92L100.92,61.43z M95.23,57.08h3.23l-1.68-3.1L95.23,57.08L95.23,57.08z"></path> </g> </g> </g> <rect x="20.57" y="41.1" class="st0" width="151.43" height="30.49"></rect> </g> </svg> 