<?xml version="1.0" encoding="UTF-8"?> <!-- Generator: Adobe Illustrator 25.4.1, SVG Export Plug-In . SVG Version: 6.00 Build 0) --> <svg xmlns="http://www.w3.org/2000/svg" xmlns:xlink="http://www.w3.org/1999/xlink" version="1.1" id="Calque_1" x="0px" y="0px" viewBox="0 0 192.6 112.7" style="enable-background:new 0 0 192.6 112.7;" xml:space="preserve"> <style type="text/css"> .st0{fill:none;} .st1{fill:#FFFFFF;} .st2{fill:url(#SVGID_1_);} .st3{fill:#960A0A;} .st4{fill:#F00A0A;} </style> <g> <rect x="0" y="0" class="st0" width="192.4" height="112.6"></rect> </g> <g> <g> <g> <path class="st1" d="M44.7,74.5l8.4-36.3h94.7l-5.6,24.1c-1.8,7.5-7.6,12.2-15,12.2L44.7,74.5z"></path> </g> <g> <g> <g> <g> <g> <radialGradient id="SVGID_1_" cx="114.7687" cy="37.4748" r="56.9128" fx="136.4655" fy="-15.14" gradientTransform="matrix(1 6.981260e-03 -3.846674e-03 0.551 0.2027 16.0255)" gradientUnits="userSpaceOnUse"> <stop offset="0.52" style="stop-color:#00B9FF"></stop> <stop offset="0.5893" style="stop-color:#02B3F9"></stop> <stop offset="0.6801" style="stop-color:#09A3E9"></stop> <stop offset="0.7827" style="stop-color:#1388CE"></stop> <stop offset="0.8931" style="stop-color:#2162A8"></stop> <stop offset="1" style="stop-color:#32377D"></stop> </radialGradient> <path class="st2" d="M145.2,40.2H54.8l-7.4,32.2c0,0,79.9,0,79.9,0c6.6,0,11.5-4.1,13-10.6L145.2,40.2z"></path> </g> </g> </g> </g> </g> <g> <path class="st1" d="M97,50h4.9l-1.8,7.8c-1.1,4.9-3.9,6-6.7,4.1l-2.9,3.3c3.8,3.3,12.6,2.6,14.5-5.7l3.2-13.7H97.9L97,50z M123.1,54.5L123.1,54.5c1-0.7,2.9-8.3-0.6-10.4c-2.3-1.4-4.6,1.6-4.8,1.7c-0.2,0.1-3.9,0.9-3.6,3.5 C114.3,53.5,122,55,123.1,54.5z M89.7,47.7c-1.6-1.1-4-1.7-7.7-1.7H59.3l-4.8,20.7h5.3l1.8-7.7H68l0.9-4h-6.3l1.2-5h17.8 c2.4,0,3.4,0.4,4.4,1.4c0.8,0.8,1.3,2.2,1.3,3.2c0,1.6-0.4,3.1-1.1,4.5c-1.5,2.8-3.9,3.9-6.9,3.9h-1.9l2.3-9.7l-1.5,0 c-2.3,0-4.2,1.6-4.8,3.8c-0.9,4-2.3,9.7-2.3,9.7H78c1.8,0,3.3-0.1,4.6-0.3c6-1,10.3-6.6,10.3-12.3C92.9,51.3,91.9,49.2,89.7,47.7 z M118.3,67.8l1.2,1.2c0.9-1,2-2.5,2.4-4.8c-0.1,0-0.5-0.1-0.5-0.1C120.7,65.8,119.4,67,118.3,67.8z M133.5,49.5 c-0.1-0.2-0.9-3.9-3.5-3.6c-1.8,0.1-3.1,1.6-3.9,3.4l5.7,1.3l-1.3,5.7c1.9,0,3.9-0.5,4.8-2C136.6,52,133.6,49.7,133.5,49.5z M122.6,56.3c-0.7-1-8.3-2.9-10.4,0.6c-1.4,2.3,1.6,4.6,1.7,4.8c0.1,0.2,0.9,3.9,3.5,3.6C121.6,65,123.2,57.4,122.6,56.3 L122.6,56.3z M124.5,56.7L124.5,56.7c-1,0.7-2.9,8.3,0.6,10.4c2.3,1.4,4.6-1.6,4.8-1.7c0.2-0.1,3.9-0.9,3.6-3.5 C133.2,57.7,125.5,56.2,124.5,56.7z"></path> <g> <polygon class="st3" points="128.7,56.2 129.5,56.4 130.7,51.3 125.6,50.1 125.4,50.9 129.8,51.9 "></polygon> </g> <g> <rect x="124.8" y="51.3" transform="matrix(0.225 -0.9744 0.9744 0.225 46.3088 165.3166)" class="st4" width="4.5" height="4.5"></rect> </g> </g> </g> </g> </svg> 