<?xml version="1.0" encoding="UTF-8"?> <svg xmlns="http://www.w3.org/2000/svg" xmlns:xlink="http://www.w3.org/1999/xlink" version="1.1" id="Calque_1" x="0px" y="0px" viewBox="0 0 192.57 112.69" style="enable-background:new 0 0 192.57 112.69;" xml:space="preserve"> <style type="text/css"> .st0{fill:none;} .st1{fill:#001976;} </style> <g> <rect x="0" y="0" class="st0" width="192.43" height="112.61"></rect> </g> <g> <g> <g> <path class="st1" d="M94.67,21.64v49.47c0.34-0.01,0.69-0.01,1.03,0V21.64H94.67z"></path> <path class="st1" d="M89.87,39.33l-0.98,0.6l3.01,31.44c0.32-0.05,0.72-0.11,1.02-0.14L89.87,39.33z"></path> <path class="st1" d="M86.58,52.97l-0.91,0.66l3.62,18.33c0.3-0.09,0.67-0.19,0.99-0.27L86.58,52.97z"></path> <path class="st1" d="M83.9,59.23l-0.85,0.72l3.81,12.93c0.27-0.13,0.69-0.3,0.95-0.41L83.9,59.23z"></path> <path class="st1" d="M81.61,63.48l-0.76,0.81l3.8,9.79c0.28-0.18,0.6-0.37,0.88-0.52L81.61,63.48z"></path> <path class="st1" d="M79.42,66.81l-0.74,0.76l3.95,7.98c0.26-0.22,0.58-0.47,0.8-0.64L79.42,66.81z"></path> <path class="st1" d="M77.27,69.69l-0.71,0.73l4.34,6.85c0.21-0.24,0.49-0.55,0.7-0.76L77.27,69.69z"></path> <path class="st1" d="M97.44,71.23c0.3,0.03,0.69,0.08,1.02,0.14l3.01-31.44l-0.98-0.6L97.44,71.23z"></path> <path class="st1" d="M100.07,71.69c0.32,0.08,0.69,0.18,0.99,0.27l3.62-18.33l-0.91-0.66L100.07,71.69z"></path> <path class="st1" d="M102.55,72.47c0.26,0.11,0.68,0.28,0.95,0.41l3.81-12.93l-0.85-0.72L102.55,72.47z"></path> <path class="st1" d="M104.83,73.55c0.28,0.15,0.6,0.34,0.88,0.52l3.8-9.79l-0.76-0.81L104.83,73.55z"></path> <path class="st1" d="M106.93,74.91c0.22,0.17,0.54,0.41,0.8,0.64l3.95-7.98l-0.74-0.76L106.93,74.91z"></path> <path class="st1" d="M108.76,76.52c0.21,0.21,0.49,0.51,0.7,0.76l4.34-6.85l-0.71-0.73L108.76,76.52z"></path> </g> <path class="st1" d="M135.65,86.34c0,0.72-0.54,1.14-1.41,1.14h-1.26v-2.34h1.26C135.12,85.14,135.65,85.58,135.65,86.34 M137.21,86.29c0-1.51-1.21-2.44-2.89-2.44h-2.85v7.1h1.51v-2.18h1.35C136.01,88.77,137.21,87.83,137.21,86.29"></path> <path class="st1" d="M115.05,88.08c-0.41,0-0.92,0.09-1.35,0.39l1.35-3.38l1.35,3.38C115.97,88.16,115.46,88.08,115.05,88.08 M117.41,90.95h1.64c-1.03-2.38-2.06-4.75-3.09-7.14h-1.82c-1.03,2.39-2.01,4.76-3.04,7.14h1.58l0.1-0.24 c0.41-0.99,1.21-1.53,2.27-1.53c1.06,0,1.86,0.53,2.27,1.53L117.41,90.95z"></path> <path class="st1" d="M126.65,87.44c0,1.5-0.88,2.21-2.14,2.21h-1.36v-4.5h1.36C125.78,85.15,126.65,85.84,126.65,87.44 M128.22,87.43c0-2.35-1.45-3.57-3.71-3.57h-2.86v7.1h2.86C126.78,90.95,128.22,89.61,128.22,87.43"></path> <path class="st1" d="M94.15,87.62v-2.81h1.62c1.09,0,1.75,0.5,1.75,1.39c0,0.87-0.66,1.42-1.79,1.42H94.15z M93.16,83.86v7.1h0.98 v-2.42h1.6c1.58,0,2.82-0.77,2.82-2.37c0-1.44-1.11-2.31-2.75-2.31H93.16z"></path> <path class="st1" d="M77.41,90.09c-1.48,0-2.61-1.13-2.61-2.68c0-1.55,1.12-2.7,2.59-2.7c1.45,0,2.59,1.15,2.59,2.72 C79.97,88.97,78.85,90.09,77.41,90.09 M77.41,83.76c-2.07,0-3.68,1.59-3.68,3.66c0,2.1,1.62,3.63,3.66,3.63 c2.06,0,3.66-1.59,3.66-3.65C81.04,85.31,79.43,83.76,77.41,83.76"></path> <path class="st1" d="M66.44,84.81h2.01c1.05,0,1.66,0.46,1.66,1.24c0,0.77-0.61,1.3-1.67,1.3h-2V84.81z M68.3,88.29l2.06,2.66 h1.23l-2.21-2.85c1.1-0.27,1.79-0.96,1.79-2.07c0-1.34-1.08-2.17-2.68-2.17h-3.04v7.1h0.99v-2.66H68.3z"></path> <polygon class="st1" points="106.34,84.8 106.34,83.86 101.34,83.86 101.34,90.95 106.34,90.95 106.34,90.01 102.35,90.01 102.35,87.78 105.98,87.78 105.98,86.88 102.35,86.88 102.35,84.8 "></polygon> <path class="st1" d="M88.83,87.91c0,1.55-0.89,2.18-2.01,2.18c-1.13,0-2.05-0.63-2.05-2.19V83.8h-1.02v4.18 c0,2.05,1.44,3.07,3.05,3.07c1.65,0,3.05-1.02,3.05-3.07V83.8h-1.02V87.91z"></path> </g> <path class="st1" d="M61.66,84.57c0,0.01-0.59,0.79-0.59,0.79c-0.56-0.43-1.18-0.66-2-0.66c-1.4,0-2.65,1.05-2.65,2.7 c0,1.58,1.19,2.7,2.73,2.7c0.71,0,1.31-0.19,1.73-0.47v-1.59h-1.87v-0.94h2.85v3.09c-0.69,0.51-1.62,0.86-2.71,0.86 c-2.08,0-3.79-1.49-3.79-3.63c0-2.19,1.68-3.66,3.72-3.66C60.13,83.76,60.9,84.02,61.66,84.57"></path> </g> </svg> 