<?xml version="1.0" encoding="UTF-8"?> <!-- Generator: Adobe Illustrator 26.3.1, SVG Export Plug-In . SVG Version: 6.00 Build 0) --> <svg xmlns="http://www.w3.org/2000/svg" xmlns:xlink="http://www.w3.org/1999/xlink" version="1.1" id="Calque_1" x="0px" y="0px" viewBox="0 0 192.57 112.69" style="enable-background:new 0 0 192.57 112.69;" xml:space="preserve"> <style type="text/css"> .st0{fill:none;} .st1{fill:#FF6A00;} </style> <rect x="0.11" y="0.12" class="st0" width="192.34" height="112.56"></rect> <g> <path class="st1" d="M42.55,61.53c2.06-2.9,5.62-7.22,5.46-10.08c-0.15-3.73-4.03-4.95-7.89-4.91c-2.69,0.04-5.38,0.8-7.2,1.48 c-6.28,2.3-9.99,6-12.14,10.09c-2.31,4.05-0.99,7.93,4.81,8.05c3.9-0.16,6.5-1.13,9-2.41c0.14-0.07,0.06-0.28-0.09-0.24 c-2.32,0.58-7.7,1.68-10.21,0.33c0,0-0.01,0-0.01,0c-0.33-0.18-0.71-0.43-0.87-1.12c-0.17-1.45,2.07-2.95,3.37-3.43l-0.27-2.51 c1.03,0.39,2.13,0.6,3.26,0.6c2.14,0,4.02-0.76,5.41-2.03c0.09,0.2,0.16,0.43,0.19,0.69h0.61c0.01-0.64-0.41-1.15-0.41-1.15 C34.95,54.02,34,54.04,34,54.04s0.45,0.21,0.84,0.72c-3.22,2.85-7.25,1.45-7.25,1.45l1.66-1.84l-0.7-1.43 c3.83-1.39,7.06-2.46,12.41-3.41l-1.33-1.02l0.6-0.39c3.38,0.92,5.6,1.61,5.68,3.34c-0.02,0.29-0.09,0.62-0.22,1.01 c-0.75,1.89-3.26,5.05-4.27,6.37c-0.67,0.87-1.32,1.73-1.76,2.55c-0.46,0.82-0.71,1.59-0.65,2.32c-0.03,4.29,7.64,0.7,11.1-1.61 c0.11-0.07,0.03-0.25-0.1-0.2C40.26,65.13,42.55,61.53,42.55,61.53z"></path> <g> <path class="st1" d="M134.47,57.23c0-3.28-2.48-4.82-7.34-4.92c-5.07-0.11-7.21,1.21-7.63,3.98h5.25c0.25-0.9,0.86-1.41,2.12-1.36 c1.24,0.04,2.16,0.67,2.2,2.31c-2.83,0.04-4.91,0.21-6.34,0.55c-2.76,0.66-4.13,2.16-4.13,4.21c0,1.38,0.61,2.39,1.83,3.02 c0.92,0.47,2.11,0.76,3.57,0.71c2.4-0.08,4.12-0.77,5.19-2.18v1.89h5.28L134.47,57.23z M129.07,59.84c0,1.89-0.96,2.83-2.87,2.83 c-1.23,0-1.84-0.45-1.84-1.35c0-0.82,0.64-1.34,1.93-1.56c0.48-0.08,1.4-0.13,2.78-0.13V59.84z"></path> <path class="st1" d="M172.86,57.23c0-3.28-2.48-4.82-7.34-4.92c-5.07-0.11-7.21,1.21-7.63,3.98h5.25c0.25-0.9,0.86-1.41,2.12-1.36 c1.24,0.04,2.16,0.67,2.2,2.31c-2.83,0.04-4.91,0.21-6.34,0.55c-2.76,0.66-4.13,2.16-4.13,4.21c0,1.38,0.61,2.39,1.83,3.02 c0.92,0.47,2.11,0.76,3.57,0.71c2.4-0.08,4.12-0.77,5.19-2.18v1.89h5.28L172.86,57.23z M167.46,59.84c0,1.89-0.96,2.83-2.87,2.83 c-1.23,0-1.84-0.45-1.84-1.35c0-0.82,0.64-1.34,1.93-1.56c0.48-0.08,1.4-0.13,2.78-0.13V59.84z"></path> <path class="st1" d="M63.58,47.15l-9.15,18.32h5.94l1.45-3.3h9.15l1.35,3.3h6.59l-8.72-18.32H63.58z M63.56,58.18l3-6.67 l2.84,6.67H63.56z"></path> <rect x="80.61" y="47.15" class="st1" width="5.75" height="18.32"></rect> <rect x="90.02" y="47.15" class="st1" width="5.75" height="3.64"></rect> <rect x="90.02" y="52.77" class="st1" width="5.75" height="12.7"></rect> <path class="st1" d="M99.43,65.48h5.62v-2.26v-0.05c1.49,1.9,3.37,2.7,5.65,2.61c1.27-0.07,2.44-0.51,3.51-1.25 c1.44-1.15,2.21-2.66,2.33-4.54c0.16-1.93-0.3-3.69-1.4-5.26c-1.07-1.33-2.44-2.09-4.09-2.28c-2.31-0.31-4.33,0.46-5.95,2.2v-7.49 h-5.66L99.43,65.48z M110.32,61.16c-1.06,1.45-2.37,1.78-3.95,0.97c-0.08-0.05-0.16-0.11-0.24-0.17c-0.5-0.46-0.81-1.03-0.95-1.7 c-0.2-0.99-0.17-1.96,0.09-2.93c0.19-0.66,0.55-1.17,1.1-1.55c0.63-0.36,1.29-0.49,2-0.39c0.98,0.16,1.68,0.71,2.08,1.65 c0.25,0.62,0.37,1.27,0.36,1.95C110.82,59.76,110.66,60.48,110.32,61.16z"></path> <path class="st1" d="M137.81,65.48h5.62v-2.26v-0.05c1.49,1.9,3.37,2.7,5.65,2.61c1.27-0.07,2.44-0.51,3.51-1.25 c1.44-1.15,2.21-2.66,2.33-4.54c0.16-1.93-0.3-3.69-1.4-5.26c-1.07-1.33-2.44-2.09-4.09-2.28c-2.31-0.31-4.33,0.46-5.95,2.2v-7.49 h-5.66L137.81,65.48z M148.69,61.16c-1.06,1.45-2.37,1.78-3.95,0.97c-0.08-0.05-0.16-0.11-0.24-0.17c-0.5-0.46-0.81-1.03-0.95-1.7 c-0.2-0.99-0.17-1.96,0.09-2.93c0.19-0.66,0.55-1.17,1.1-1.55c0.63-0.36,1.29-0.49,2-0.39c0.98,0.16,1.68,0.71,2.08,1.65 c0.25,0.62,0.37,1.27,0.36,1.95C149.2,59.76,149.04,60.48,148.69,61.16z"></path> </g> </g> </svg> 