<?xml version="1.0" encoding="UTF-8"?> <!-- Generator: Adobe Illustrator 26.3.1, SVG Export Plug-In . SVG Version: 6.00 Build 0) --> <svg xmlns="http://www.w3.org/2000/svg" xmlns:xlink="http://www.w3.org/1999/xlink" version="1.1" id="Calque_1" x="0px" y="0px" viewBox="0 0 192.57 112.69" style="enable-background:new 0 0 192.57 112.69;" xml:space="preserve"> <style type="text/css"> .st0{fill:none;} .st1{fill:#E3000F;} .st2{fill:#004E9F;} </style> <g> <rect x="0.11" y="0.09" class="st0" width="192.34" height="112.51"></rect> <g> <path class="st1" d="M78.78,29.87c0.15-0.15,0.3-0.21,0.42-0.21c0.22,0,0.38,0.2,0.37,0.44c-0.01,0.14-0.07,0.3-0.21,0.44 c-5.5,6.83-9.49,14.82-9.49,25.9c0,11.07,4,18.9,9.49,25.74c0.14,0.14,0.2,0.3,0.21,0.44c0.01,0.24-0.15,0.44-0.37,0.44 c-0.12,0-0.27-0.06-0.42-0.21L55.36,60.18c-1.17-1-1.91-2.17-1.91-3.83c0-1.67,0.75-2.83,1.91-3.83L78.78,29.87"></path> <path class="st2" d="M96.78,27.95c-9.17,0-12.75,12.99-12.75,28.48c0,15.49,3.58,28.31,12.75,28.31c5.5,0,10.19-3.22,10.21-5.87 c0-0.58-0.22-1.13-0.71-1.62c-2.61-2.52-3.63-5.04-3.64-7.26c-0.01-4.24,3.67-7.4,7.06-7.4c4.67,0,7.42,3.67,7.42,8.41 c0,4.5-1.92,8.25-4,11.24c-0.08,0.13-0.12,0.26-0.12,0.38c0,0.24,0.14,0.43,0.35,0.43c0.13,0,0.27-0.07,0.44-0.23l23.42-22.65 c1.17-1,1.92-2.17,1.92-3.83c0-1.67-0.75-2.83-1.92-3.83l-23.42-22.65c-0.16-0.16-0.31-0.23-0.44-0.23 c-0.21,0-0.34,0.19-0.35,0.43c0,0.12,0.04,0.26,0.12,0.38c2.08,2.99,4,6.75,4,11.24c0,4.74-2.75,8.41-7.42,8.41 c-3.39,0-7.07-3.16-7.06-7.4c0.01-2.22,1.03-4.74,3.64-7.26c0.49-0.49,0.71-1.04,0.71-1.62C106.98,31.18,102.29,27.95,96.78,27.95 z"></path> </g> </g> </svg> 