<?xml version="1.0" encoding="UTF-8"?> <!-- Generator: Adobe Illustrator 26.1.0, SVG Export Plug-In . SVG Version: 6.00 Build 0) --> <svg xmlns="http://www.w3.org/2000/svg" xmlns:xlink="http://www.w3.org/1999/xlink" version="1.1" id="Calque_1" x="0px" y="0px" viewBox="0 0 192.57 112.69" style="enable-background:new 0 0 192.57 112.69;" xml:space="preserve"> <style type="text/css"> .st0{fill:none;} .st1{fill:#85BC22;} </style> <rect x="0.11" y="0.08" class="st0" width="192.34" height="112.56"></rect> <g> <path class="st1" d="M164.7,66.6c0-2.24,1.82-4.06,4.06-4.06c2.24,0,4.06,1.82,4.06,4.06c0,2.24-1.82,4.06-4.06,4.06 C166.52,70.66,164.7,68.84,164.7,66.6"></path> <path d="M43.01,55.59c0,4.68-1.26,8.29-3.78,10.82c-2.52,2.53-6.05,3.8-10.61,3.8h-8.86V42.16h9.48c4.4,0,7.79,1.15,10.18,3.45 C41.81,47.91,43.01,51.24,43.01,55.59 M35.32,55.86c0-2.57-0.5-4.48-1.49-5.72c-0.99-1.24-2.5-1.86-4.53-1.86h-2.15v15.71h1.65 c2.25,0,3.9-0.67,4.95-2.01C34.8,60.65,35.32,58.61,35.32,55.86"></path> <rect x="67.55" y="42.04" width="7.05" height="28.17"></rect> <path d="M97.74,59.7c0,3.42-0.9,6.09-2.7,8c-1.8,1.91-4.31,2.87-7.55,2.87c-3.1,0-5.57-0.98-7.4-2.94 c-1.83-1.96-2.75-4.6-2.75-7.94c0-3.41,0.9-6.06,2.7-7.95c1.8-1.89,4.32-2.83,7.57-2.83c2.01,0,3.78,0.44,5.32,1.31 c1.54,0.87,2.73,2.13,3.56,3.76C97.33,55.61,97.74,57.52,97.74,59.7 M84.51,59.7c0,1.8,0.23,3.17,0.7,4.11 c0.47,0.94,1.26,1.41,2.36,1.41c1.09,0,1.87-0.47,2.32-1.41c0.45-0.94,0.68-2.31,0.68-4.11c0-1.79-0.23-3.13-0.68-4.04 c-0.46-0.91-1.24-1.37-2.34-1.37c-1.08,0-1.86,0.45-2.33,1.36C84.74,56.55,84.51,57.9,84.51,59.7"></path> <rect x="100.54" y="49.28" width="7.05" height="20.92"></rect> <rect x="100.54" y="42.04" width="7.05" height="4.71"></rect> <path d="M121.88,64.87c0.95,0,2.09-0.24,3.41-0.72v5.26c-0.95,0.42-1.86,0.72-2.71,0.89c-0.86,0.18-1.87,0.27-3.02,0.27 c-2.37,0-4.08-0.59-5.12-1.78c-1.04-1.19-1.57-3.01-1.57-5.47V54.7h-2.47v-5.41h2.47v-5.34l7.11-1.24v6.58h4.5v5.41h-4.5v8.14 C119.97,64.19,120.61,64.87,121.88,64.87"></path> <path d="M138.21,64.87c0.95,0,2.09-0.24,3.41-0.72v5.26c-0.95,0.42-1.86,0.72-2.71,0.89c-0.86,0.18-1.87,0.27-3.02,0.27 c-2.37,0-4.08-0.59-5.12-1.78c-1.05-1.19-1.57-3.01-1.57-5.47V54.7h-2.47v-5.41h2.47v-5.42l7.11-1.16v6.58h4.5v5.41h-4.5v8.14 C136.3,64.19,136.93,64.87,138.21,64.87"></path> <path d="M160.46,51.38c-1.68-1.64-4.05-2.47-7.13-2.47c-3.23,0-5.72,0.94-7.47,2.83c-1.74,1.89-2.61,4.6-2.61,8.13 c0,3.42,0.94,6.06,2.82,7.91c1.88,1.85,4.52,2.78,7.93,2.78c1.63,0,3.04-0.11,4.22-0.33c1.17-0.22,2.31-0.62,3.41-1.19l-1.08-4.71 c-0.8,0.33-1.56,0.58-2.28,0.74c-1.04,0.24-2.18,0.36-3.42,0.36c-1.36,0-2.43-0.33-3.22-1c-0.79-0.66-1.21-1.58-1.25-2.75h12.61 v-3.21C162.98,55.39,162.14,53.02,160.46,51.38 M150.51,57.15c0.1-1.15,0.42-1.98,0.98-2.52c0.56-0.54,1.25-0.8,2.08-0.8 c0.9,0,1.62,0.3,2.15,0.91c0.54,0.6,0.82,1.41,0.84,2.42H150.51z"></path> <path d="M62.31,51.38c-1.68-1.64-4.05-2.47-7.13-2.47c-3.23,0-5.72,0.94-7.47,2.83c-1.74,1.89-2.62,4.6-2.62,8.13 c0,3.42,0.94,6.06,2.82,7.91c1.88,1.85,4.52,2.78,7.93,2.78c1.63,0,3.04-0.11,4.22-0.33c1.17-0.22,2.31-0.62,3.41-1.19l-1.08-4.71 c-0.8,0.33-1.56,0.58-2.28,0.74c-1.04,0.24-2.18,0.36-3.42,0.36c-1.36,0-2.43-0.33-3.22-1c-0.79-0.66-1.21-1.58-1.25-2.75h12.6 v-3.21C64.83,55.39,63.99,53.02,62.31,51.38 M52.36,57.15c0.1-1.15,0.42-1.98,0.98-2.52c0.56-0.54,1.25-0.8,2.08-0.8 c0.9,0,1.62,0.3,2.15,0.91c0.54,0.6,0.81,1.41,0.84,2.42H52.36z"></path> </g> </svg> 