<?xml version="1.0" encoding="UTF-8"?> <!-- Generator: Adobe Illustrator 25.4.1, SVG Export Plug-In . SVG Version: 6.00 Build 0) --> <svg xmlns="http://www.w3.org/2000/svg" xmlns:xlink="http://www.w3.org/1999/xlink" version="1.1" id="Calque_1" x="0px" y="0px" viewBox="0 0 192.6 112.7" style="enable-background:new 0 0 192.6 112.7;" xml:space="preserve"> <style type="text/css"> .st0{fill:none;} .st1{fill:#E669A2;} .st2{fill:#F3BC87;} .st3{fill:#EE9C34;} .st4{fill:#E3731C;} .st5{fill:#F3BE26;} .st6{fill:#DB4E18;} .st7{fill:#E88C14;} .st8{fill:#D1390D;} .st9{fill:#D85604;} .st10{fill:#C22303;} .st11{fill:#C14303;} .st12{fill:#AD1B02;} </style> <g> <rect class="st0" width="192.4" height="112.6"></rect> <g> <g> <path d="M111.3,66.7c-2.7,0.4-4.1,2.5-4.1,6c0,3.6,1.9,6,4.7,6c1.3,0,2.5-0.4,5.1-1.7v2.9c-3,1.4-4.8,1.8-7.3,1.8 c-2.7,0-4.5-0.7-6-2.3c-1.6-1.6-2.3-3.6-2.3-5.9c0-5.1,3.8-8.6,9.3-8.6c3.7,0,6.2,1.7,6.2,4.1c0,1.6-1.2,2.7-2.9,2.7 c-0.9,0-1.6-0.2-2.6-0.8L111.3,66.7L111.3,66.7z"></path> <path d="M97.8,73.5c2.4-3.1,3.3-4.3,3.3-5.9c0-1.5-1.2-2.7-2.8-2.7c-1,0-1.9,0.5-2.3,0.9v6.3l-4,5.3V65.3h-3.8l-6.3,10.5V65.3 h-2.2l-5.8,1.4v1.5l3.1,0.3v12.9h4.1l6.1-10v10h4.4L97.8,73.5z"></path> <path d="M61.8,79.4c0.4,0,0.6,0,0.9,0c3.3,0,5-2,5-5.9c0-3.3-1.4-5.1-4.1-5.1c-0.4,0-0.9,0.1-1.8,0.2V79.4z M61.8,86.5l2.6,0.6 v1.5H54.1v-1.5l2.4-0.6v-18h-2.6V67l6.3-1.9h1.6v2.2c3-1.8,4-2.1,5.5-2.1c3.5,0,6.1,3.2,6.1,7.7c0,5.2-3.5,8.7-8.9,8.7 c-0.6,0-1.6,0-2.7-0.2V86.5z"></path> </g> <rect x="134.8" y="43.9" class="st1" width="4" height="7.9"></rect> <rect x="123.7" y="27.2" class="st2" width="3.1" height="4.8"></rect> <rect x="107.9" y="24.1" class="st3" width="15.8" height="3.1"></rect> <rect x="107.9" y="27.2" class="st4" width="15.8" height="4.8"></rect> <rect x="126.8" y="32" class="st5" width="8" height="11.9"></rect> <rect x="126.8" y="43.9" class="st6" width="8" height="7.9"></rect> <rect x="123.7" y="32" class="st7" width="3.1" height="11.9"></rect> <rect x="123.7" y="43.9" class="st8" width="3.1" height="7.9"></rect> <polygon class="st9" points="117.8,43.9 123.7,43.9 123.7,32 107.9,32 107.9,39.9 117.8,39.9 "></polygon> <rect x="117.8" y="43.9" class="st10" width="5.9" height="7.9"></rect> <rect x="107.9" y="39.9" class="st11" width="9.9" height="4"></rect> <rect x="107.9" y="43.9" class="st12" width="9.9" height="7.9"></rect> <rect x="92" y="51.8" class="st12" width="15.8" height="4"></rect> </g> </g> </svg> 