<?xml version="1.0" encoding="UTF-8"?> <!-- Generator: Adobe Illustrator 24.0.1, SVG Export Plug-In . SVG Version: 6.00 Build 0) --> <svg xmlns="http://www.w3.org/2000/svg" xmlns:xlink="http://www.w3.org/1999/xlink" version="1.1" id="Calque_1" x="0px" y="0px" viewBox="0 0 192.57 112.69" style="enable-background:new 0 0 192.57 112.69;" xml:space="preserve"> <style type="text/css"> .st0{fill:none;} .st1{fill:#FF0000;} </style> <g> <rect x="0.11" y="0.09" class="st0" width="192.34" height="112.56"></rect> <g> <g> <g> <path d="M88.48,86l-1.11,4.06c-0.24,0.02-0.53,0.06-0.98,0.06c-2.17,0-1.93-0.65-1.01-4.19c0.95-3.69,1.5-4.35,2.86-4.35 c1.3,0,1.31,0.88,0.98,1.99h3.31c0.54-2.08,0.18-3.92-3.7-3.92c-4.3,0-5.48,0.91-6.87,6.28c-1.29,5-0.87,6.33,3.79,6.33 c2.21,0,3.13-0.16,4.49-0.41L91.8,86H88.48z"></path> <path d="M96.37,90c-0.43,0-0.58-0.13-0.51-0.48l0.76-2.94h4.43l0.5-1.93h-4.43l0.5-1.96c0.13-0.51,0.49-0.95,1.21-0.95h3.54 l0.51-1.93h-5.16c-2.14,0-2.77,0.38-3.61,3.6l-1.53,5.88c-0.47,1.98,0.11,2.83,1.73,2.83h4.44c0.88,0,1.44-0.46,1.71-1.19 l0.37-0.94H96.37z"></path> <path d="M147.02,90c-0.44,0-0.58-0.13-0.5-0.48l0.75-2.94h4.43l0.5-1.93h-4.42l0.5-1.96c0.13-0.51,0.5-0.95,1.21-0.95h3.55 l0.49-1.93h-5.15c-2.14,0-2.78,0.38-3.61,3.6l-1.53,5.88c-0.47,1.98,0.12,2.83,1.73,2.83h4.45c0.87,0,1.44-0.46,1.71-1.19 l0.37-0.94H147.02z"></path> <path d="M76.93,79.82H72.5l-3.09,11.94c-0.05,0.2,0.07,0.37,0.27,0.37h3.95c4.96,0,5.79-0.95,7.16-6.2 C81.97,81.34,81.24,79.82,76.93,79.82z M74.1,90.02h-0.91l2.13-8.27c0.28,0,0.38-0.01,1.07-0.01c1.92,0,1.92,0.64,1,4.19 C76.46,89.5,75.93,90.02,74.1,90.02z"></path> <path d="M138.94,79.79c-2.55,0-3.74,0.06-4.43,0.03l-3.09,11.94c-0.06,0.2,0.06,0.37,0.27,0.37h2.96l2.69-10.38 c0.27,0,0.68-0.02,1.1-0.02c1.44,0,1.63,0.51,1.25,1.98l-2.08,8.05c-0.05,0.2,0.07,0.37,0.26,0.37h2.96l2.18-8.42 C143.76,80.79,142.48,79.79,138.94,79.79z"></path> <path d="M113.28,79.82l-0.5,2h3.28c0.04,0,0.04,0.04,0,0.06c-0.52,0.39-0.85,0.96-1,1.56l-2.15,8.33 c-0.05,0.2,0.06,0.37,0.26,0.37h3.18l2.67-10.31h1.63c0.91,0,1.48-0.38,1.78-1.18l0.31-0.82H113.28z"></path> <path d="M67.18,92.13l3.09-11.94c0.06-0.2-0.07-0.37-0.27-0.37h-3.13l-3.09,11.94c-0.05,0.2,0.07,0.37,0.27,0.37H67.18z"></path> <path d="M127.84,79.65c-3.72,0-5.34,0.66-6.82,6.33c-1.26,4.9-0.25,6.32,3.54,6.32c3.86,0,5.38-0.79,6.81-6.32 C132.42,81.97,132.2,79.65,127.84,79.65z M125.1,90.23c-1.42,0-1.64-0.52-0.64-4.35c0.81-3.2,1.61-4.31,2.87-4.31 c1.42,0,1.58,0.76,0.67,4.31C127.09,89.39,126.2,90.23,125.1,90.23z"></path> <path d="M61.74,87.19c-0.11-0.37-0.23-0.64-0.4-0.86c-0.02-0.02-0.03-0.06,0.01-0.08c1.42-0.43,2.35-1.32,2.74-2.84 c0.52-2.01-0.75-3.6-3.93-3.6h-4.74l-3.09,11.94c-0.06,0.2,0.06,0.37,0.27,0.37h2.96l2.69-10.38c0.29,0,0.55-0.01,1.24-0.01 c1.14,0,1.57,0.71,1.32,1.66c-0.33,1.25-1.3,1.96-2.45,1.96H57.9l1.23,5.96c0.15,0.58,0.44,0.82,1.1,0.82h2.65L61.74,87.19z"></path> <path d="M102.04,87.95c-1.25,3,0.38,4.36,3.71,4.36c3.03,0,4.73-0.72,5.45-3.52c0.24-0.95,0.08-1.98-0.49-2.62 c-1.14-1.23-3.33-1.47-4.1-2.18c-0.39-0.37-0.39-0.88-0.27-1.32c0.21-0.8,0.74-1.24,1.62-1.24c1.37,0,1.41,0.84,1.07,1.85h2.95 c0.7-2.09-0.22-3.73-3.68-3.73c-2.92,0-4.51,1.14-5.07,3.34c-0.15,0.6-0.09,1.59,0.27,2.2c0.8,1.38,2.93,1.54,4.1,2.36 c0.51,0.36,0.53,0.84,0.39,1.37c-0.26,1.02-0.78,1.52-1.81,1.52c-0.98,0-1.58-0.57-1.01-2.38H102.04z"></path> <g> <path d="M49.89,85.63c1.29-0.27,2.44-1.08,2.84-2.59c0.51-1.92-0.72-3.21-3.73-3.21h-5.27l-3.1,11.95 c-0.05,0.2,0.07,0.37,0.27,0.37h4.79c3.85,0,5.53-0.83,6.11-3.47c0.35-1.64-0.58-2.72-1.91-2.97 C49.86,85.69,49.86,85.64,49.89,85.63z M47.82,81.74c1.31,0,1.74,0.52,1.49,1.49c-0.24,0.93-1.06,1.59-2.05,1.59h-1.52 l0.79-3.06C46.73,81.75,47.26,81.74,47.82,81.74z M46.08,90.03H44.4l0.89-3.43h1.65c1.31,0,1.73,0.79,1.49,1.75 C48.18,89.26,47.33,90.03,46.08,90.03z"></path> </g> </g> <g> <g> <path class="st1" d="M75.82,47.56l7.09-24.88c0.69-2.55,3.52-4.89,6.38-4.89h21.7c0.36,0,0.47,0.47,0.19,0.67 C99.91,26.17,86.3,37.62,76.44,47.88C76.19,48.16,75.72,47.93,75.82,47.56z"></path> <path d="M92.97,62.49l7.02-24.56c0.1-0.37-0.3-0.64-0.6-0.39C89.06,46.44,76.6,59.41,68.8,69.23c-0.2,0.25-0.1,0.63,0.25,0.63 h30.38c12.82,0,19.82-3.98,22.38-13.46c2.07-7.72-1.97-12.99-8.46-14.35c-0.11-0.02-0.21-0.24,0-0.28 c5.48-0.93,10.99-3.14,12.96-11.11c2.13-8.63-4.46-13.36-12.06-12.88l-11.62,40.66c-0.63,2.19-2.98,4.04-5.22,4.04H92.97z"></path> </g> </g> </g> </g> </g> </svg> 