<?xml version="1.0" encoding="UTF-8"?> <!-- Generator: Adobe Illustrator 24.0.1, SVG Export Plug-In . SVG Version: 6.00 Build 0) --> <svg xmlns="http://www.w3.org/2000/svg" xmlns:xlink="http://www.w3.org/1999/xlink" version="1.1" id="Calque_1" x="0px" y="0px" viewBox="0 0 192.57 112.69" style="enable-background:new 0 0 192.57 112.69;" xml:space="preserve"> <style type="text/css"> .st0{fill:none;} .st1{fill-rule:evenodd;clip-rule:evenodd;fill:#FF5701;} .st2{fill:#00327D;} </style> <g> <rect x="0.11" y="0.09" class="st0" width="192.34" height="112.51"></rect> <g> <g> <path class="st1" d="M65.62,37.78c0.2-1.67-0.05-4.12,1.27-5.26c0.39-1.78,3.19-1.37,2.76-2.5c-0.27-0.71-1.59-0.37-2.13-0.24 c-0.4,0.1-4.25,1.31-5.73,1.48c-0.63-0.18-1.25-0.35-1.88-0.52c-2.41,0.33-3.81,2.25-5.15,3.78c-1.13,1.28-2.65,4.41-1.44,6.29 c-0.07,0.41-0.14,0.82-0.2,1.23l2.75,4.01c0.95,0.68,1.07,1.18,2.09,1.85c0.21,0.32,0.42,0.63,0.63,0.95 c0.83,0.55,3.29,0.56,3.71,0.2c3.96,0.37,3.53-7.64,4.78-9.32C66.91,38.95,66.25,38.16,65.62,37.78z M48.56,61.84 c0.84-0.22,2.27-0.33,3.02-0.7c1.19-0.6,5.3-3.47,4-5.81c-0.4-4.92-6.35-0.76-8.88-2.49c-2.56-0.33-5.44-5.17-6.21-7.25 c-0.3-0.82-0.18-0.54-0.59-1.19c0-0.07-0.26,0.23-0.26,0.16c-0.75,0.87-0.62,1.63-0.74,3.76c-0.34-0.02-0.67-0.04-1.01-0.06 c-0.07,0.77-0.14,1.19-0.5,1.59c-0.07,0.13-0.15,0.26-0.22,0.39c-0.64-0.21-0.32,0.09-0.58-0.44c-2.36,0.12-2.18,2.49-3.27,3.84 C33.38,58.04,42.13,63.5,48.56,61.84z M77.65,48.4c-3.82,0.58-6.16,1.79-7.6,2.79c-1.01,0.7-1.3,1.18-1.52,1.47 c-0.22,0.3-0.37,0.95-0.26,1.64c0.11,0.68,0.39,1.41,0.98,1.82c4.69-0.35,12.84-0.64,14.42,3.3c0.09,0.55,0.21,0.88,0.22,1.01 c1.55-0.38,0.42-0.25,2.71,0.11c0.52,0.08,1.82-0.21,2.67-0.42c0.39-0.09,0.61-0.45,0.61-0.45s-0.07-0.37-0.05-0.58 c0,0,0.8,0.06,1.13-0.19c2.17-0.35,1.03-1.37,2.05-2.52C92.41,49.02,84.85,47.31,77.65,48.4z M69.28,64.43 c-1.09,0.83-1.55,0.63-2.18,1.91c-0.07,0,0.1,0.2,0.03,0.2c0.65,1.29,2.14,1.82,3.23,2.73c0.34,0.29,1.26,1.89,1.7,2 c0.49,0.59,0.81,2.21,1.13,2.21c0.34,0.46-0.03,1.53,0.3,1.95c0.02,1.93-0.24,2.06-0.58,2.43c0,0.13,0.19,0.48,0.19,0.61 c0.09,0.09,0.86,0.65,1.2,0.58c1.05,0.03,5.35,3.39,5.69,4.03c3.08,0.23,2.86-0.71,4.99-1.61c0.58-0.25,1.03-0.01,1.41-0.41 c0.39-0.4,0.43-1.2,0.81-1.61C87.24,71.87,76.92,64.69,69.28,64.43z M57.13,66.16c-0.43,0.46-1.61,0.63-1.94,1.15 c-0.51,0.79-1.66,2.59-2.57,3.45c-2.92,2.77-9.17,4.16-12.26,1.52c-0.2,0.01-0.08,0.13,0.16,0.89c0.22,1.44,1.38,4.8,0.96,5.66 c0.28,0.96,0.57,0.61,1.09,1.14c0.36,0.36,0.51,1.3,0.92,1.55c0.47-0.03,0.94-0.06,1.41-0.1c0.08,0.26,0.17,0.52,0.26,0.79 c0.6-0.04,1.21-0.09,1.81-0.13c0.34,0.08,1.36,0.61,1.67,0.69c0.67-0.05,1.34-0.09,2.01-0.14c1.53,0.41,2.87-0.23,4.17-1.11 c0.72-0.48,1.51-0.41,2.15-0.96c0.93-0.8,2.19-2.35,2.78-3.43c1.45-2.64,0.96-8.96-0.36-10.52 C58.87,66.04,58.26,66.03,57.13,66.16z"></path> </g> <g> <path class="st2" d="M131.15,48.92c6.35,0,10.64,4.01,10.64,11.19c0,9.03-5.9,11.69-12.08,11.69h-8.27c0.03-0.5,0-1.83,0-3.51 V52.43c0-1.67,0.03-2.74,0-3.51H131.15z M129.29,67.46c3.51,0,6.36-1.16,6.36-7.35c0-5.26-2.85-7.02-6.36-7.02h-1.84v14.37 H129.29z"></path> <path class="st2" d="M150.79,68.3c0,1.67,0.08,3.51,0.08,3.51h-6.14c0,0,0.04-1.83,0.04-3.51V52.43c0-1.67-0.04-3.51-0.04-3.51 h14.51v4.43c0,0-3.24-0.08-4.35-0.08h-4.11v4.61l4.11,0.04c0.77,0,3.42-0.04,3.42-0.04v4.22c0,0-2.35-0.06-3.42-0.06l-4.11,0.02 V68.3z"></path> <path class="st2" d="M109.19,67.18c-2.89,0-5.11-1.94-5.11-4.98v-0.26c0,0,5.36-0.13,7.18-0.13c3.09,0,4.37-0.03,6.81-0.06 c0-0.46,0-1.73,0-1.73c0-7.8-3.31-11.59-10.12-11.59c-3.14,0-10.44,1.18-10.44,12.1c0,7.28,3.68,11.64,10.11,11.64 c5.05,0,8.15-1.29,10.39-2.93c-0.25-0.38-2.13-3.76-2.38-4.13C114.28,66.15,112.06,67.18,109.19,67.18z M104.08,57.57 c0.09-1.32,0.56-4.4,3.91-4.4c3.43,0,3.61,2.89,3.61,4.42v0.31c0,0-2.29,0.06-3.66,0.06c-1.37,0-3.89-0.06-3.89-0.06 L104.08,57.57z"></path> </g> </g> </g> </svg> 