<?xml version="1.0" encoding="UTF-8"?> <svg xmlns="http://www.w3.org/2000/svg" xmlns:xlink="http://www.w3.org/1999/xlink" version="1.1" id="Calque_1" x="0px" y="0px" viewBox="0 0 192.57 112.69" style="enable-background:new 0 0 192.57 112.69;" xml:space="preserve"> <style type="text/css"> .st0{fill:none;} .st1{fill:#1D1D1B;} </style> <g> <rect class="st0" width="192.43" height="112.61"></rect> </g> <g> <path class="st1" d="M74.8,40.91c1.7,0,3.01,0.93,3.01,2.72c0,0.93-0.38,2.21-1.06,3.82l-7.52,18.39l-8.45-19.11 c-0.64-1.49-0.98-2.51-0.98-3.57c0-1.19,0.98-2.25,3.1-2.25v-0.85h-12.4v0.85c2.5,0,3.27,0.89,4.76,4.29L67.2,72.63h0.68L79,45.54 c1.32-3.23,3.1-4.63,4.46-4.63v-0.85H74.8V40.91z M26.31,40.06v0.85c3.48,0,4.29,0.85,4.29,3.74v21.32c0,4.59-0.64,5.05-4.29,5.05 v0.89h24.42l2.76-8.66l-0.64-0.17c-2.63,6.54-4.46,7.47-9.98,7.47h-3.35c-4.25,0-4.42-0.13-4.42-5.35V45.8 c0-3.99,0.76-4.88,5.05-4.88v-0.85H26.31z M127.54,40.91v-0.85h-7.94l-11.68,25.27L95.78,40.06h-8.11v0.85 c3.44,0,4.2,1.02,4.2,4.16v20.89c0,4.59-0.85,5.05-4.2,5.05v0.89h9.85v-0.89c-3.44,0-4.16-0.47-4.16-5.05V45.12l12.31,26.79h0.76 l12.31-26.79v20.85c0,4.59-0.64,5.05-4.5,5.05v0.89h13.29v-0.89c-3.65,0-4.29-0.59-4.29-5.05V44.65 C123.25,41.85,124.1,40.91,127.54,40.91 M140.66,46.01c0-4.46,0.64-5.05,4.29-5.05v-0.89h-13.04v0.89c3.65,0,4.29,0.59,4.29,5.05 v19.96c0,4.46-0.64,5.05-4.29,5.05v0.89h13.04v-0.89c-3.65,0-4.29-0.59-4.29-5.05v-8.41c0-0.85,0.42-1.19,1.4-1.19h14.06 c1.06,0,1.4,0.42,1.4,1.49v8.11c0,4.46-0.64,5.05-4.29,5.05v0.89h13.04v-0.89c-3.65,0-4.29-0.59-4.29-5.05V46.01 c0-4.46,0.64-5.05,4.29-5.05v-0.89h-13.04v0.89c3.65,0,4.29,0.59,4.29,5.05v7.43c0,1.15-0.3,1.49-1.36,1.49h-14.14 c-0.98,0-1.36-0.25-1.36-1.1V46.01z"></path> </g> </svg> 