<?xml version="1.0" encoding="UTF-8"?> <!-- Generator: Adobe Illustrator 25.4.1, SVG Export Plug-In . SVG Version: 6.00 Build 0) --> <svg xmlns="http://www.w3.org/2000/svg" xmlns:xlink="http://www.w3.org/1999/xlink" version="1.1" id="Calque_1" x="0px" y="0px" viewBox="0 0 192.6 112.7" style="enable-background:new 0 0 192.6 112.7;" xml:space="preserve"> <style type="text/css"> .st0{fill:none;} .st1{fill:#003087;} .st2{fill:#E01B22;} </style> <rect x="0" y="0" class="st0" width="192.4" height="112.6"></rect> <g> <path class="st1" d="M85.9,74.9v-7.5c-2.6-0.7-6.1-2.1-8.6-5.2c-5.1,3.1-9.5,7.5-12.5,12.7l0,0H85.9z"></path> <path class="st2" d="M127.8,74.9L127.8,74.9c-4.6-7.9-12.2-13.9-21.1-16.5v16.5H127.8z"></path> <g> <path d="M109.4,37.9c-3.8-4-13.4-1-13.4-6.8c0-1.9,1.1-3,1.7-3.4c0,0,0,0,0-0.1s-0.1,0-0.1,0c-1,0.5-3.4,2-3.7,5 c-0.4,4.9,4.7,8,6.1,14.2c0.7,3.3,0.8,6.6,0.3,10.2c-0.1,0.7-0.2,1.4-0.4,2.2c-1,4.5-2.9,9.4-5.8,15.6c0,0,0,0,0,0 c0,0,0,0.1,0,0.1c0.1,0,0.1-0.1,0.1-0.1c0,0,0,0,0-0.1c3.7-6.5,7.4-12.1,10.5-17C110.5,48.9,113.7,42.5,109.4,37.9z"></path> <path d="M78.9,61.2c2.1,2.4,4.8,3.6,7,4.3c1.5,0.4,2.7,0.6,3.3,0.6c0,0,0.1,0,0.1,0c0,0,0,0,0,0c-1.2-0.4-2.3-0.9-3.3-1.4 c-2.4-1.3-4-2.8-5.1-4.4c-3.2-4.9-0.6-10.2,0.1-10.8c-1.2,4.7-0.3,7.9,1.3,10.1c1,1.4,2.4,2.4,3.6,3.1c1.4,0.7,2.6,1.1,3.1,1.2 c0,0,0.1,0,0.1,0c0,0,0-0.1,0-0.1c-1.3-0.8-2.3-1.6-3.1-2.5c-0.7-0.8-1.2-1.7-1.5-2.5c-1.5-4,0.8-7.6,0.8-7.6 c-0.8,3-0.4,5.4,0.5,7.2c0.1,0.1,0.1,0.2,0.2,0.3c0.8,1.4,1.9,2.3,2.7,2.7c0.1,0,0.1,0,0.1-0.1c-0.5-0.6-0.8-1.4-1-2.4 c-0.1-0.4,0-0.8,0-1.1c0.2-1.9,1.5-3.6,3.2-3.8c1.5-0.2,2.9,0.5,3.8,1.8c0.2,0.3,0.4,0.6,0.6,1c0.6,1.2,1,2.9,0.9,5.1 c0,2.2-0.6,5-1.7,8.3c0,0,0,0.1,0,0.1c0.1,0,0.1-0.1,0.1-0.1c1.5-2.8,3.5-8.3,3.9-13.4c0.1-1.1,0.1-2.3,0-3.3 c-0.6-6.9-6.1-12.1-12.3-11.5c-0.9,0.1-1.7,0.3-2.5,0.5c-4.7,1.5-8.6,5.9-7.8,12.1C76.4,57.5,77.5,59.6,78.9,61.2z"></path> <path d="M99.4,33.3c0.1,0,0.2,0,0.2-0.1c0.1-0.4,0.2-1.7,0.2-1.7c0,0,0-0.1-0.1-0.2c-1.6-0.5-1.8-2.2-1.8-2.6c0,0,0,0,0,0 c0,0,0,0,0,0C97.4,29.4,96.4,32.5,99.4,33.3z"></path> <path d="M97.6,26.4c0.1-0.1,0.1-0.1,0.1-0.2c-0.3-0.5-1.1-1.9-1.2-2c-0.1-0.1-0.1-0.1-0.2,0c-0.6,0.7-3.7,3.9-8.9,2.3 c0,0-0.1,0-0.1,0c0,0,0,0.1,0,0.1C91.7,30.4,96.6,27,97.6,26.4z"></path> <path d="M78.7,83.7L78.7,83.7c0,0.5-0.1,0.8-0.2,1c-0.1,0.2-0.3,0.3-0.6,0.3c-0.2,0-0.3,0-0.4-0.1c-0.1-0.1-0.2-0.3-0.3-0.7 c-0.1-0.4-0.1-1-0.1-1.8l0,0c0,0,0,0,0,0c0-0.7,0-1.3,0.1-1.6c0-0.1,0.1-0.1,0.1-0.2c0-0.1,0.1-0.1,0.2-0.2 c0.1-0.1,0.2-0.1,0.4-0.1c0.3,0,0.4,0.1,0.6,0.3c0,0,0,0,0,0c0.1,0.2,0.2,0.5,0.2,1c0,0,0,0,0,0v0.1h2v-0.1l0,0 c0-0.4-0.1-0.7-0.1-1c-0.1-0.4-0.3-0.8-0.6-1.1C79.5,79.2,78.8,79,78,79l0,0c0,0,0,0,0,0c-1.2,0-2,0.4-2.3,1.1 c-0.1,0.2-0.2,0.4-0.3,0.6c-0.2,0.6-0.2,1.2-0.2,1.9c0,1.1,0.1,2.1,0.5,2.8c0.4,0.7,1.1,1.1,2.3,1.1c0,0,0,0,0,0h0 c0.9,0,1.6-0.2,2.1-0.7c0.5-0.5,0.7-1.2,0.7-2.2l0,0v-0.1L78.7,83.7L78.7,83.7L78.7,83.7z"></path> <path d="M86.6,80.1c-0.4-0.7-1.1-1.1-2.3-1.1c0,0,0,0,0,0c0,0,0,0,0,0c-1.2,0-2,0.4-2.4,1.1c-0.1,0.2-0.2,0.4-0.2,0.6 c-0.2,0.6-0.2,1.2-0.2,1.9c0,1.1,0.1,2.1,0.5,2.8c0.4,0.7,1.1,1.1,2.3,1.1c0,0,0,0,0,0c0,0,0,0,0,0l0,0c1.2,0,1.9-0.4,2.3-1.1 c0.4-0.7,0.5-1.6,0.5-2.8c0-0.7,0-1.4-0.2-1.9C86.8,80.6,86.7,80.3,86.6,80.1z M84.9,84.7c-0.1,0.4-0.3,0.5-0.7,0.5c0,0,0,0,0,0 c-0.3,0-0.6-0.1-0.7-0.5c-0.1-0.4-0.2-1-0.2-2.1c0-0.7,0-1.3,0.1-1.7c0-0.1,0-0.1,0.1-0.2c0.1-0.3,0.3-0.4,0.7-0.4 s0.5,0.1,0.7,0.4c0,0.1,0.1,0.1,0.1,0.2c0.1,0.4,0.1,0.9,0.1,1.7C85.1,83.7,85,84.3,84.9,84.7z"></path> <path d="M91.3,79.7L91.3,79.7c-0.3-0.5-0.8-0.6-1.3-0.7c0,0-0.1,0-0.1,0c-0.6,0-1.2,0.2-1.6,0.7c-0.1,0.1-0.2,0.2-0.2,0.3 c0,0.1-0.1,0.2-0.1,0.3c-0.1,0.1-0.1,0.2-0.1,0.4c-0.2,0.6-0.2,1.2-0.2,1.9c0,1.1,0.1,2.1,0.5,2.8c0.3,0.6,1,1.1,1.8,1.1 c0.1,0,0.1,0,0.2,0c0.5-0.1,0.8-0.2,1.2-0.6l0,0v2.8h1.9v-9.5h-1.8L91.3,79.7L91.3,79.7z M91.2,84.7c-0.1,0.4-0.3,0.5-0.7,0.5h0 c-0.1,0-0.1,0-0.2,0c-0.3,0-0.5-0.2-0.6-0.6c-0.1-0.4-0.1-1-0.1-2c0-0.7,0-1.2,0.1-1.6s0.3-0.6,0.6-0.6c0.1,0,0.1,0,0.2,0 c0.4,0,0.6,0.2,0.7,0.6c0.1,0.4,0.1,0.9,0.1,1.7C91.3,83.6,91.3,84.3,91.2,84.7z"></path> <path d="M115.6,79.9v-0.7h-1.8v1.6v5.6h1.9v-4.1c0,0,0,0,0,0c0-0.3,0-0.7,0.2-1c0.2-0.3,0.4-0.5,1-0.5c0.1,0,0.1,0,0.2,0 c0.1,0,0.2,0,0.2,0l0.1,0h0l0,0V79c0,0-0.1,0-0.1,0C116,79,115.6,79.9,115.6,79.9z"></path> <path d="M112.6,80.1c-0.4-0.7-1.1-1.1-2.4-1.1c0,0,0,0,0,0c0,0,0,0,0,0c-1.2,0-2,0.4-2.4,1.1c-0.1,0.2-0.2,0.4-0.2,0.6 c-0.2,0.6-0.2,1.2-0.2,1.9c0,1.1,0.1,2.1,0.5,2.8c0.4,0.7,1.1,1.1,2.3,1.1c0,0,0,0,0,0h0l0,0c1.2,0,1.9-0.4,2.3-1.1 c0.4-0.7,0.5-1.6,0.5-2.8c0-0.7,0-1.4-0.2-1.9C112.8,80.5,112.7,80.3,112.6,80.1z M110.9,84.7c-0.1,0.4-0.3,0.5-0.7,0.5 c0,0,0,0,0,0c-0.3,0-0.6-0.1-0.7-0.5c-0.1-0.4-0.2-1-0.2-2.1c0-0.7,0-1.3,0.1-1.7c0-0.1,0-0.1,0.1-0.2c0.1-0.3,0.3-0.4,0.7-0.4 c0.3,0,0.5,0.1,0.7,0.4c0,0,0,0.1,0.1,0.2c0.1,0.4,0.1,0.9,0.1,1.7C111.1,83.7,111.1,84.3,110.9,84.7z"></path> <path d="M98.3,81.8c-0.3-0.1-0.5-0.3-0.7-0.4c-0.2-0.1-0.3-0.3-0.3-0.5c0-0.2,0-0.4,0.1-0.5c0.1-0.1,0.3-0.2,0.4-0.2 c0.2,0,0.3,0.1,0.4,0.2c0.1,0.1,0.2,0.3,0.2,0.8c0,0.1,0,0.1,0,0.1h2c0,0,0-0.2,0-0.3l0,0c0-0.7-0.3-1.2-0.7-1.6 c-0.5-0.3-1.1-0.5-1.7-0.5c-0.6,0-1.3,0.1-1.8,0.4s-0.9,0.8-0.9,1.6v0l0,0c0,0.6,0.2,1,0.5,1.3c0.5,0.5,1.2,0.7,1.8,1 c0.3,0.1,0.5,0.3,0.7,0.5c0.2,0.2,0.3,0.4,0.3,0.6c0,0.5-0.3,0.7-0.6,0.7c-0.3,0-0.5-0.1-0.6-0.3c-0.1-0.2-0.1-0.3-0.1-0.6 c0-0.1,0-0.3,0-0.3h-2c0,0,0,0.3,0,0.3v0c0,0.9,0.3,1.5,0.8,1.8s1.2,0.4,1.9,0.4l0,0c0.8,0,1.4-0.2,1.9-0.6s0.7-1,0.7-1.6v0 c0,0,0,0,0,0c0-0.6-0.2-1-0.5-1.4C99.6,82.4,98.9,82.1,98.3,81.8z"></path> <path d="M106.3,80.1c-0.1-0.1-0.2-0.2-0.2-0.3c-0.4-0.5-1-0.7-1.6-0.7c0,0-0.1,0-0.1,0c0,0,0,0-0.1,0c-0.5,0-1,0.2-1.3,0.7l0,0 v-0.6h-1.8v9.5h1.9v-2.2v-0.6l0,0c0.3,0.4,0.6,0.6,1.2,0.6c0.1,0,0.1,0,0.2,0c0.8,0,1.4-0.5,1.8-1.1c0.4-0.7,0.5-1.6,0.5-2.8 c0-0.7,0-1.3-0.2-1.9C106.5,80.5,106.4,80.3,106.3,80.1z M104.7,84.6c-0.1,0.4-0.3,0.6-0.6,0.6c-0.1,0-0.1,0-0.2,0c0,0,0,0,0,0 c-0.3,0-0.6-0.1-0.7-0.5c-0.1-0.4-0.2-1-0.2-2.1c0-0.7,0-1.3,0.1-1.7c0.1-0.4,0.3-0.6,0.7-0.6c0.1,0,0.1,0,0.2,0 c0.1,0,0.2,0.1,0.3,0.1c0.1,0.1,0.2,0.2,0.2,0.3c0,0.1,0.1,0.1,0.1,0.2c0.1,0.4,0.1,0.9,0.1,1.6C104.8,83.5,104.8,84.2,104.7,84.6 z"></path> <path d="M119.9,77.1l-0.1,0.1l-1.8,0.9v2.7v4.1c0,0.2,0.1,0.6,0.3,1c0.3,0.4,0.7,0.7,1.5,0.7c0.7,0,1.1-0.1,1.1-0.1V85 c0,0-0.2,0.1-0.4,0.1c-0.3,0-0.4-0.1-0.4-0.2c-0.1-0.1-0.1-0.3-0.1-0.5c0,0,0-2.9,0-3.6c0-0.1,0-0.1,0-0.1h1v-1.5h-1V77.1z"></path> <polygon points="121.7,79.2 121.7,86.4 121.7,86.4 123.5,86.4 123.5,80.8 123.5,79.2 122.9,79.2 "></polygon> <polygon points="121.7,76.8 121.7,78.4 121.7,78.4 122.5,78.4 123.5,78.4 123.5,76.8 121.7,76.8 "></polygon> <path d="M126.9,78.4c0.1-0.1,0.2-0.2,0.4-0.2c0.3,0,0.4,0.1,0.4,0.1v-1.4c0,0-0.3-0.1-1.1-0.1c-0.8,0-1.1,0.3-1.4,0.7 c-0.3,0.4-0.3,0.8-0.3,1v0.7h-0.8v1.5h0.8v5.8h1.9v-5.8h0.9v-1.5h-0.9v-0.2C126.8,78.7,126.8,78.5,126.9,78.4z"></path> <path d="M72.6,80.1c-0.3-0.4-0.7-0.7-1.3-0.9c-0.3-0.1-0.6-0.1-1-0.1c0,0,0,0,0,0l0,0c0,0,0,0,0,0c-0.2,0-0.5,0-0.7,0.1 c-0.8,0.1-1.4,0.5-1.7,1.1c-0.4,0.7-0.5,1.6-0.5,2.6c0,0.9,0.1,1.8,0.3,2.4c0,0.1,0.1,0.2,0.1,0.3c0.4,0.7,1.1,1.1,2.3,1.1h0h0 l0,0c0.9,0,1.6-0.3,2-0.7c0.5-0.5,0.7-1.1,0.7-1.9v-0.1h-2.1v0.1c0,0.3,0,0.6-0.1,0.8s-0.3,0.4-0.5,0.4c-0.2,0-0.3-0.1-0.4-0.2 c-0.3-0.3-0.3-1.1-0.3-1.7c0,0,0,0,0,0v0H73v-0.1c0-0.2,0-0.4,0-0.5c0-0.7-0.1-1.3-0.2-1.8C72.8,80.5,72.7,80.3,72.6,80.1z M71.1,82L71.1,82L71.1,82l-1.7,0l0,0l0,0c0,0,0-0.1,0-0.1c0-0.3,0-0.7,0.1-1c0.1-0.3,0.3-0.5,0.6-0.6c0.1,0,0.1,0,0.2,0 c0.1,0,0.1,0,0.2,0c0.3,0.1,0.5,0.3,0.6,0.6C71.1,81.2,71.1,81.6,71.1,82C71.1,81.9,71.1,82,71.1,82z"></path> <polygon points="64.8,86.4 64.9,86.4 66.7,86.4 66.7,76.8 64.8,76.8 "></polygon> </g> </g> </svg> 