<?xml version="1.0" encoding="UTF-8"?> <!-- Generator: Adobe Illustrator 25.4.1, SVG Export Plug-In . SVG Version: 6.00 Build 0) --> <svg xmlns="http://www.w3.org/2000/svg" xmlns:xlink="http://www.w3.org/1999/xlink" version="1.1" id="Calque_1" x="0px" y="0px" viewBox="0 0 192.6 112.7" style="enable-background:new 0 0 192.6 112.7;" xml:space="preserve"> <style type="text/css"> .st0{fill:none;} .st1{fill:#18BAE8;} </style> <g> <rect x="0" y="0" class="st0" width="192.4" height="112.6"></rect> </g> <g> <g> <g> <rect x="75.5" y="64.7" class="st1" width="4.2" height="16.7"></rect> <path class="st1" d="M113.6,69.4c-0.2-0.1-1.5-0.9-3.5-0.9c-2.7,0-4.6,1.9-4.6,4.4c0,2.5,1.8,4.4,4.6,4.4c2,0,3.4-0.8,3.5-0.9V81 c-0.5,0.1-2,0.6-3.8,0.6c-4.7,0-8.9-3.3-8.9-8.6c0-5,3.8-8.6,8.9-8.6c2,0,3.4,0.5,3.8,0.6V69.4z"></path> <path class="st1" d="M69.7,69.4c-0.2-0.1-1.5-0.9-3.5-0.9c-2.7,0-4.6,1.9-4.6,4.4c0,2.5,1.8,4.4,4.6,4.4c2,0,3.4-0.8,3.5-0.9V81 c-0.5,0.1-2,0.6-3.8,0.6c-4.7,0-8.9-3.3-8.9-8.6c0-5,3.8-8.6,8.9-8.6c2,0,3.4,0.5,3.8,0.6V69.4z"></path> <path class="st1" d="M135.6,73c0,4.8-3.7,8.6-8.8,8.6c-5.1,0-8.8-3.9-8.8-8.6c0-4.8,3.7-8.6,8.8-8.6 C131.9,64.4,135.6,68.2,135.6,73z M126.8,68.6c-2.5,0-4.3,2-4.3,4.4c0,2.4,1.9,4.4,4.3,4.4c2.5,0,4.4-2,4.4-4.4 C131.2,70.6,129.3,68.6,126.8,68.6z"></path> <path class="st1" d="M95.6,68.4c-0.1,0-1.8-0.5-3.3-0.5c-1.7,0-2.6,0.6-2.6,1.4c0,1,1.2,1.4,1.9,1.6l1.2,0.4c2.7,0.9,4,2.7,4,4.8 c0,4.2-3.7,5.6-6.9,5.6c-2.2,0-4.3-0.4-4.5-0.5v-3.8c0.4,0.1,2.1,0.6,4,0.6c2.1,0,3.1-0.6,3.1-1.6c0-0.8-0.8-1.3-1.9-1.7 c-0.3-0.1-0.6-0.2-0.9-0.3c-2.3-0.7-4.3-2.1-4.3-4.9c0-3.1,2.3-5.2,6.2-5.2c2,0,4,0.5,4.1,0.5V68.4z"></path> </g> </g> <path class="st1" d="M52.5,46.8c0-1.1-0.9-2.1-2.1-2.1c-1.1,0-2.1,0.9-2.1,2.1v4.4c0,1.2,0.9,2.1,2.1,2.1c1.1,0,2.1-0.9,2.1-2.1 V46.8z"></path> <path class="st1" d="M64,41c0-1.1-0.9-2.1-2.1-2.1s-2.1,0.9-2.1,2.1v10.1c0,1.2,0.9,2.1,2.1,2.1s2.1-0.9,2.1-2.1V41z"></path> <path class="st1" d="M75.4,33.2c0-1.1-0.9-2.1-2.1-2.1c-1.1,0-2.1,0.9-2.1,2.1v22.1c0,1.2,0.9,2.1,2.1,2.1c1.1,0,2.1-0.9,2.1-2.1 V33.2z"></path> <path class="st1" d="M86.9,41c0-1.1-0.9-2.1-2.1-2.1c-1.1,0-2.1,0.9-2.1,2.1v10.1c0,1.2,0.9,2.1,2.1,2.1c1.1,0,2.1-0.9,2.1-2.1V41z "></path> <path class="st1" d="M98.4,46.8c0-1.1-0.9-2.1-2.1-2.1c-1.1,0-2.1,0.9-2.1,2.1v4.4c0,1.2,0.9,2.1,2.1,2.1c1.1,0,2.1-0.9,2.1-2.1 V46.8z"></path> <path class="st1" d="M109.8,41c0-1.1-0.9-2.1-2.1-2.1c-1.1,0-2.1,0.9-2.1,2.1v10.1c0,1.2,0.9,2.1,2.1,2.1c1.1,0,2.1-0.9,2.1-2.1V41 z"></path> <path class="st1" d="M121.3,33.2c0-1.1-0.9-2.1-2.1-2.1c-1.1,0-2.1,0.9-2.1,2.1v22.1c0,1.2,0.9,2.1,2.1,2.1c1.1,0,2.1-0.9,2.1-2.1 V33.2z"></path> <path class="st1" d="M132.8,41c0-1.1-0.9-2.1-2.1-2.1c-1.1,0-2.1,0.9-2.1,2.1v10.1c0,1.2,0.9,2.1,2.1,2.1c1.2,0,2.1-0.9,2.1-2.1V41 z"></path> <path class="st1" d="M144.2,46.8c0-1.1-0.9-2.1-2.1-2.1c-1.1,0-2.1,0.9-2.1,2.1v4.4c0,1.2,0.9,2.1,2.1,2.1c1.1,0,2.1-0.9,2.1-2.1 V46.8z"></path> </g> </svg> 