<?xml version="1.0" encoding="UTF-8"?> <svg xmlns="http://www.w3.org/2000/svg" xmlns:xlink="http://www.w3.org/1999/xlink" version="1.1" id="Calque_1" x="0px" y="0px" viewBox="0 0 192.57 112.69" style="enable-background:new 0 0 192.57 112.69;" xml:space="preserve"> <style type="text/css"> .st0{fill:none;} .st1{fill:#0073E6;} </style> <rect x="0.12" y="-0.14" class="st0" width="192.34" height="112.56"></rect> <g> <g> <g> <g> <path class="st1" d="M141.18,53.16c-5.91-1.9-7.58-3.54-7.58-5.29c0-2.46,2.91-3.91,7.15-3.91c1.64,0,2.82,0.15,3.64,0.33 l-0.03,4.86l5.57,0.1l0.39-9.77c-2.63-0.63-6.68-1.38-10.06-1.38c-7.83,0-14,3.71-14,10.42c0,6.38,4.29,8.74,11.89,11.1 c5.87,1.83,6.48,3.23,6.48,5.02c0,2.06-2.88,3.6-6.57,3.6c-3.78,0-7.97-1.28-10.54-2.35c-0.7,1.49-2.19,4.01-3.18,5.45 c3.81,2.09,8.35,3.23,13.46,3.23c7.79,0,14.4-3.69,14.4-11C152.2,57.9,148.79,55.6,141.18,53.16"></path> <path class="st1" d="M64.2,38.37l-15.14,0l0,4.44l3.8,0l-9.47,26.73l-3.03,0l0,4.44l12.7,0l0-4.44l-2.98,0l1.73-4.87l13.76,0 l1.73,4.87l-2.79,0l0,4.44l13.59,0l0-4.44l-2.83,0L64.2,38.37z M53.76,59.12l4.93-13.91l4.94,13.91L53.76,59.12z"></path> <path class="st1" d="M115.92,44.44L115.92,44.44c-1.87-0.8-3.94-1.24-6.11-1.24c-0.56,0-1.1,0.03-1.65,0.08 c-1.9,2.59-3.02,5.79-3.02,9.25c0,6.5,3.96,12.08,9.6,14.46c-1.42,0.98-3.11,1.56-4.93,1.56c-5,0-9.06-4.33-9.06-9.66 c0-2.3,0.76-4.41,2.02-6.07c0-2.45,0.87-6.9,2.18-8.85C98.61,46.02,94.1,52.02,94.1,58.9c0,2.73,0.7,5.3,1.93,7.54 c-1.49,1.57-3.5,2.46-5.41,2.46c-2.59,0-4.46-2.03-4.46-5.07l0-13.96l8.09,0l0-5.56l-8.09,0l0-6l-7.27,0l0,6l-5.33,0l0,5.56 l5.33,0l0,14.67c0,7.54,5.26,10.02,10.36,10.02c4.27,0,7.76-2.01,9.69-4.34c2.82,2.71,6.65,4.38,10.88,4.38 c8.56,0,15.71-6.98,15.71-15.69C125.52,52.4,121.56,46.82,115.92,44.44 M118.44,61.85c-3.83-1.12-6.66-4.86-6.66-9.31 c0-1.03,0.15-2.02,0.44-2.95c3.83,1.13,6.65,4.86,6.65,9.31C118.88,59.93,118.72,60.92,118.44,61.85"></path> </g> </g> </g> </g> </svg> 