<?xml version="1.0" encoding="UTF-8"?> <svg xmlns="http://www.w3.org/2000/svg" id="Calque_1" data-name="Calque 1" viewBox="0 0 192.43 112.61"><defs><style>.cls-1{fill:none;}.cls-2{fill:#7a00e6;}</style></defs><rect class="cls-1" width="192.43" height="112.61"></rect><path d="M76.37,50a26.77,26.77,0,0,0-9.79-1.84c-7.51,0-12.78,5-12.78,12.93S58.38,74,66.48,74a24.78,24.78,0,0,0,9.89-2,1.91,1.91,0,0,0,1.25-2V52A1.84,1.84,0,0,0,76.37,50ZM71.15,66.24c0,.75-.4,1.09-1.24,1.34a11.77,11.77,0,0,1-3.38.45c-3.18,0-6.17-1.89-6.17-7s3-7,6.17-7a11.77,11.77,0,0,1,3.38.45c.84.25,1.24.59,1.24,1.34Z"></path><path d="M34.51,56.45c0-1.53,1.54-2.49,4.18-2.49a15.56,15.56,0,0,1,7.5,2.24,1.41,1.41,0,0,0,.75.2A1.28,1.28,0,0,0,48,55.7l1.55-3.28a2.06,2.06,0,0,0,.19-.85,1.14,1.14,0,0,0-.59-1,20.75,20.75,0,0,0-10.29-2.64c-6.67,0-10.94,3.58-10.94,9,0,10.54,16,6.46,16,13.78a5.5,5.5,0,0,1-.3,1.84.93.93,0,0,0,0,.29.67.67,0,0,0,.74.7h4.48c.75,0,1-.25,1.29-1a9.28,9.28,0,0,0,.4-2.84C50.52,58.39,34.51,61.1,34.51,56.45Z"></path><path d="M94.92,48.14a30,30,0,0,0-10,1.79,1.91,1.91,0,0,0-1.24,2V72.51a.94.94,0,0,0,1,1h4.47a.93.93,0,0,0,1-1V55.8c0-.75.4-1.09,1.2-1.29a14.08,14.08,0,0,1,3.68-.4c2.68,0,4.82,1.24,4.82,4.23V72.51a.94.94,0,0,0,1,1h4.48a.93.93,0,0,0,1-1v-15C106.3,51.43,102.57,48.14,94.92,48.14Z"></path><path d="M123.41,48.14c-7.46,0-12.33,5.42-12.33,12.93S116,74,123.75,74c7.46,0,12.33-5.42,12.33-12.93S131.21,48.14,123.41,48.14ZM123.75,68c-3.68,0-6.11-2.39-6.11-7s2.43-7,5.77-7c3.67,0,6.11,2.39,6.11,7S127.08,68,123.75,68Z"></path><rect x="158.31" y="48.64" width="6.46" height="24.86" rx="0.99"></rect><path d="M154.23,39.05a13,13,0,0,0-3.13-.35c-6.17,0-10.19,3.28-10.19,10.44V72.51a.93.93,0,0,0,1,1h4.43a.94.94,0,0,0,1-1V54.11h6.31a.92.92,0,0,0,1-1V49.68a.93.93,0,0,0-1-1h-6.31v-.55c0-2.73,1.19-4.12,3.93-4.12,1,0,2.06.25,2.43.25.6,0,.85-.35.95-.95l.5-2.58a3.8,3.8,0,0,0,.1-.65C155.23,39.49,154.93,39.19,154.23,39.05Z"></path><path class="cls-2" d="M31,67.14a3.17,3.17,0,0,0-3.38,3.43A3.24,3.24,0,0,0,31.11,74,3.43,3.43,0,1,0,31,67.14Z"></path><path class="cls-2" d="M161.46,38.71a3.17,3.17,0,0,0-3.38,3.43,3.24,3.24,0,0,0,3.53,3.43A3.19,3.19,0,0,0,165,42.14,3.21,3.21,0,0,0,161.46,38.71Z"></path></svg> 