<?xml version="1.0" encoding="UTF-8"?> <!-- Generator: Adobe Illustrator 24.0.1, SVG Export Plug-In . SVG Version: 6.00 Build 0) --> <svg xmlns="http://www.w3.org/2000/svg" xmlns:xlink="http://www.w3.org/1999/xlink" version="1.1" id="Calque_1" x="0px" y="0px" viewBox="0 0 192.57 112.69" style="enable-background:new 0 0 192.57 112.69;" xml:space="preserve"> <style type="text/css"> .st0{fill:none;} .st1{fill:#C01630;} </style> <g> <rect x="0.11" y="0.06" class="st0" width="192.34" height="112.56"></rect> <g> <path class="st1" d="M93.23,23.87c7.31,0.01,11.78,6.03,11.77,12.59c-0.01,6.39-3.62,11.54-8.59,15.24l0.24,0.44l11.59,0.02 l2.52-4.79l-1.22,0l-1.6,2.37l-5.94-0.01c4.11-2.92,7.56-7.5,7.57-13.13c0.02-9.01-8.09-14.25-16.32-14.27 c-8.22-0.01-16.35,5.2-16.37,14.21c-0.01,5.64,3.41,10.23,7.52,13.16l-5.95-0.01l-1.59-2.38l-1.22,0l2.51,4.79l11.58,0.02 l0.24-0.44c-4.96-3.71-8.55-8.88-8.54-15.27C81.43,29.86,85.93,23.86,93.23,23.87L93.23,23.87z M31.93,71.05 c-0.01,6.83,5.55,12.41,12.38,12.42c6.83,0.01,12.41-5.55,12.42-12.38s-5.55-12.41-12.38-12.42 C37.52,58.66,31.94,64.22,31.93,71.05L31.93,71.05z M61.29,82.99l4.51-14.4l6.46,15.1l6.52-15.07l4.46,14.41l3.74,0.01 l-7.67-24.47l-7.03,16.29l-6.97-16.32l-7.76,24.45L61.29,82.99z M53.16,71.09c-0.01,4.99-3.89,8.93-8.85,8.92 s-8.83-3.96-8.82-8.95c0.01-4.99,3.89-8.93,8.85-8.92S53.17,66.09,53.16,71.09L53.16,71.09z M136.51,83.13l2.49-4.89l12.64,0.02 l2.47,4.9l4.01,0.01l-12.76-25.16L132.5,83.12L136.51,83.13z M120.48,62.27c-4.96-0.01-8.84,3.93-8.85,8.92 c-0.01,4.99,3.86,8.94,8.82,8.95c4.04,0.01,7.55-2.67,8.54-6.34l-8.32-0.02l0.01-3.47l12.16,0.02c0.03,0.27,0.03,0.58,0.03,0.89 c-0.01,6.83-5.59,12.39-12.42,12.38c-6.83-0.01-12.39-5.6-12.38-12.42c0.01-6.83,5.59-12.39,12.42-12.38 c4.18,0.01,7.88,2.09,10.11,5.28l-2.86,2.03C126.18,63.81,123.53,62.28,120.48,62.27L120.48,62.27z M90.08,59.27l-0.04,23.78 l14.44,0.03l0.01-3.46l-10.87-0.02l0.01-6.73l10.53,0.02l0.01-3.47l-10.53-0.02l0.01-6.66l10.87,0.02l0.01-3.46L90.08,59.27z M145.34,65.85l4.54,8.94l-9.11-0.02L145.34,65.85z"></path> </g> </g> </svg> 