<?xml version="1.0" encoding="UTF-8"?> <!-- Generator: Adobe Illustrator 26.5.0, SVG Export Plug-In . SVG Version: 6.00 Build 0) --> <svg xmlns="http://www.w3.org/2000/svg" xmlns:xlink="http://www.w3.org/1999/xlink" version="1.1" id="Calque_1" x="0px" y="0px" viewBox="0 0 192.6 112.7" style="enable-background:new 0 0 192.6 112.7;" xml:space="preserve"> <style type="text/css"> .st0{fill:none;} .st1{fill:#E41E2A;} .st2{fill:#2D2A26;} .st3{fill:#00B451;} </style> <rect class="st0" width="192.6" height="112.7"></rect> <g> <path class="st1" d="M89.4,52.4c-2.5-1.7-5.4-2.5-8.2-2.4c-2.8,0.1-4,2.2-4,2.2c-1.2-2.2-3.7-3.5-7.5-3.5c-6.1,0-12.2,2.9-17,2.9 c-4.6,0-8-2.9-7.9-8.1c0.2-9,7.9-17.2,13.6-20.8c3.3-2.1,6-2.7,7.8-2.5c1.3,0.2,2.9,1.7,1.9,3.9c-1.5,3.3-3.5,3-3.4,1.4 c0-1,0.7-1.7,1.2-2c0.3-0.2,0.9-0.3,1.2-0.3c0.3-0.2,0.5-2-1.8-1.4c-2.4,0.6-5.2,2.9-7.9,5.9c-2.7,3-6.9,8.6-8,14.5 c-0.5,2.7-0.2,7.7,6.3,7.7c5.5,0,13.7-3.6,21.1-3.6c2.9,0,5.4,0.8,7.4,2C86.3,49.5,88.6,51.2,89.4,52.4 M91.2,36l1.1,0 c0,0-5.7,8.2-8.9,7.8c-1.8-0.2-1.3-2.4-1.3-2.4s-2.5,2.9-4.8,2.3c-2.1-0.5-0.7-4-0.7-4c-0.2,0.1-4.8,5.2-7.9,4 c-3.3-1.3-1.6-5.6-1-6.8c0.5-1.1,1.1-2.1,1.1-2.1s-0.5,0.1-0.8,0.2c-0.3,0.1-0.8,0.2-0.8,0.2s-1.6,2.6-2.5,3.8 c-1,1.3-5.1,5.7-7.5,4.8c-2.4-0.9-1.8-4.2-0.4-6.9c2.2-4.3,7.4-9.7,10.5-8.9c3.2,0.8,0.5,5.9,0.5,5.9s0.6,0.1,2.1-0.9 c2.2-1.5,5.1-5.5,8.2-5c1.4,0.2,2.8,1.7,0.9,4.5c-0.6,0.9-1.6,1.7-2.4,0.9c-0.5-0.5-0.1-1.4,0.4-2c0.7-0.9,1.7-0.8,1.7-0.8 s0.5-1.2-0.8-1.2c-1.1,0-3.7,2.5-5.2,5c-1.4,2.3-3.5,6.2-1.4,7c1.9,0.8,5.6-3.6,7.3-5.9c1.7-2.3,5.6-7.5,8.8-7.7 c1.1-0.1,1.8,0.9,1.8,0.9l0.4-0.6l3.2,0c0,0-6.1,10.2-6.6,11c-0.4,0.6-0.9,2,0.5,1.2C88.3,39.7,91.2,36,91.2,36 M66,34.9 c-0.1,0-0.9-0.3-1.7-0.8c-0.8-0.5-1.2-1.3-1.2-1.3c0-0.1-0.1,0-0.1,0c0,0-0.2,0.3-1.4,2c-1.2,1.7-2.9,5.2-1.3,5.8 c1,0.4,2.8-1.4,3.7-2.6c0.9-1.1,1.9-2.8,2-2.9C66.1,35,66,35,66,34.9 M67.3,29.5c-0.9-0.7-3,0.8-3,2.4c0,1.6,1.9,2,2.2,2.1 c0,0,0.2,0.1,0.3-0.1c0.1-0.1,0.3-0.6,0.6-1.4C67.7,31.6,68.1,30.1,67.3,29.5 M83.8,38c1.3-1.8,4.9-8.1,4.9-8.1s-0.1-0.4-0.5-0.5 c-0.5,0-1.3,0.1-3,2.2c-1.7,2.1-3,3.7-3.9,5.4c-1,1.9-1.5,3.2-0.9,3.6c0.2,0.1,0.4,0.1,0.6,0.1c0.4-0.1,0.9-0.5,1.6-1.3 C83,39.1,83.4,38.6,83.8,38 M98.4,28.3l-3.1,0l-1.8,2.8l3.1,0L98.4,28.3z M138.9,49.4c-0.3,0-0.6,0.1-0.8,0.3 c-0.2,0.2-0.3,0.5-0.3,0.8c0,0.3,0.1,0.6,0.3,0.8c0.2,0.2,0.5,0.3,0.8,0.3c0.3,0,0.6-0.1,0.8-0.3c0.2-0.2,0.3-0.5,0.3-0.8 c0-0.3-0.1-0.6-0.3-0.8C139.5,49.5,139.2,49.4,138.9,49.4 M140.2,50.5c0,0.4-0.1,0.7-0.4,0.9c-0.3,0.3-0.6,0.4-0.9,0.4 c-0.4,0-0.7-0.1-0.9-0.4c-0.2-0.2-0.4-0.6-0.4-0.9c0-0.3,0.1-0.7,0.4-0.9c0.2-0.3,0.6-0.4,0.9-0.4c0.4,0,0.7,0.1,0.9,0.4 C140.1,49.9,140.2,50.2,140.2,50.5 M139.2,50.2c0-0.1,0-0.2-0.1-0.2c-0.1,0-0.2-0.1-0.3-0.1l-0.2,0l0,0.5l0.2,0c0.1,0,0.2,0,0.2,0 C139.2,50.4,139.2,50.4,139.2,50.2 M138.4,49.8l0.5,0c0.2,0,0.3,0,0.4,0c0.1,0.1,0.2,0.2,0.2,0.4c0,0.1,0,0.2-0.1,0.3 c0,0-0.1,0.1-0.2,0.1c0.1,0,0.2,0.1,0.2,0.1c0,0.1,0.1,0.2,0.1,0.2l0,0.1c0,0,0,0.1,0,0.1c0,0,0,0.1,0,0.1l0,0l-0.2,0l0,0 c0,0,0,0,0,0l0,0l0-0.1c0-0.2,0-0.3-0.1-0.3c-0.1,0-0.1-0.1-0.3-0.1l-0.2,0l0,0.6l-0.2,0L138.4,49.8z M144,23.3 c-2.3,1.5-5.4,2.8-8.5,2.5c-0.8,0.8-1.6,1.7-2.4,2.7c5.3,1,9.9-2.2,12.3-5c1.5-1.7,2.3-3.3,2.3-3.3S146.3,21.9,144,23.3 M134.9,47.2c-0.4,0.7-0.9,2,0.5,1.2c1.8-1,4.3-4.8,4.3-4.8l1.1,0c0,0-1.5,2.4-3.4,4.5c-1.8,2-4,3.8-5.5,3.6 c-1.8-0.2-1.2-2.6-1.2-2.6s-2.6,2.7-4.3,2.5c-2.4-0.3-1.7-3.2-1.7-3.2s-2.7,3.3-4.5,3.2c-2.9-0.2-2.2-3.7-1.3-6.2 c0.4-1.3,0.8-2.4,0.8-2.4s-0.3,0.1-0.9,0.2c-0.3,0-0.9,0.1-0.9,0.1s-1.2,2.1-2.2,3.4c-1,1.3-5,5.6-7.4,4.8 c-2.2-0.8-1.5-4.2-0.2-6.9c1.9-3.9,7.2-9.6,10.3-8.9c3.2,0.8,0.1,6.6,0.1,6.6s0,0,0,0c0.1,0,0.2,0,0.6,0c0.6-0.1,1.2-0.3,1.2-0.3 s3.2-6.7,6.7-11c3.5-4.4,10.6-11.9,13.3-10.1c0.7,0.4,0.4,2-0.6,3.9c-0.4,0.1-0.8,0.2-1.2,0.3c0.6-1.1,1-2,1.1-2.7 c0.4-2.3-4.9,2.5-8.6,7.6c-3.8,5.1-6.1,9.8-6.1,9.8s0.8-0.4,1.9-1.4c1.2-1,2.9-2.5,4.8-4.5c1.2-1.3,2.7-2.9,4.1-4.7 c0.4,0,0.8-0.1,1.2-0.1c-1.5,2.1-3.1,3.9-4.5,5.3c-1.5,1.5-3.1,3.2-4.6,4.4c-2.2,1.9-4,3-4,3s-3.3,6.6-1.5,7.1c1,0.2,3.1-3,3.1-3 s2.7-4.1,4.4-6c2.2-2.5,4.2-4,6.1-4c1.1,0,1.8,1.2,1.8,1.2l0.5-0.8l3.3,0C141.5,36.2,135.4,46.5,134.9,47.2 M116.7,43.2 c-0.1,0-0.8-0.4-1.5-1c-0.7-0.6-1.1-1.3-1.1-1.4c0,0-0.1,0-0.1,0c0,0-0.2,0.2-1.3,1.9c-1.2,1.7-2.9,5.2-1.3,5.8 c1,0.4,2.8-1.4,3.7-2.6c0.9-1.1,1.7-2.5,1.7-2.6C116.8,43.2,116.7,43.2,116.7,43.2 M118.3,40.3c0.3-0.8,0.7-2.3-0.1-2.9 c-0.8-0.7-3,0.8-3,2.4c0,1.6,1.5,2.3,1.9,2.4c0.2,0.1,0.3,0.1,0.4-0.1C117.5,41.9,118,41.1,118.3,40.3 M137,38.1 c0.1-0.1,0.1-0.2,0.1-0.2s-0.1-0.4-0.5-0.5c-0.5,0-1.2,0.1-3,2.1c-1.8,2-2.9,3.7-3.8,5.4c-1,1.9-1.4,3.3-0.9,3.6 c0.2,0.1,0.4,0.1,0.6,0.1c0.4-0.1,0.9-0.5,1.5-1.3c0.3-0.4,0.7-0.9,1.1-1.5C133.4,44.3,136.4,39.2,137,38.1 M144,23.3 c-2.3,1.5-5.4,2.8-8.5,2.5c-0.8,0.8-1.6,1.7-2.4,2.7c5.3,1,9.9-2.2,12.3-5c1.5-1.7,2.3-3.3,2.3-3.3S146.3,21.9,144,23.3 M129.2,27.1c-2.5-1.3-4.3-2.8-6.2-3.8c-1.8-0.9-3-1.3-4.4-1.1c-0.2,0-0.6,0.1-0.6,0.1s0.8,2.6-2.3,6.9c-3,4.4-5.8,4.3-6.6,3.1 c-0.8-1.3,0.2-3.9,2-6.2c1.9-2.4,5.1-4.4,5.1-4.4s-1-0.6-3.6,0.8c-2.5,1.4-6.8,4.7-10.7,10.4c-4,5.6-4.8,8.7-5.3,11.2 c-0.6,2.4-0.1,5.1,2.6,5.1c2.7,0,5.9-4.1,6.8-5.6c1.6-2.7,2.7-6.8,0.5-6.2c-1.1,0.3-2,1.5-2.6,2.7c-0.6,1.2-0.8,2.4-0.8,2.4 s-0.9,0.3-2.2,1.3c-1.3,0.9-2.1,1.8-2.1,1.8s0-1.9,1.6-5.1c1.6-3.2,4.4-4.6,6-4.7c1.5-0.1,3.4,1.1,1.7,5.7 c-1.6,4.6-6.4,10.1-11.3,10.2c-4.6,0.1-7.6-5.8-1.2-16c7.1-11.3,15.4-14.8,18.1-15.2c2.7-0.4,3.6,0.8,3.6,0.8s2.3-1,5.1-0.8 c3.3,0.2,5.8,2.6,9.2,4.2C130.8,25.4,130,26.3,129.2,27.1 M116.9,22.7c0,0-1.9,0.8-4.2,3.2c-2.2,2.5-3.5,5.2-2.6,6 c0.4,0.3,1.2,0.3,2.8-1.1c1.2-1.1,2.4-2.5,3.3-4.6C117.2,23.8,116.9,22.7,116.9,22.7"></path> <g> <g> <g> <path class="st2" d="M138,70.5c0.5,0.1,1.5,0,2.8,0.1c2.7,0.2,2.7-1.7,2.6-2c-0.1-0.2-0.6-1.9-3-0.9c-0.5,0.2-1.8,1.6-3,1.6 c-0.9,0-3.5,0.5-3.4-2c0.1-2.5-0.7-3.5-1.4-3.7c-0.7-0.2-2.8-0.2-3.9,0.7c-1.1,0.9-1.2,2.7-1.2,2.7s0.5,1.1,0.2,1.7 c-0.8,1.7-3.5,0.6-4.7,0.2c-1.3-0.4-0.9-1.3-0.9-2c0.1-0.7-0.5-2-2.7-2.3c-2.1-0.3-2.8,0.8-2.8,0.8c-0.4,0.5-0.6,0.8-1,1.9 c-0.4,1.1-0.1,4.2,2.6,5.9c2,1.3,7.7,0.3,8.5-0.1c2-1,2.1,1.3,2.1,1.9c0,0.6-0.5,0.8-1.2,1c-0.7,0.2-6.5,0.8-7.7,1.3 c-0.9,0.3-1.3,0.6-1.3,0.6c-1.6-0.6-2.7,0.4-3.1,1.7c-1,3.5,1.7,2.9,2.4,2.8c0.6-0.1,7.3-2.2,9.2-2.6c1.9-0.4,2.2-0.4,2.7,0.4 c0.5,0.8,0.5,3.1,0.4,3.7c-0.1,0.6-0.2,1.6,1,1.7c-0.8,0.2-0.6,1.4-0.8,1.7c-0.2,0.2-0.8,1.4-1.1,1.8c-0.3,0.3-0.7,1.1,0.1,2 c0.8,0.9,2.2,1.9,3,0.9c0.8-1,1-1,0.6-3.2c-0.4-1.8-0.4-3-1.2-3.2c1.1-0.2,0.8-0.8,1-3.7c0.2-3.2,2.1-3.4,3.1-3.8 c1.1-0.4,3.6-0.7,5.3-1c1.7-0.3,1.4-1.9,0.7-2.4c-2-1.3-3.7-0.4-5.6,0.1c-1.9,0.4-2.6-0.6-2.6-0.6l0-1.3 C137.9,71.7,138,70.5,138,70.5z"></path> </g> <g> <g> <g> <path class="st3" d="M66.3,74.4c3,0.3,5.7-1,7.4-3.1c1.3-1.5,1.9-3.5,1.9-5.5v-0.3c0-1.8-1.5-3.3-3.3-3.3h-13 c-0.6,1.3-0.9,2.8-0.8,4.3C58.9,70.7,62.2,74,66.3,74.4z"></path> <path class="st3" d="M65.2,78.2c-5.6,0-10.3-4.5-10.6-10.1C54.5,65.9,55,64,56,62.2h-7.5c-1.8,0-3.3,1.5-3.3,3.3v17.4 c3.6-1.7,7.5-2.7,11.7-2.7c7.2,0,13.7,2.8,18.6,7.4v-17c0,0-0.1,0-0.1,0C74.2,75,70.1,78.2,65.2,78.2z"></path> </g> <path class="st3" d="M75,89.5c-4-3.5-9.3-5.5-15-5.5c-5.4,0-10.4,1.9-14.3,5c-0.3,0.2-0.5,0.5-0.4,1c0.3,1.5,1.6,2.7,3.2,2.7 h23.8c1.5,0,2.7-0.9,3.1-2.3C75.5,90,75.3,89.8,75,89.5z"></path> </g> </g> <g> <path class="st2" d="M111.2,70.9c-0.3-2.4-2.5-2.1-6-2c-2,0.1-3.2,0.2-4.1,0.2c-0.9-0.1-6-0.1-7-0.2c-1-0.1-1.4-0.9-0.3-0.8 c1.2,0.1,1.7-0.9,2.6-1.1c2.7-0.7,5.1,1.6,5.1,1.6h1.6c0,0,0.6-0.3,1.2-0.9c0.6-0.6,1.1-0.5,1.5-0.4c0.4,0.1,1.9,0.1,3.2,0 c1.3-0.1,1.4-0.7,1.4-1.1c-0.1-0.4-0.9-1-1.5-1c-0.7,0-2.5,0.2-3.8,0.2c-1.3,0.1-1.5-1.6-1.6-1.9c-0.1-0.3-0.9-0.9-1.7-1 c-2.1-0.2-1.9,1.8-1.9,2.1c0,0.3-1,0.8-1,0.8s-4.8,0.2-5.5,0.1c-0.7-0.1-0.3-1.5-0.4-1.9c-0.1-0.4-1.3-1.5-2.9-1.3 c-1.6,0.2-1.3,2-1.3,2.6c0,0.5-0.5,0.4-0.5,0.4h-1.5c-1.5-0.8-1.8-0.5-2.5-0.2c-0.8,0.3-1,1.4-0.3,2.9c0.7,1.4,2.8,0.2,3.1,0.1 c0.3-0.1,2.6,0,2.6,0.4c0,0.9-1.2,0.8-1.6,0.7c-0.5-0.1-2.3,0-3.1,0.1c-0.8,0.1-0.9,0.2-1.4,1.3c-0.5,1.1-0.6,7,2.1,6.9 c2.7-0.2,2.3-3,2.4-4.8c0.1-2.1,4.2-1.9,5.1-1.8c0.9,0.1,1.3,0.2,2.8,0.1c4-0.3,5.2-0.2,8.4-0.2c3.1,0,3.6,3.5,3.6,3.7 c0,0.2-0.1,1.6,0.3,2.6c0.4,0.9,0.2,0.8,0.5,1.9c0.3,1.1,1,1.2,1.9,0.4C111.8,78,111.5,73.3,111.2,70.9z"></path> <path class="st2" d="M93.4,73.4c0.4-0.2,7.3-0.2,7.8-0.2c0.5,0,1.1-0.1,1.4,0.1c0.3,0.2,0.5,0.4,0.5,0.4c2-0.8,0.9-2.1,0.5-2.3 c-0.3-0.2-1.4,0-1.7,0.1c-0.3,0.1-6.6-0.1-9.4-0.1c-2.2,0-2.8,1-2.8,1c-0.6,0.7,0,1,1,1.1C91.9,73.6,93,73.6,93.4,73.4z"></path> <path class="st2" d="M108.8,86.7c-0.1-0.1-0.3-0.4-0.8-0.3c0.2-0.2,0.3-0.6,0.3-0.8c0-0.3-0.2-2.2-0.7-3 c-0.4-0.8-3.8-5.3-4.5-5.7c-1.7-0.9-3.8,1.6-3.8,1.6c-0.2-0.6-1.5-1.5-1.6-1.6c-0.2-0.2,0.7-0.6,0.7-0.6 c0.3,0.1,4.2-0.4,4.8-0.2c1.7,0.6,1.6,0,2.1-0.9c0.5-0.9-0.4-1.4-1.2-1.4c-0.8,0.1-13.2,0-13.6-0.1c-0.4-0.1-1.5-0.1-1.8,0.6 c-1,2,1.4,2.4,1.4,2.4c0.3,0,0.2,0.1,1-0.3c0.9-0.3,0.7,0.4,0.1,0.6c-0.6,0.2-5.1,2-5.9,2.4c-0.7,0.3-0.8,0.9-0.4,1.3 c0.3,0.4,0.6,0.6,1.6,0.2c1-0.4,5.5-2.8,5.9-3c0.7-0.3,1.1,0.8-0.1,1.1c-1.5,0.4-7.5,3.3-7.7,3.6c-0.2,0.3-0.7,1.4,0.3,1.7 c1,0.3,5.2-2.5,5.8-2.9c0.5-0.4,2.4-1.5,3-1.8c0.6-0.2,1.1,0.3,0.4,0.6c-0.7,0.2-3.6,2.6-4.5,3.1c-0.8,0.5-1.3,0.2-2,0.7 c-0.7,0.5-0.3,1.6,0.6,1.6c2.5,0,6.3-3.5,7-4.2c0.7-0.7,1.3-0.3,1.6,0c0.4,0.3,0.2,0.9-0.4,1.1c-0.5,0.2-3.1,1.6-4.2,2.3 c-1.1,0.7-3.8,2.1-4.6,2.4c-0.8,0.3-1.5,1-1.5,1.8c0.2,3.1,3.6,0.4,4.1-0.1c0.4-0.4,5.2-3.1,6.7-3.6c1.5-0.5,2.6-1.5,3.3-2 c0.7-0.4,1.1-0.8,1-1.7c-0.2-1.8,1.3-0.9,1.3-0.9c1.5,1.4,1.5,3.4,3.2,4.8c0.6,0.5,1,0.7,1.4,0.7c-0.8,0.5-0.2,1.6-0.2,1.6 c0.1,0.3,1,2.1,2.7,1.2C111.6,88.5,109,86.9,108.8,86.7z"></path> </g> </g> </g> </g> </svg> 