<?xml version="1.0" encoding="UTF-8"?> <svg xmlns="http://www.w3.org/2000/svg" xmlns:xlink="http://www.w3.org/1999/xlink" version="1.1" id="Calque_1" x="0px" y="0px" viewBox="0 0 192.57 112.69" style="enable-background:new 0 0 192.57 112.69;" xml:space="preserve"> <style type="text/css"> .st0{fill:none;} .st1{fill:#25303B;} .st2{fill:#64B5E5;} .st3{fill:#FFFFFF;} </style> <rect x="0" y="0" class="st0" width="192.43" height="112.61"></rect> <g> <path class="st1" d="M89.29,63.66v0.9h0.03c0.43-0.69,1.2-1.09,1.99-1.04c0.37,0,0.72,0.08,1.04,0.24c0.32,0.16,0.56,0.45,0.66,0.8 c0.19-0.32,0.48-0.59,0.82-0.77c0.35-0.19,0.72-0.27,1.12-0.27c0.29,0,0.56,0.03,0.82,0.11c0.24,0.05,0.45,0.16,0.64,0.32 s0.32,0.35,0.43,0.56c0.11,0.27,0.16,0.53,0.16,0.82v4.52h-1.01v-4.07c0-0.19-0.03-0.35-0.05-0.53c-0.03-0.16-0.08-0.29-0.19-0.43 c-0.08-0.13-0.21-0.24-0.37-0.29c-0.19-0.08-0.4-0.11-0.61-0.11c-0.43-0.03-0.85,0.13-1.17,0.43c-0.29,0.32-0.45,0.72-0.43,1.14 v3.83h-1.04v-4.04c0-0.19-0.03-0.37-0.05-0.56c-0.03-0.16-0.11-0.29-0.19-0.43c-0.08-0.13-0.21-0.21-0.35-0.29 c-0.19-0.08-0.37-0.11-0.56-0.11c-0.27,0-0.53,0.05-0.74,0.19c-0.19,0.11-0.37,0.27-0.51,0.43s-0.21,0.32-0.29,0.51 c-0.05,0.13-0.08,0.29-0.08,0.45v3.86h-1.01v-6.17H89.29z"></path> <path class="st1" d="M98.23,65.47c0.11-0.37,0.32-0.72,0.56-1.04c0.27-0.29,0.59-0.53,0.96-0.69c0.82-0.35,1.76-0.35,2.58,0 c0.35,0.16,0.66,0.4,0.93,0.69s0.45,0.64,0.56,1.04c0.13,0.4,0.19,0.85,0.19,1.28s-0.05,0.85-0.19,1.28 c-0.13,0.37-0.32,0.72-0.56,1.01c-0.27,0.29-0.59,0.53-0.93,0.69c-0.82,0.32-1.76,0.32-2.58,0c-0.37-0.16-0.69-0.37-0.93-0.69 c-0.27-0.29-0.45-0.64-0.56-1.01c-0.13-0.4-0.19-0.82-0.19-1.28C98.04,66.32,98.09,65.89,98.23,65.47z M99.26,67.73 c0.08,0.27,0.21,0.51,0.4,0.72c0.16,0.19,0.37,0.35,0.61,0.45c0.48,0.21,1.01,0.21,1.49,0c0.24-0.11,0.45-0.27,0.61-0.45 c0.19-0.21,0.32-0.45,0.4-0.72c0.19-0.64,0.19-1.33,0-1.99c-0.08-0.27-0.24-0.51-0.4-0.74c-0.16-0.19-0.37-0.35-0.61-0.45 c-0.48-0.21-1.01-0.21-1.49,0c-0.24,0.11-0.45,0.27-0.61,0.45c-0.19,0.21-0.32,0.45-0.4,0.74C99.08,66.4,99.08,67.09,99.26,67.73z"></path> <path class="st1" d="M106.15,61.32v3.19h0.03c0.16-0.35,0.45-0.61,0.8-0.74c0.37-0.16,0.77-0.24,1.17-0.24 c0.43,0,0.85,0.08,1.25,0.27c0.35,0.16,0.64,0.4,0.88,0.72s0.43,0.66,0.53,1.04c0.13,0.4,0.19,0.82,0.19,1.25 c0,0.43-0.05,0.82-0.16,1.25c-0.11,0.37-0.29,0.72-0.53,1.01c-0.24,0.29-0.53,0.53-0.88,0.69c-0.4,0.19-0.8,0.27-1.22,0.24 c-0.16,0-0.35-0.03-0.51-0.05c-0.19-0.03-0.37-0.08-0.56-0.16c-0.19-0.08-0.37-0.16-0.53-0.29s-0.29-0.29-0.4-0.45h-0.03v0.82 h-1.01v-8.54H106.15z M109.8,65.84c-0.08-0.27-0.19-0.51-0.35-0.74c-0.16-0.21-0.37-0.4-0.59-0.51c-0.27-0.13-0.56-0.19-0.85-0.19 c-0.59-0.03-1.12,0.24-1.46,0.74c-0.16,0.21-0.27,0.48-0.32,0.74c-0.13,0.56-0.13,1.17,0,1.73c0.05,0.27,0.19,0.53,0.35,0.74 c0.16,0.21,0.37,0.4,0.61,0.53c0.27,0.13,0.59,0.21,0.9,0.19c0.29,0,0.61-0.05,0.88-0.21c0.24-0.13,0.43-0.32,0.56-0.53 c0.16-0.24,0.24-0.51,0.32-0.77c0.05-0.29,0.11-0.59,0.11-0.88C109.9,66.43,109.85,66.13,109.8,65.84L109.8,65.84z"></path> <path class="st1" d="M112.11,62.54v-1.22h1.01v1.25h-1.01V62.54z M113.12,63.66v6.17h-1.01v-6.17H113.12z"></path> <path class="st1" d="M115.65,61.32v8.51h-1.01v-8.51H115.65z"></path> <path class="st1" d="M117.16,62.54v-1.22h1.01v1.25h-1.01V62.54z M118.17,63.66v6.17h-1.01v-6.17H118.17z"></path> <path class="st1" d="M122.24,63.66v0.9h-1.22v3.8c0,0.11,0,0.19,0.03,0.29c0.03,0.08,0.05,0.13,0.11,0.16 c0.08,0.05,0.16,0.08,0.24,0.08c0.13,0.03,0.27,0.03,0.4,0.03h0.48v0.9h-0.77c-0.21,0-0.45-0.03-0.66-0.05 c-0.16-0.03-0.32-0.11-0.45-0.19c-0.13-0.11-0.21-0.24-0.27-0.4c-0.05-0.21-0.08-0.45-0.08-0.69v-3.94h-1.06v-0.9h1.06V61.8h1.01 v1.86H122.24z"></path> <path class="st1" d="M127.62,69.43c-0.51,0.37-1.12,0.56-1.73,0.53c-0.45,0-0.88-0.08-1.28-0.24c-0.35-0.16-0.66-0.37-0.9-0.66 c-0.24-0.29-0.45-0.64-0.56-1.04c-0.13-0.43-0.19-0.85-0.21-1.3c0-0.43,0.08-0.88,0.21-1.28c0.13-0.37,0.35-0.72,0.61-1.01 s0.56-0.51,0.93-0.66c0.37-0.16,0.77-0.24,1.17-0.24c0.48-0.03,0.96,0.08,1.36,0.32c0.35,0.21,0.64,0.51,0.88,0.85 c0.21,0.35,0.37,0.74,0.45,1.14c0.08,0.4,0.11,0.77,0.11,1.17h-4.6c0,0.27,0.03,0.53,0.11,0.77s0.19,0.45,0.35,0.64 c0.16,0.19,0.37,0.35,0.61,0.45c0.27,0.11,0.56,0.19,0.88,0.16c0.37,0.03,0.74-0.08,1.06-0.29c0.29-0.21,0.48-0.56,0.53-0.9h1.01 C128.41,68.47,128.1,69.03,127.62,69.43z M127.38,65.47c-0.16-0.43-0.51-0.74-0.93-0.93c-0.21-0.11-0.45-0.13-0.69-0.13 s-0.48,0.05-0.72,0.13c-0.21,0.08-0.37,0.21-0.53,0.37c-0.16,0.16-0.27,0.35-0.37,0.56c-0.08,0.21-0.13,0.45-0.16,0.66h3.54 C127.51,65.92,127.46,65.68,127.38,65.47L127.38,65.47z M126.13,60.65l-1.14,1.94h0.77l1.68-1.94H126.13z"></path> <path class="st1" d="M130.3,68.45c0.08,0.16,0.21,0.27,0.37,0.37c0.16,0.11,0.35,0.16,0.53,0.19c0.19,0.05,0.4,0.05,0.61,0.05 c0.16,0,0.35-0.03,0.51-0.03c0.16-0.03,0.32-0.05,0.48-0.13c0.13-0.05,0.27-0.16,0.37-0.27c0.11-0.13,0.16-0.29,0.13-0.48 c0-0.24-0.11-0.45-0.29-0.59c-0.24-0.16-0.48-0.27-0.74-0.32c-0.29-0.08-0.61-0.16-0.96-0.24c-0.32-0.05-0.66-0.16-0.96-0.29 c-0.29-0.11-0.53-0.29-0.74-0.51c-0.21-0.27-0.32-0.59-0.29-0.93c0-0.29,0.05-0.56,0.21-0.8c0.13-0.21,0.32-0.4,0.53-0.53 c0.24-0.13,0.48-0.24,0.74-0.32c0.27-0.05,0.53-0.11,0.82-0.11c0.32,0,0.64,0.03,0.96,0.08c0.27,0.05,0.53,0.16,0.77,0.32 c0.21,0.16,0.4,0.35,0.53,0.59c0.16,0.29,0.24,0.61,0.24,0.93h-1.04c0-0.19-0.05-0.35-0.16-0.51c-0.08-0.13-0.21-0.24-0.32-0.32 c-0.13-0.08-0.29-0.13-0.45-0.16c-0.16-0.03-0.32-0.05-0.51-0.05c-0.16,0-0.32,0-0.45,0.03c-0.16,0.03-0.29,0.05-0.43,0.13 c-0.13,0.05-0.24,0.13-0.32,0.24c-0.08,0.11-0.13,0.24-0.13,0.4s0.05,0.32,0.19,0.43c0.13,0.13,0.29,0.21,0.48,0.29 c0.21,0.08,0.43,0.13,0.64,0.19l0.72,0.16c0.24,0.05,0.51,0.13,0.74,0.21s0.45,0.19,0.64,0.32c0.19,0.13,0.35,0.29,0.45,0.51 c0.13,0.24,0.19,0.48,0.16,0.74c0,0.32-0.08,0.64-0.24,0.93c-0.16,0.24-0.37,0.45-0.61,0.59c-0.27,0.16-0.56,0.27-0.85,0.32 c-0.32,0.05-0.61,0.08-0.93,0.08s-0.66-0.03-0.98-0.11c-0.29-0.05-0.59-0.19-0.82-0.35c-0.24-0.16-0.43-0.37-0.56-0.64 c-0.16-0.29-0.24-0.64-0.24-0.96h1.01C130.17,68.1,130.22,68.29,130.3,68.45z"></path> <path class="st2" d="M29.66,45.84h-2.69l2.34-3.14h3.19l2.34,3.14h-2.66l-1.25-1.68L29.66,45.84z M29.13,47.01h3.56v10.9h-3.56 V47.01z"></path> <rect x="34.45" y="42.91" class="st2" width="3.56" height="15"></rect> <path class="st2" d="M42.53,53.34c0.05,1.49,0.93,2.47,2.45,2.47c0.85,0,1.7-0.4,2.05-1.2h3.35c-0.64,2.53-2.98,3.62-5.43,3.62 c-3.56,0-5.96-2.15-5.96-5.8c-0.03-3.35,2.63-5.75,5.85-5.75c3.91,0,5.85,2.95,5.69,6.65H42.53 M46.97,51.34 c-0.05-1.22-0.93-2.23-2.13-2.23c-1.25,0-2.1,0.9-2.31,2.23H46.97z"></path> <path class="st2" d="M59.23,57.91h-1.41v-1.17H57.8c-0.45,0.96-1.57,1.36-2.74,1.36c-2.63,0-3.94-2.1-3.94-4.49 c0-2.39,1.3-4.47,3.91-4.47c0.88,0,2.13,0.32,2.77,1.33h0.03v-4.39h1.41L59.23,57.91 M55.25,56.88c1.89,0,2.61-1.62,2.61-3.22 c0-1.7-0.77-3.24-2.69-3.24c-1.92,0-2.58,1.65-2.58,3.32C52.59,55.31,53.41,56.88,55.25,56.88"></path> <path class="st2" d="M67.88,55.2c-0.37,1.89-1.73,2.93-3.67,2.93c-2.74,0-4.02-1.89-4.12-4.49c0-2.58,1.7-4.47,4.04-4.47 c3.03,0,3.96,2.85,3.88,4.92H61.6c-0.05,1.49,0.8,2.82,2.66,2.82c1.17,0,1.97-0.56,2.21-1.68L67.88,55.2 M66.52,52.81 c-0.03-1.36-1.12-2.42-2.47-2.42c-1.46,0-2.34,1.12-2.45,2.42H66.52z"></path> <polygon class="st2" points="68.92,42.91 79.98,42.91 79.98,46.05 72.83,46.05 72.83,49.11 79.02,49.11 79.02,52.14 72.83,52.14 72.83,57.91 68.92,57.91 "></polygon> <path class="st2" d="M80.7,47.01h3.46v1.92h0.03c0.53-1.38,1.76-2.13,3.3-2.13c0.29,0,0.56,0.03,0.85,0.08v3.24 c-0.45-0.13-0.9-0.21-1.36-0.21c-1.76,0-2.69,1.22-2.69,2.58v5.4H80.7V47.01z"></path> <path class="st2" d="M88.33,50.36c0-1.2,0.64-2.31,1.7-2.93c0.96-0.53,2.23-0.74,3.46-0.74c2.58,0,5.08,0.56,5.08,3.67v4.76 c0,0.93,0,1.94,0.43,2.79h-3.59c-0.11-0.35-0.19-0.69-0.21-1.04c-0.93,0.96-2.29,1.33-3.59,1.33c-2.07,0-3.72-1.04-3.72-3.3 c0-3.56,3.86-3.27,6.36-3.78c0.61-0.13,0.96-0.35,0.96-1.01c0-0.82-0.98-1.14-1.73-1.14c-0.98,0-1.62,0.45-1.78,1.36L88.33,50.36 M92.96,56c1.7,0,2.26-0.96,2.18-3.22c-0.51,0.32-1.44,0.37-2.21,0.59c-0.77,0.21-1.46,0.53-1.46,1.38S92.14,56,92.96,56"></path> <path class="st2" d="M99.88,47.01h3.46v1.49h0.05c0.64-1.12,2.13-1.81,3.43-1.81c3.64,0,3.94,2.66,3.94,4.23v7h-3.56v-5.27 c0-1.49,0.16-3.01-1.78-3.01c-1.33,0-1.94,1.14-1.94,2.34v5.96H99.9V47.01H99.88z"></path> <path class="st2" d="M119.19,51c-0.05-0.9-0.82-1.62-1.76-1.57c-1.99,0-2.31,1.7-2.31,3.22c0,1.41,0.61,2.85,2.13,2.85 c1.22,0,1.86-0.72,2.05-1.86h3.46c-0.32,2.93-2.58,4.6-5.48,4.6c-3.27,0-5.72-2.23-5.72-5.59c0-3.46,2.21-5.96,5.72-5.96 c2.71,0,5.13,1.44,5.37,4.31H119.19z"></path> <path class="st2" d="M126.55,53.34c0.05,1.49,0.93,2.47,2.45,2.47c0.85,0,1.7-0.4,2.02-1.2h3.35c-0.66,2.53-2.98,3.62-5.43,3.62 c-3.54,0-5.96-2.15-5.96-5.8c0-3.35,2.66-5.75,5.88-5.75c3.91,0,5.88,2.95,5.69,6.65H126.55 M130.99,51.34 c-0.05-1.22-0.93-2.23-2.13-2.23c-1.25,0-2.1,0.9-2.31,2.23H130.99z"></path> <path class="st2" d="M144.83,42.91h14.66c3.38,0,6.12,2.74,6.12,6.12v14.66c0,3.38-2.74,6.12-6.12,6.12h-14.66 c-3.38,0-6.12-2.74-6.12-6.12V49.03C138.68,45.65,141.42,42.91,144.83,42.91z"></path> <path class="st3" d="M153.79,49.8c-0.64,1.38-2.05,2.1-3.11,1.6c-1.06-0.51-1.44-2.02-0.8-3.4c0.64-1.38,2.05-2.07,3.11-1.6 C154.05,46.88,154.43,48.42,153.79,49.8"></path> <path class="st3" d="M155.57,58.95c-2.31-3.22-5.13-1.57-7.05,1.01c-1.52,2.02-2.79,3.8-4.36,5.96c-0.37,0.51-0.08,0.69,0.43,0.37 c0.59-0.37,1.09-0.85,1.49-1.41c0.66-0.9,2.29-3.11,3.3-4.49c0.9-1.25,2.29-1.12,3.22,0.16c1.09,1.52,2.45,3.4,3.62,5.03 c0.82,1.12,3.32,0.96,4.42,0.88c0.19-0.03,0.27-0.16,0.16-0.29C160.09,65.23,157.72,61.96,155.57,58.95z"></path> <path class="st3" d="M158.66,51.1c-3.24,1.65-4.26,1.49-7,1.89s-4.79,1.04-7.07,3.46c-0.56,0.61-0.82,1.14,0.08,0.69 c3.24-1.65,4.26-1.49,7-1.89c2.74-0.4,4.79-1.04,7.07-3.46C159.29,51.18,159.56,50.65,158.66,51.1z"></path> </g> </svg> 