<?xml version="1.0" encoding="UTF-8"?> <svg xmlns="http://www.w3.org/2000/svg" xmlns:xlink="http://www.w3.org/1999/xlink" version="1.1" id="Calque_1" x="0px" y="0px" viewBox="0 0 192.57 112.69" style="enable-background:new 0 0 192.57 112.69;" xml:space="preserve"> <style type="text/css"> .st0{fill:none;} .st1{fill:#F01E1E;} .st2{fill:#FFFFFF;} </style> <g> <rect x="0" y="0" class="st0" width="192.43" height="112.61"></rect> </g> <g> <rect x="44.59" y="4.65" class="st0" width="103.39" height="103.39"></rect> <rect x="59.36" y="19.42" class="st0" width="73.85" height="73.85"></rect> <g> <rect x="66.74" y="26.81" class="st1" width="59.08" height="59.08"></rect> <g> <g> <g> <path class="st2" d="M74.27,58.77c-1.32,0-1.91,1.09-1.91,2.44c0,1.19,0.52,2.38,1.91,2.38c0.95,0,1.48-0.63,1.6-1.59h1.5 c-0.17,1.91-1.47,2.9-3.1,2.9c-2.17,0-3.46-1.62-3.46-3.69c0-2.18,1.35-3.76,3.46-3.76c1.62,0,2.86,0.98,3.04,2.56 c0,0-1.5,0-1.5,0C75.71,59.3,75.03,58.77,74.27,58.77z"></path> <path class="st2" d="M82.66,63.59v-2.68c0-1.34-1.45-1.46-2.24-1.46c-1.08,0-2.32,0.37-2.4,1.72c0,0,1.4,0,1.4,0 c0.06-0.59,0.41-0.78,0.93-0.78c0.49,0,0.91,0.1,0.91,0.7c0.02,0.34-0.24,0.52-1.05,0.6c-0.2,0.02-0.41,0.05-0.62,0.08 c-0.82,0.13-1.73,0.37-1.73,1.56c0,1,0.69,1.53,1.74,1.53c0.54,0,1.26-0.13,1.72-0.63c0,0.12,0.05,0.38,0.1,0.5 c0,0,1.42,0,1.42,0C82.69,64.49,82.66,63.96,82.66,63.59z M81.26,62.74c0,0.89-0.49,1.19-1.13,1.19 c-0.44,0-0.86-0.13-0.86-0.66c0-0.36,0.17-0.64,0.83-0.76c0.11-0.02,0.22-0.04,0.34-0.05c0.27-0.03,0.69-0.11,0.83-0.25 C81.26,62.21,81.26,62.74,81.26,62.74z"></path> <path class="st2" d="M83.65,58.79v-1.17h1.4v1.17H83.65z M85.06,59.58v5.15h-1.4v-5.15H85.06z"></path> <path class="st2" d="M88.16,63.93c0.37,0,0.92-0.15,0.92-0.66c0-0.12-0.04-0.22-0.13-0.31c-0.5-0.48-2.1-0.39-2.77-1.07 c-0.19-0.19-0.31-0.45-0.31-0.8c0-1.07,0.76-1.65,2.22-1.65c0.96,0,2.14,0.29,2.25,1.64h-1.33c-0.02-0.54-0.45-0.7-0.96-0.7 c-0.35,0-0.78,0.07-0.78,0.48c0,0.34,0.35,0.5,1.01,0.64c0.19,0.04,0.38,0.08,0.58,0.13c0.8,0.18,1.62,0.48,1.62,1.44 c0,1.05-0.75,1.78-2.33,1.78c-1.28,0-2.35-0.5-2.4-1.8h1.33C87.08,63.63,87.56,63.93,88.16,63.93z"></path> <path class="st2" d="M84.43,73.59c0.37,0,0.92-0.15,0.92-0.66c0-0.12-0.04-0.22-0.13-0.31c-0.5-0.48-2.1-0.39-2.77-1.07 c-0.19-0.19-0.31-0.45-0.31-0.8c0-1.07,0.76-1.65,2.22-1.65c0.96,0,2.14,0.29,2.25,1.64h-1.33c-0.02-0.54-0.45-0.7-0.96-0.7 c-0.35,0-0.78,0.07-0.78,0.48c0,0.34,0.35,0.5,1.01,0.64c0.19,0.04,0.38,0.08,0.58,0.13c0.8,0.18,1.62,0.48,1.62,1.44 c0,1.05-0.75,1.78-2.33,1.78c-1.28,0-2.35-0.5-2.4-1.8h1.33C83.35,73.3,83.83,73.59,84.43,73.59z"></path> <path class="st2" d="M119.06,73.59c0.37,0,0.92-0.15,0.92-0.66c0-0.12-0.04-0.22-0.13-0.31c-0.5-0.48-2.1-0.39-2.77-1.07 c-0.19-0.19-0.31-0.45-0.31-0.8c0-1.07,0.76-1.65,2.22-1.65c0.96,0,2.14,0.29,2.25,1.64h-1.33c-0.02-0.54-0.45-0.7-0.96-0.7 c-0.35,0-0.78,0.07-0.78,0.48c0,0.34,0.35,0.5,1.01,0.64c0.19,0.04,0.38,0.08,0.58,0.13c0.8,0.18,1.62,0.48,1.62,1.44 c0,1.05-0.75,1.78-2.33,1.78c-1.28,0-2.35-0.5-2.4-1.8h1.33C117.99,73.3,118.47,73.59,119.06,73.59z"></path> <path class="st2" d="M93.39,63.93c0.37,0,0.92-0.15,0.92-0.66c0-0.12-0.04-0.22-0.13-0.31c-0.5-0.48-2.1-0.39-2.77-1.07 c-0.19-0.19-0.31-0.45-0.31-0.8c0-1.07,0.76-1.65,2.22-1.65c0.96,0,2.14,0.29,2.25,1.64h-1.33c-0.02-0.54-0.45-0.7-0.96-0.7 c-0.35,0-0.78,0.07-0.78,0.48c0,0.34,0.35,0.5,1.01,0.64c0.19,0.04,0.38,0.08,0.58,0.13c0.8,0.18,1.62,0.48,1.62,1.44 c0,1.05-0.75,1.78-2.33,1.78c-1.28,0-2.35-0.5-2.4-1.8h1.33C92.31,63.63,92.79,63.93,93.39,63.93z"></path> <path class="st2" d="M98.87,63.81c0.56,0,1.01-0.35,1.1-0.67h1.23c-0.44,1.37-1.39,1.72-2.39,1.72c-1.69,0-2.6-1.19-2.6-2.7 c0-1.57,1.08-2.72,2.6-2.72c1.84,0,2.57,1.61,2.48,3.06h-3.68C97.65,63.45,98.11,63.81,98.87,63.81z M98.78,60.51 c-0.74,0-1.12,0.49-1.16,1.1h2.28C99.76,60.88,99.45,60.51,98.78,60.51z"></path> <path class="st2" d="M79.15,73.47c0.56,0,1.01-0.35,1.1-0.67h1.23c-0.44,1.37-1.39,1.72-2.39,1.72c-1.69,0-2.6-1.19-2.6-2.7 c0-1.57,1.08-2.72,2.6-2.72c1.84,0,2.57,1.61,2.48,3.06h-3.68C77.93,73.11,78.38,73.47,79.15,73.47z M79.06,70.17 c-0.74,0-1.12,0.49-1.16,1.1h2.28C80.04,70.54,79.73,70.17,79.06,70.17z"></path> <path class="st2" d="M74.59,73.74c-0.33,0.56-0.88,0.79-1.55,0.79c-1.56,0-2.29-1.33-2.29-2.75c0-1.5,0.85-2.67,2.26-2.67 c0.6,0,1.19,0.26,1.51,0.77h0.02v-2.59h1.4v7.11h-1.33v-0.66H74.59z M73.39,70.17c-0.87,0-1.23,0.72-1.23,1.64 c0,0.78,0.34,1.65,1.23,1.65c0.92,0,1.2-0.82,1.2-1.66C74.59,70.97,74.29,70.17,73.39,70.17z"></path> <path class="st2" d="M92.5,67.28c1.78,0,3.2,1.12,3.2,3.52c0,2.13-1.11,3.6-3.2,3.6h-3.04v-7.11H92.5z M92.4,73.08 c1.06,0,1.76-0.73,1.76-2.13c0-1.31-0.41-2.35-2.03-2.35h-1.1v4.48H92.4z"></path> <g> <path class="st2" d="M98.87,73.47c0.56,0,1.01-0.35,1.1-0.67h1.23c-0.44,1.37-1.39,1.72-2.39,1.72c-1.69,0-2.6-1.19-2.6-2.7 c0-1.57,1.08-2.72,2.6-2.72c1.84,0,2.57,1.61,2.48,3.06h-3.68C97.66,73.11,98.11,73.47,98.87,73.47z M98.78,70.17 c-0.74,0-1.12,0.49-1.16,1.1h2.28C99.76,70.54,99.46,70.17,98.78,70.17z"></path> <path class="st2" d="M99.07,66.58l-1.05,1.76H99l1.61-1.76H99.07z"></path> </g> <path class="st2" d="M103.2,69.25v0.66h0.02c0.35-0.57,0.91-0.8,1.52-0.8c1.66,0,2.32,1.4,2.32,2.77c0,1.4-0.76,2.65-2.24,2.65 c-0.66,0-1.2-0.28-1.53-0.77h-0.02v2.44h-1.4v-6.96H103.2z M105.66,71.84c0-0.94-0.41-1.66-1.22-1.66 c-0.78,0-1.21,0.63-1.21,1.66c0,0.9,0.35,1.63,1.22,1.63C105.31,73.47,105.66,72.76,105.66,71.84z"></path> <path class="st2" d="M110.24,69.11c1.63,0,2.64,1.09,2.64,2.72c0,1.56-0.95,2.7-2.64,2.7c-1.5,0-2.63-0.96-2.63-2.7 C107.6,70.16,108.66,69.11,110.24,69.11z M110.89,67.19l1.09,1.42h-1.15l-0.61-0.81l-0.63,0.81h-1.06l1.09-1.42H110.89z M110.24,73.47c0.94,0,1.24-0.79,1.24-1.64c0-0.78-0.26-1.65-1.24-1.65c-0.87,0-1.23,0.72-1.23,1.65 C109,72.73,109.34,73.47,110.24,73.47z"></path> <path class="st2" d="M116.33,69.25v0.95h-1.03v2.55c0,0.48,0.12,0.6,0.59,0.6c0.15,0,0.31-0.01,0.43-0.04v1.1 c-0.25,0.04-0.59,0.05-0.82,0.05c-0.93,0-1.61-0.22-1.61-1.22v-3.04h-0.85v-0.95h0.85V67.7h1.4v1.54H116.33z"></path> </g> </g> <g> <path class="st2" d="M70.95,79.69v-0.01c0-1.05,0.8-1.95,1.92-1.95c0.65,0,1.05,0.18,1.43,0.51l-0.41,0.5 c-0.29-0.25-0.57-0.4-1.04-0.4c-0.69,0-1.21,0.61-1.21,1.33v0.01c0,0.77,0.51,1.34,1.27,1.34c0.35,0,0.67-0.11,0.9-0.29v-0.7 h-0.95v-0.58h1.59v1.58c-0.37,0.32-0.89,0.59-1.55,0.59C71.71,81.62,70.95,80.78,70.95,79.69z"></path> <path class="st2" d="M76.23,77.79h1.66c0.47,0,0.84,0.14,1.07,0.38c0.2,0.2,0.31,0.48,0.31,0.81v0.01 c0,0.62-0.37,0.99-0.89,1.14l1.01,1.43h-0.77l-0.92-1.31h-0.01h-0.81v1.31h-0.65V77.79z M77.84,79.66 c0.47,0,0.77-0.25,0.77-0.63v-0.01c0-0.4-0.29-0.62-0.77-0.62h-0.95v1.26H77.84z"></path> <path class="st2" d="M80.59,79.69v-0.01c0-1.06,0.81-1.95,1.95-1.95s1.94,0.88,1.94,1.94v0.01c0,1.06-0.81,1.95-1.95,1.95 C81.39,81.62,80.59,80.75,80.59,79.69z M83.8,79.69v-0.01c0-0.73-0.53-1.34-1.27-1.34c-0.74,0-1.26,0.6-1.26,1.33v0.01 c0,0.73,0.53,1.34,1.27,1.34C83.28,81.01,83.8,80.42,83.8,79.69z"></path> <path class="st2" d="M85.89,79.96v-2.17h0.65v2.14c0,0.7,0.36,1.08,0.94,1.08c0.58,0,0.94-0.35,0.94-1.05v-2.17h0.65v2.13 c0,1.12-0.63,1.69-1.6,1.69C86.51,81.62,85.89,81.05,85.89,79.96z"></path> <path class="st2" d="M90.67,77.79h1.47c0.87,0,1.42,0.5,1.42,1.26v0.01c0,0.84-0.67,1.29-1.49,1.29h-0.74v1.21h-0.65V77.79z M92.09,79.75c0.49,0,0.8-0.28,0.8-0.67v-0.01c0-0.44-0.31-0.67-0.8-0.67h-0.76v1.36H92.09z"></path> <path class="st2" d="M94.84,77.79h2.76v0.59h-2.11v0.98h1.87v0.59h-1.87v1.01h2.13v0.59h-2.79V77.79z"></path> </g> </g> <g> <path class="st2" d="M110.1,46.52c0.19,0.25,0.39,0.48,0.6,0.69c0.23-0.1,0.55-0.15,0.98-0.07c-0.54-0.4-1.04-0.92-1.47-1.54 c-0.23-0.34-0.44-0.7-0.62-1.08c-0.34-0.75-0.73-1.32-1.13-1.7c-0.64-0.6-1.44-0.86-2.3-0.2c0.32,0.31,1.07,0.66,1.64,0.07 c0.39,0.23,0.77,0.68,0.99,1.35c0.07,0.21,0.15,0.42,0.24,0.62c-0.54-0.32-1.12-0.27-1.48,0.19c0.24,0.14,0.75,0.25,1-0.19 c0.06,0.01,0.2,0.07,0.23,0.09c0.46,0.25,0.59,0.68,0.86,1.1c-0.2,0.03-0.38,0.11-0.54,0.27 C109.5,45.99,109.81,46.13,110.1,46.52z"></path> <path class="st2" d="M108.81,36.36c0.13,0.45,0.03,0.82-0.04,0.99c-0.14,0.35-0.49,0.72-0.82,0.95c-0.53-0.51-1.2-0.11-1.55,0.23 c0.62,0.46,1.51,0.24,2.14-0.36c-0.07,0.31-0.14,0.63-0.18,0.95c-0.18-0.1-0.4-0.14-0.63-0.08c0.36,0.08,0.59,0.33,0.56,0.72 c0,0.05-0.02,0.27-0.02,0.32c-0.18-0.18-0.47-0.39-0.83-0.5c-0.35-0.12-0.82-0.1-1.22,0.11c0.27,0.53,1.1,0.59,1.59,0.27 c0.21,0.17,0.45,0.48,0.45,0.93c0,0.53-0.24,0.9-0.82,1.02c0.36,0.09,0.65,0.02,0.87-0.16c0.02,0.23,0.06,0.46,0.09,0.69 c0.24,0.19,0.47,0.43,0.7,0.74c-0.26-0.89-0.4-1.85-0.4-2.83c0-1.08,0.18-1.94,0.33-2.57c0.11-0.49,0.13-0.91,0.08-1.27 c-0.14-0.85-0.71-1.21-1.46-1.3C107.68,35.7,108.01,36.47,108.81,36.36z"></path> <path class="st2" d="M109.26,36.16c0.06,0.17,0.09,0.36,0.1,0.58c0.09-0.24,0.2-0.47,0.31-0.69c0.89-1.69,0.52-2.59-0.53-3.11 c-0.2,0.47-0.25,1.4,0.67,1.72c-0.03,0.33-0.15,0.76-0.43,1.29C109.33,36.01,109.29,36.08,109.26,36.16z"></path> <path class="st2" d="M109.07,35.17c0.05-0.36-0.18-0.82-0.7-0.84C108.25,34.78,108.64,35.18,109.07,35.17z"></path> <path class="st2" d="M114.58,50.86l-0.94-0.55c0,0,0.11,0.24,0.11,0.55c0,0.31-0.11,0.55-0.11,0.55L114.58,50.86z"></path> <path class="st2" d="M114.65,50.94l-0.55,0.94c0,0,0.24-0.11,0.55-0.11c0.31,0,0.55,0.11,0.55,0.11L114.65,50.94z"></path> <path class="st2" d="M114.73,50.86l0.94,0.55c0,0-0.11-0.24-0.11-0.55c0-0.31,0.11-0.55,0.11-0.55L114.73,50.86z"></path> <path class="st2" d="M114.1,49.85l0.55,0.94l0.55-0.94c0,0-0.24,0.11-0.55,0.11C114.35,49.96,114.1,49.85,114.1,49.85z"></path> <path class="st2" d="M110.34,47.24c-0.17-0.13-0.34-0.21-0.51-0.25c-0.03-0.42-0.5-0.61-1.27-0.52c0.08,0.29,0.35,0.51,0.69,0.63 c-0.26,0.16-0.54,0.48-0.84,1.02C109.14,48.32,109.92,47.93,110.34,47.24z"></path> <path class="st2" d="M108.84,45.45c-0.57-0.12-1.15,0.08-1.4,0.54C108.07,46.24,108.78,45.98,108.84,45.45z"></path> <path class="st2" d="M107.96,43.95c0.14-0.4-0.19-0.63-0.83-0.63c0.02,0.12,0.08,0.23,0.17,0.32c-0.23,0.05-0.5,0.22-0.85,0.58 C106.91,44.49,107.53,44.36,107.96,43.95z"></path> <path class="st2" d="M107.86,36.8c-0.06-0.12-0.13-0.21-0.21-0.27c0.11-0.25-0.1-0.48-0.57-0.63c-0.04,0.19,0.05,0.39,0.21,0.54 c-0.2,0.02-0.45,0.13-0.78,0.35C106.87,37.09,107.42,37.08,107.86,36.8z"></path> <path class="st2" d="M111.91,49.76c-0.32-0.32-0.84-0.22-1.05,0.12C111.13,50.09,111.63,50.15,111.91,49.76z"></path> <path class="st2" d="M108.15,37.45c-0.29-0.3-0.78-0.23-0.98,0.07C107.41,37.74,107.88,37.8,108.15,37.45z"></path> <path class="st2" d="M106.86,41.54c0.28,0.14,0.73,0.1,0.9-0.28C107.42,41.03,106.98,41.21,106.86,41.54z"></path> <path class="st2" d="M107.59,47.22c0.26,0.23,0.76,0.3,1.05-0.07C108.34,46.82,107.81,46.9,107.59,47.22z"></path> <path class="st2" d="M110.55,48.52c-0.39-0.23-0.87,0-0.98,0.37C109.89,49.03,110.39,48.95,110.55,48.52z"></path> <path class="st2" d="M107.64,45.29c-0.25-0.27-0.69-0.21-0.87,0.07C106.99,45.54,107.4,45.6,107.64,45.29z"></path> <path class="st2" d="M107.31,40.76c-0.37-0.46-1.06-0.41-1.38-0.01C106.25,41.07,106.9,41.22,107.31,40.76z"></path> <path class="st2" d="M115.42,48.94c0.05-0.1,0.02-0.2-0.06-0.27c-0.07-0.06-0.2-0.19-0.51-0.45c-0.05-0.04-0.12-0.09-0.2-0.09 s-0.15,0.05-0.2,0.09c-0.31,0.26-0.45,0.39-0.51,0.45c-0.08,0.07-0.11,0.17-0.06,0.27c0.05,0.1,0.17,0.13,0.25,0.07 c-0.1,0.16-0.03,0.29,0.05,0.35c0.09,0.06,0.21,0.02,0.26-0.07c-0.03,0.18,0.09,0.28,0.2,0.28c0.11,0,0.23-0.11,0.2-0.28 c0.06,0.1,0.17,0.13,0.26,0.07c0.08-0.05,0.15-0.19,0.05-0.35C115.26,49.07,115.37,49.04,115.42,48.94z"></path> <path class="st2" d="M112.69,47.73c-0.53-0.24-1.46-0.55-2.06-0.2c-0.22,0.13-0.41,0.36-0.46,0.62c0.4-0.44,1.41-0.59,1.69,0.22 c0.08,0.23,0.08,0.58-0.16,0.71c0.09-0.58-0.28-0.94-0.79-0.95c-0.06,0.27,0,0.56,0.17,0.75c-0.16-0.02-0.32,0.02-0.44,0.07 c0,0,0.21,0.33,0.6,0.36c0.29,0.02,0.55-0.08,0.73-0.29c0.04,0.36,0.11,0.69,0.51,0.81c-0.4,0.19-0.73,0.5-0.81,0.92 c1.65-0.08,1.49-0.7,1.34-1.09c-0.97,0.25-0.78-0.68-0.78-1.32c0.08,0.04,0.36,0.17,0.63,0.27c-0.06,0.16-0.16,0.29-0.29,0.41 c0.49-0.04,0.69-0.18,1.53-0.91C113.62,48.06,113.15,47.92,112.69,47.73z"></path> <path class="st2" d="M120.85,42.81c-0.41,0.38-0.79,0.95-1.13,1.7c-0.18,0.38-0.39,0.74-0.62,1.08 c-0.43,0.63-0.93,1.14-1.47,1.54c0.43-0.08,0.75-0.03,0.98,0.07c0.21-0.21,0.41-0.44,0.6-0.69c0.3-0.39,0.6-0.53,1.01-0.41 c-0.16-0.16-0.35-0.25-0.54-0.27c0.27-0.42,0.4-0.85,0.86-1.1c0.03-0.02,0.16-0.08,0.23-0.09c0.25,0.44,0.76,0.33,1,0.19 c-0.36-0.46-0.94-0.51-1.48-0.19c0.08-0.2,0.16-0.41,0.24-0.62c0.22-0.67,0.6-1.12,0.99-1.35c0.57,0.59,1.32,0.24,1.64-0.07 C122.29,41.95,121.48,42.21,120.85,42.81z"></path> <path class="st2" d="M120.22,36.51c-0.06,0.35-0.03,0.78,0.08,1.27c0.14,0.64,0.33,1.49,0.33,2.57c0,0.98-0.14,1.94-0.4,2.83 c0.22-0.31,0.46-0.56,0.7-0.74c0.04-0.23,0.07-0.46,0.09-0.69c0.22,0.18,0.51,0.25,0.87,0.16c-0.59-0.12-0.82-0.49-0.82-1.02 c0-0.45,0.24-0.75,0.45-0.93c0.49,0.32,1.31,0.26,1.59-0.27c-0.41-0.2-0.87-0.23-1.22-0.11c-0.36,0.11-0.65,0.32-0.83,0.5 c0-0.06-0.02-0.28-0.02-0.32c-0.02-0.39,0.2-0.64,0.56-0.72c-0.24-0.06-0.45-0.02-0.63,0.08c-0.05-0.32-0.11-0.64-0.18-0.95 c0.64,0.6,1.52,0.82,2.14,0.36c-0.36-0.34-1.02-0.74-1.55-0.23c-0.33-0.23-0.68-0.6-0.82-0.95c-0.07-0.17-0.18-0.55-0.04-0.99 c0.8,0.11,1.13-0.66,1.17-1.15C120.93,35.3,120.36,35.66,120.22,36.51z"></path> <path class="st2" d="M119.64,36.04c0.11,0.22,0.21,0.46,0.31,0.69c0.01-0.21,0.04-0.41,0.1-0.58c-0.04-0.07-0.07-0.15-0.11-0.22 c-0.28-0.53-0.4-0.96-0.43-1.29c0.92-0.32,0.87-1.25,0.67-1.72C119.12,33.45,118.75,34.35,119.64,36.04z"></path> <path class="st2" d="M120.24,35.17c0.43,0.01,0.81-0.39,0.7-0.84C120.42,34.34,120.19,34.81,120.24,35.17z"></path> <path class="st2" d="M120.75,46.48c-0.77-0.1-1.24,0.09-1.27,0.52c-0.17,0.03-0.34,0.12-0.51,0.25c0.42,0.69,1.2,1.08,1.93,0.89 c-0.3-0.54-0.58-0.86-0.84-1.02C120.4,46.99,120.66,46.77,120.75,46.48z"></path> <path class="st2" d="M120.47,45.45c0.06,0.53,0.77,0.79,1.4,0.54C121.62,45.54,121.04,45.33,120.47,45.45z"></path> <path class="st2" d="M122.01,43.65c0.09-0.09,0.15-0.2,0.17-0.32c-0.65,0-0.97,0.23-0.83,0.63c0.43,0.41,1.05,0.54,1.52,0.27 C122.52,43.87,122.24,43.7,122.01,43.65z"></path> <path class="st2" d="M122.22,35.89c-0.46,0.15-0.67,0.38-0.57,0.63c-0.08,0.06-0.15,0.16-0.21,0.27c0.44,0.28,1,0.29,1.35-0.01 c-0.33-0.23-0.58-0.33-0.78-0.35C122.18,36.28,122.26,36.08,122.22,35.89z"></path> <path class="st2" d="M118.45,49.88c-0.21-0.34-0.74-0.43-1.05-0.12C117.68,50.15,118.18,50.09,118.45,49.88z"></path> <path class="st2" d="M121.16,37.45c0.27,0.35,0.74,0.28,0.98,0.07C121.94,37.22,121.44,37.15,121.16,37.45z"></path> <path class="st2" d="M122.45,41.54c-0.12-0.33-0.56-0.5-0.9-0.28C121.71,41.64,122.16,41.68,122.45,41.54z"></path> <path class="st2" d="M121.72,47.22c-0.23-0.32-0.75-0.39-1.05-0.07C120.96,47.52,121.46,47.45,121.72,47.22z"></path> <path class="st2" d="M118.76,48.52c0.16,0.44,0.66,0.51,0.98,0.37C119.63,48.51,119.15,48.29,118.76,48.52z"></path> <path class="st2" d="M122.54,45.35c-0.18-0.27-0.62-0.34-0.87-0.07C121.9,45.6,122.32,45.54,122.54,45.35z"></path> <path class="st2" d="M122,40.76c0.41,0.46,1.06,0.31,1.38-0.01C123.06,40.35,122.36,40.3,122,40.76z"></path> <path class="st2" d="M119.13,48.14c-0.05-0.26-0.24-0.49-0.46-0.62c-0.59-0.35-1.52-0.03-2.06,0.2c-0.45,0.2-0.93,0.33-1.42,0.39 c0.84,0.73,1.05,0.87,1.53,0.91c-0.13-0.12-0.23-0.25-0.29-0.41c0.27-0.1,0.55-0.23,0.63-0.27c0,0.63,0.19,1.57-0.78,1.32 c-0.15,0.38-0.31,1,1.34,1.09c-0.09-0.41-0.42-0.73-0.81-0.92c0.4-0.12,0.46-0.44,0.51-0.81c0.18,0.2,0.44,0.31,0.73,0.29 c0.4-0.03,0.6-0.36,0.6-0.36c-0.12-0.05-0.28-0.09-0.44-0.07c0.17-0.19,0.23-0.49,0.17-0.75c-0.5,0.01-0.88,0.37-0.79,0.95 c-0.24-0.13-0.24-0.49-0.16-0.71C117.73,47.55,118.73,47.7,119.13,48.14z"></path> <path class="st2" d="M120,40.35c0-3.99-2.39-7.22-5.34-7.22c-2.95,0-5.34,3.24-5.34,7.22c0,3.98,2.39,7.21,5.34,7.21 C117.6,47.57,120,44.34,120,40.35z M114.65,47.08c-2.66,0-4.83-3.02-4.83-6.72c0-3.71,2.17-6.73,4.83-6.73 c2.66,0,4.83,3.02,4.83,6.73C119.49,44.06,117.32,47.08,114.65,47.08z"></path> <path class="st2" d="M114.65,34.08c-0.45,0-0.89,0.1-1.31,0.3h2.62C115.55,34.19,115.1,34.08,114.65,34.08z"></path> <path class="st2" d="M116.66,34.8h-4.02c-0.12,0.09-0.24,0.19-0.35,0.3h4.72C116.9,34.99,116.78,34.89,116.66,34.8z"></path> <path class="st2" d="M117.41,35.52h-5.51c-0.08,0.09-0.16,0.19-0.23,0.3h5.98C117.57,35.72,117.49,35.62,117.41,35.52z"></path> <path class="st2" d="M110.31,40.56c0,0.1,0.01,0.2,0.01,0.3h8.67c0.01-0.1,0.01-0.2,0.01-0.3H110.31z"></path> <path class="st2" d="M112.64,45.89h4.03c0.12-0.09,0.24-0.19,0.35-0.3h-4.73C112.4,45.7,112.52,45.8,112.64,45.89z"></path> <path class="st2" d="M114.65,46.61c0.45,0,0.89-0.1,1.32-0.3h-2.63C113.76,46.51,114.2,46.61,114.65,46.61z"></path> <path class="st2" d="M112.18,36.24h-0.8c-0.06,0.1-0.12,0.2-0.17,0.3h0.76C112.03,36.43,112.1,36.33,112.18,36.24z"></path> <path class="st2" d="M117.34,36.54h0.76c-0.05-0.1-0.11-0.2-0.17-0.3h-0.8C117.21,36.33,117.28,36.43,117.34,36.54z"></path> <path class="st2" d="M111.77,36.96H111c-0.04,0.1-0.09,0.2-0.13,0.3h0.81C111.71,37.16,111.73,37.06,111.77,36.96z"></path> <path class="st2" d="M117.62,37.26h0.81c-0.04-0.1-0.08-0.2-0.13-0.3h-0.77C117.57,37.06,117.6,37.16,117.62,37.26z"></path> <path class="st2" d="M111.68,37.83c-0.01-0.05-0.02-0.1-0.02-0.15h-0.94c-0.03,0.1-0.06,0.2-0.09,0.3h0.56 C111.33,37.89,111.5,37.83,111.68,37.83z"></path> <path class="st2" d="M117.62,37.83c0.18,0.01,0.35,0.06,0.5,0.15h0.56c-0.03-0.1-0.06-0.2-0.09-0.3h-0.94 C117.64,37.73,117.64,37.78,117.62,37.83z"></path> <path class="st2" d="M110.8,38.4h-0.28c-0.02,0.1-0.04,0.2-0.06,0.3h0.24C110.72,38.59,110.76,38.49,110.8,38.4z"></path> <path class="st2" d="M118.6,38.7h0.24c-0.02-0.1-0.04-0.2-0.06-0.3h-0.28C118.55,38.49,118.58,38.59,118.6,38.7z"></path> <path class="st2" d="M110.79,39.34c-0.03-0.07-0.06-0.14-0.07-0.22h-0.33c-0.01,0.1-0.03,0.2-0.04,0.3h0.49 C110.82,39.39,110.8,39.37,110.79,39.34z"></path> <path class="st2" d="M118.52,39.34c-0.01,0.03-0.03,0.06-0.05,0.08h0.49c-0.01-0.1-0.02-0.2-0.04-0.3h-0.33 C118.58,39.19,118.55,39.26,118.52,39.34z"></path> <path class="st2" d="M116.27,36.24h-3.23c0.08,0.09,0.15,0.19,0.21,0.3h2.8C116.12,36.43,116.19,36.33,116.27,36.24z"></path> <path class="st2" d="M115.86,36.96h-2.4c0.04,0.1,0.06,0.2,0.08,0.3h2.24C115.79,37.16,115.82,37.06,115.86,36.96z"></path> <path class="st2" d="M115.77,37.83c-0.01-0.05-0.02-0.1-0.02-0.15h-2.18c-0.01,0.05-0.01,0.1-0.02,0.15 c0.18,0.01,0.35,0.06,0.5,0.15h1.24C115.42,37.89,115.59,37.83,115.77,37.83z"></path> <path class="st2" d="M114.79,38.7c0.02-0.11,0.05-0.21,0.1-0.3h-0.47c0.05,0.09,0.08,0.19,0.1,0.3H114.79z"></path> <path class="st2" d="M114.93,39.42c-0.05-0.06-0.09-0.16-0.13-0.3h-0.29c-0.03,0.13-0.08,0.24-0.13,0.3H114.93z"></path> <path class="st2" d="M114.23,41.28h-3.88c0.01,0.1,0.02,0.2,0.04,0.3h3.62C114.07,41.47,114.15,41.37,114.23,41.28z"></path> <path class="st2" d="M115.3,41.58h3.62c0.01-0.1,0.03-0.2,0.04-0.3h-3.88C115.16,41.37,115.23,41.47,115.3,41.58z"></path> <path class="st2" d="M113.81,42h-3.35c0.02,0.1,0.04,0.2,0.06,0.3h3.21C113.75,42.2,113.78,42.1,113.81,42z"></path> <path class="st2" d="M115.58,42.3h3.21c0.02-0.1,0.04-0.2,0.06-0.3h-3.35C115.53,42.1,115.56,42.2,115.58,42.3z"></path> <path class="st2" d="M113.73,42.87c-0.01-0.05-0.02-0.1-0.02-0.15h-3.07c0.03,0.1,0.06,0.2,0.09,0.3h2.51 C113.38,42.93,113.55,42.87,113.73,42.87z"></path> <path class="st2" d="M115.58,42.87c0.18,0.01,0.35,0.06,0.49,0.15h2.51c0.03-0.1,0.06-0.2,0.09-0.3h-3.07 C115.6,42.77,115.59,42.82,115.58,42.87z"></path> <path class="st2" d="M112.85,43.44h-1.97c0.04,0.1,0.08,0.2,0.13,0.3h1.75C112.77,43.63,112.8,43.53,112.85,43.44z"></path> <path class="st2" d="M116.56,43.73h1.75c0.04-0.1,0.09-0.2,0.13-0.3h-1.97C116.51,43.53,116.54,43.63,116.56,43.73z"></path> <path class="st2" d="M113.42,44.45h0.58c-0.03-0.12-0.13-0.24-0.27-0.24C113.59,44.21,113.49,44.33,113.42,44.45z"></path> <path class="st2" d="M115.3,44.45h0.58c-0.07-0.13-0.17-0.24-0.31-0.24C115.43,44.21,115.33,44.34,115.3,44.45z"></path> <path class="st2" d="M111.38,39.42h0.58c-0.03-0.12-0.13-0.24-0.27-0.24C111.55,39.17,111.45,39.29,111.38,39.42z"></path> <path class="st2" d="M113.53,39.17c-0.14,0-0.24,0.13-0.27,0.24h0.58C113.78,39.29,113.67,39.17,113.53,39.17z"></path> <path class="st2" d="M117.61,39.17c-0.14,0-0.24,0.13-0.27,0.24h0.58C117.86,39.29,117.76,39.17,117.61,39.17z"></path> <path class="st2" d="M115.78,39.17c-0.14,0-0.25,0.12-0.31,0.24h0.58C116.02,39.3,115.92,39.17,115.78,39.17z"></path> <path class="st2" d="M112.76,44.16h-1.55c0.05,0.1,0.11,0.2,0.17,0.3h1.5C112.82,44.39,112.77,44.23,112.76,44.16z"></path> <path class="st2" d="M116.43,44.45h1.5c0.06-0.1,0.12-0.2,0.17-0.3h-1.55C116.53,44.23,116.48,44.39,116.43,44.45z"></path> <path class="st2" d="M113.53,38.82c0.25,0,0.47,0.15,0.58,0.37c0.04-0.09,0.07-0.19,0.07-0.3c0-0.39-0.3-0.71-0.67-0.71 c-0.12,0-0.24,0.04-0.33,0.1l-0.24,0.34l-0.09-0.07c0,0,0.37-0.61,0.37-0.99c0-0.38-0.24-0.96-0.61-1.26 c-0.37,0.3-0.61,0.87-0.61,1.26c0,0.38,0.37,0.99,0.37,0.99l-0.09,0.07l-0.24-0.34c-0.1-0.06-0.21-0.1-0.33-0.1 c-0.37,0-0.67,0.32-0.67,0.71c0,0.11,0.03,0.21,0.07,0.3c0.11-0.22,0.33-0.37,0.58-0.37c0.38,0,0.64,0.36,0.64,0.67c0,0,0,0,0,0 c0,0.13-0.02,0.25-0.05,0.35l0,0c-0.04,0.12-0.08,0.22-0.13,0.3h0.93c-0.05-0.08-0.1-0.18-0.13-0.3l0,0 c-0.03-0.1-0.05-0.22-0.05-0.35c0,0,0,0,0,0C112.89,39.17,113.15,38.82,113.53,38.82z M112.61,36.63c0.42,0.66,0.38,1.14,0,1.82 V36.63z"></path> <path class="st2" d="M117.61,38.82c0.25,0,0.47,0.15,0.58,0.37c0.04-0.09,0.07-0.19,0.07-0.3c0-0.39-0.3-0.71-0.67-0.71 c-0.12,0-0.24,0.04-0.33,0.1l-0.24,0.34l-0.09-0.07c0,0,0.37-0.61,0.37-0.99c0-0.38-0.24-0.96-0.61-1.26 c-0.37,0.3-0.61,0.87-0.61,1.26c0,0.38,0.37,0.99,0.37,0.99l-0.09,0.07l-0.24-0.34c-0.1-0.06-0.21-0.1-0.33-0.1 c-0.37,0-0.67,0.32-0.67,0.71c0,0.11,0.03,0.21,0.07,0.3c0.11-0.22,0.33-0.37,0.58-0.37c0.38,0,0.64,0.36,0.64,0.67c0,0,0,0,0,0 c0,0.13-0.02,0.25-0.05,0.35l0,0c-0.04,0.12-0.08,0.22-0.13,0.3h0.93c-0.05-0.08-0.1-0.18-0.13-0.3l0,0 c-0.03-0.1-0.05-0.22-0.05-0.35c0,0,0,0,0,0C116.98,39.18,117.23,38.82,117.61,38.82z M116.7,36.63c0.42,0.66,0.38,1.14,0,1.82 V36.63z"></path> <path class="st2" d="M114.65,41.35c-0.37,0.3-0.61,0.87-0.61,1.26c0,0.38,0.37,0.99,0.37,0.99l-0.09,0.07l-0.24-0.34 c-0.1-0.06-0.21-0.1-0.33-0.1c-0.37,0-0.67,0.32-0.67,0.71c0,0.11,0.03,0.21,0.07,0.3c0.11-0.22,0.33-0.37,0.58-0.37 c0.38,0,0.64,0.36,0.64,0.67c0,0.28-0.09,0.5-0.18,0.65h0.93c-0.09-0.15-0.18-0.37-0.18-0.65c0,0,0,0,0,0 c0-0.31,0.25-0.66,0.64-0.66c0.25,0,0.47,0.15,0.58,0.37c0.04-0.09,0.07-0.19,0.07-0.3c0-0.39-0.3-0.71-0.67-0.71 c-0.12,0-0.24,0.04-0.33,0.1l-0.24,0.34l-0.09-0.07c0,0,0.37-0.61,0.37-0.99C115.26,42.23,115.02,41.65,114.65,41.35z M114.65,43.49v-1.82C115.07,42.32,115.03,42.8,114.65,43.49z"></path> <path class="st2" d="M113.94,44.88h-2.28c0.08,0.1,0.15,0.2,0.23,0.3h1.91C113.85,45.1,113.9,45,113.94,44.88z"></path> <path class="st2" d="M115.5,45.17h1.91c0.08-0.09,0.16-0.19,0.23-0.3h-2.28C115.4,45,115.45,45.1,115.5,45.17z"></path> <path class="st2" d="M115.12,28.2c0-0.26-0.21-0.47-0.47-0.47c-0.26,0-0.47,0.21-0.47,0.47c0,0.26,0.21,0.47,0.47,0.47 C114.91,28.66,115.12,28.46,115.12,28.2z"></path> <polygon class="st2" points="115.08,32.29 115.2,32.46 115.41,32.11 115.21,31.78 114.1,31.78 113.9,32.11 114.1,32.46 114.23,32.29 "></polygon> <polygon class="st2" points="113.26,32.46 113.44,32.58 113.5,32.19 113.19,31.95 112.15,32.35 112.1,32.73 112.42,32.97 112.47,32.77 "></polygon> <polygon class="st2" points="116.83,32.77 116.89,32.97 117.21,32.73 117.15,32.35 116.12,31.95 115.81,32.19 115.87,32.58 116.05,32.46 "></polygon> <path class="st2" d="M111.9,39.84h-1.58c-0.01,0.1-0.01,0.2-0.01,0.3h1.45C111.81,40.06,111.86,39.96,111.9,39.84z"></path> <path class="st2" d="M117.55,40.14H119c0-0.1-0.01-0.2-0.01-0.3h-1.58C117.45,39.96,117.5,40.06,117.55,40.14z"></path> <path class="st2" d="M115.84,40.14c0.05-0.08,0.1-0.18,0.14-0.3h-2.66c0.04,0.12,0.09,0.22,0.14,0.3H115.84z"></path> <path class="st2" d="M117.92,30.29l-1.28-0.53l-0.26,0.52c-0.1,0.19-0.29,0.22-0.43,0.16c-0.14-0.05-0.26-0.2-0.21-0.4l0.14-0.6 l-1.23-0.51l-1.23,0.51l0.14,0.6c0.05,0.2-0.07,0.35-0.21,0.4c-0.14,0.06-0.33,0.03-0.43-0.16l-0.26-0.52l-1.28,0.53l0.14,0.53 c0.05,0.2-0.07,0.35-0.21,0.4c-0.14,0.06-0.33,0.03-0.43-0.16l-0.25-0.45l-0.8,0.33c-0.15-0.3-0.41-0.22-0.51-0.17l1.19,2.28 c0.32,0.7,0.18,1.2,0.16,1.36c0.37-0.58,1.22-1.13,1.37-1.22l-0.66-0.49c-0.01,0.09,0.01,0.22,0.03,0.32l-0.26,0.21l-0.37-0.64 c1.09-0.76,2.38-1.21,3.68-1.23c-0.06-0.16-0.14-0.33-0.46-0.3c-1.17,0.11-2.31,0.52-3.38,1.25l-0.58-1.01 c0,0,0.46-0.18,0.47-0.18c0.26,0.42,0.57,0.47,0.93,0.32c0.35-0.14,0.48-0.42,0.4-0.85l0.71-0.28c0.3,0.49,0.6,0.51,0.95,0.37 c0.35-0.14,0.46-0.47,0.38-0.9c0,0,0.2-0.08,0.42-0.17c0.11,0.78,0.36,1.22,0.36,1.22s0.25-0.44,0.36-1.22 c0.22,0.09,0.42,0.17,0.42,0.17c-0.08,0.42,0.03,0.76,0.38,0.9c0.34,0.14,0.64,0.11,0.94-0.37l0.71,0.28 c-0.08,0.43,0.05,0.71,0.4,0.85c0.36,0.14,0.67,0.1,0.93-0.32c0,0,0.47,0.18,0.47,0.18l-0.58,1.01 c-1.07-0.73-2.21-1.14-3.38-1.25c-0.32-0.03-0.4,0.14-0.46,0.3c1.3,0.02,2.58,0.48,3.68,1.23l-0.37,0.64l-0.26-0.21 c0.02-0.1,0.04-0.23,0.03-0.32l-0.66,0.49c0.14,0.09,0.99,0.64,1.37,1.22c-0.02-0.16-0.16-0.66,0.16-1.36l1.19-2.28 c-0.1-0.05-0.35-0.13-0.51,0.17l-0.8-0.33l-0.25,0.45c-0.1,0.19-0.29,0.22-0.43,0.16c-0.14-0.05-0.26-0.2-0.21-0.4L117.92,30.29z "></path> <path class="st2" d="M99.28,39.81c0,0.16,0.13,0.29,0.28,0.29c0.16,0,0.29-0.13,0.29-0.28c0-0.16-0.13-0.29-0.28-0.29 C99.41,39.53,99.28,39.65,99.28,39.81z"></path> <path class="st2" d="M98.86,41.53l-0.01,0l0.11,0.81l0,0.01l0.12-0.02l0-0.01c0.01-0.07,0.02-0.17,0.02-0.29l0.72-0.1l0.06,0.42 c0.01,0.11,0.07,0.13,0.11,0.15l0.1-0.01l-0.08-0.59l0.61-0.09l0.08,0.56c-0.1,0.04-0.17,0.07-0.26,0.13l-0.01,0l0.01,0.1l0.01,0 c0.07,0.02,0.22,0.04,0.32,0.02c0.06-0.01,0.1-0.02,0.13-0.04l0.01,0l-0.19-1.32l-0.01,0c-0.12,0.02-0.13,0.07-0.14,0.27 l-1.51,0.21C99.01,41.56,98.98,41.51,98.86,41.53z"></path> <path class="st2" d="M99.73,44.66c0,0,0.01,0,0.01,0.01c0.22,0.12,0.5,0.15,0.77,0.08c0.28-0.08,0.5-0.23,0.61-0.44 c0.11-0.2,0.13-0.44,0.07-0.69c-0.07-0.25-0.22-0.45-0.43-0.57c0,0-0.01-0.01-0.01-0.01c-0.22-0.12-0.49-0.15-0.77-0.07 c-0.28,0.08-0.5,0.23-0.62,0.44c-0.11,0.2-0.14,0.43-0.07,0.68C99.36,44.33,99.52,44.53,99.73,44.66z M99.57,43.57 c0.11-0.15,0.28-0.26,0.51-0.32c0.23-0.06,0.44-0.06,0.61,0.01c0.02,0.01,0.04,0.02,0.06,0.03c0.13,0.07,0.22,0.19,0.26,0.34 c0.05,0.18,0.02,0.34-0.08,0.49c-0.1,0.15-0.28,0.26-0.51,0.32c-0.23,0.06-0.44,0.06-0.61-0.01c-0.16-0.07-0.28-0.2-0.32-0.37 C99.44,43.88,99.47,43.72,99.57,43.57z"></path> <path class="st2" d="M101.65,45.43L101.65,45.43l0.12-0.04l-0.29-0.75l-0.01,0c-0.11,0.04-0.11,0.1-0.07,0.31l-1.42,0.55 c-0.11-0.18-0.15-0.22-0.26-0.18l-0.01,0l0.29,0.75l0.12-0.04l0-0.01c0-0.07-0.02-0.18-0.04-0.26l1.42-0.55 C101.54,45.28,101.6,45.37,101.65,45.43z"></path> <path class="st2" d="M102.12,48.01c0.15,0.05,0.31,0.03,0.44-0.05c0.14-0.08,0.22-0.2,0.24-0.33c0.02-0.14-0.02-0.29-0.12-0.46 c-0.02-0.04-0.07-0.11-0.12-0.19c-0.06-0.09-0.11-0.18-0.14-0.23l-0.17-0.3l-0.01,0.01c-0.1,0.06-0.1,0.11-0.03,0.3l-1.31,0.77 c-0.13-0.16-0.18-0.19-0.28-0.13l-0.01,0.01l0.41,0.7l0.01,0.01l0.11-0.06l0-0.01c-0.01-0.06-0.04-0.14-0.09-0.27l0.54-0.32 C101.75,47.82,101.97,47.96,102.12,48.01z M102.37,46.99c0.04,0.05,0.1,0.15,0.12,0.2c0.07,0.11,0.09,0.22,0.07,0.3 c-0.02,0.09-0.08,0.16-0.18,0.22c-0.08,0.04-0.19,0.09-0.32,0.05c-0.13-0.05-0.25-0.18-0.34-0.4L102.37,46.99z"></path> <path class="st2" d="M102.43,50.07c0.25,0.14,0.56,0.11,0.84-0.12l0.75-0.59c0.15,0.14,0.21,0.16,0.29,0.09l0.01-0.01l-0.47-0.6 l-0.1,0.08l0,0.01c0.02,0.07,0.08,0.17,0.13,0.25l-0.74,0.58c-0.31,0.25-0.57,0.24-0.77-0.02c-0.22-0.28-0.18-0.53,0.14-0.79 l0.74-0.58c0.07,0.06,0.15,0.15,0.21,0.18l0.01,0l0.1-0.08l-0.51-0.64l-0.01,0.01c-0.09,0.07-0.08,0.13,0.02,0.31l-0.75,0.59 c-0.22,0.17-0.33,0.35-0.35,0.54c-0.02,0.18,0.06,0.36,0.22,0.57C102.26,49.95,102.34,50.02,102.43,50.07z"></path> <path class="st2" d="M103.97,51.68c0.24,0.14,0.49,0.11,0.68-0.09c0.17-0.18,0.18-0.39,0.03-0.61c0.18,0.06,0.36,0.02,0.49-0.12 c0.14-0.15,0.24-0.39-0.09-0.7l-0.62-0.59l-0.01,0.01c-0.08,0.08-0.06,0.14,0.06,0.3l-1.05,1.1c-0.17-0.11-0.22-0.13-0.3-0.04 l-0.01,0.01l0.62,0.59C103.83,51.59,103.9,51.64,103.97,51.68z M104.71,50.06l0.19,0.18c0.15,0.15,0.16,0.3,0.02,0.45 c-0.11,0.11-0.28,0.18-0.45,0.03l-0.21-0.2L104.71,50.06z M103.7,51.12l0.44-0.47l0.23,0.22c0.18,0.17,0.2,0.36,0.05,0.52 c-0.16,0.17-0.36,0.17-0.54,0l-0.18-0.17C103.66,51.18,103.66,51.16,103.7,51.12z"></path> <path class="st2" d="M106.3,51.34L106.3,51.34l0.08-0.1l-0.62-0.46l-0.01-0.01l-0.01,0.01c-0.07,0.09-0.04,0.14,0.1,0.29 l-0.91,1.22c-0.18-0.09-0.23-0.1-0.3-0.01l-0.01,0.01l1.11,0.82l0.01,0.01l0.01,0c0.03-0.02,0.07-0.06,0.1-0.1 c0.06-0.09,0.12-0.23,0.14-0.3l0-0.01l-0.08-0.06l-0.01,0c-0.08,0.04-0.15,0.1-0.25,0.19l-0.5-0.37l0.91-1.23 C106.14,51.27,106.23,51.32,106.3,51.34z"></path> <path class="st2" d="M107.62,52.21L107.62,52.21l0.07-0.1l-0.67-0.41l-0.01-0.01L107,51.7c-0.06,0.1-0.03,0.15,0.13,0.29 l-0.79,1.3c-0.19-0.08-0.26-0.08-0.31,0.01l-0.01,0.01l0.67,0.41l0.01,0.01l0.06-0.11l-0.01-0.01c-0.05-0.06-0.12-0.13-0.19-0.18 l0.8-1.3C107.45,52.16,107.55,52.19,107.62,52.21z"></path> <path class="st2" d="M109.19,53.87c0.12-0.27,0.15-0.53,0.06-0.75c-0.08-0.21-0.25-0.39-0.48-0.5c-0.49-0.23-1.03-0.02-1.27,0.51 c-0.13,0.27-0.15,0.53-0.07,0.75c0.08,0.22,0.24,0.39,0.47,0.5c0.02,0.01,0.05,0.02,0.06,0.02c0.13,0.4,0.34,0.69,0.59,0.83 c0.02,0.01,0.04,0.02,0.06,0.03c0.22,0.1,0.41,0.06,0.49,0.02l0.01,0l0-0.1l-0.01,0c-0.01,0-0.02,0-0.03-0.01 c-0.05-0.01-0.14-0.03-0.25-0.08c-0.23-0.11-0.44-0.32-0.62-0.62C108.61,54.51,108.99,54.28,109.19,53.87z M108,54.22 c-0.16-0.08-0.27-0.21-0.31-0.38c-0.04-0.18-0.01-0.38,0.09-0.6c0.21-0.44,0.55-0.62,0.89-0.46c0.02,0.01,0.03,0.02,0.05,0.02 c0.3,0.17,0.37,0.54,0.18,0.95C108.69,54.19,108.34,54.38,108,54.22z"></path> <path class="st2" d="M109.92,55.14c0.07,0.04,0.16,0.08,0.26,0.11c0.21,0.06,0.41,0.04,0.58-0.05c0.16-0.1,0.29-0.27,0.35-0.49 l0.27-0.92c0.21,0.02,0.26,0.01,0.29-0.09l0-0.01l-0.72-0.21l-0.01,0l-0.04,0.12l0.01,0.01c0.06,0.04,0.16,0.09,0.25,0.13 l-0.27,0.9c-0.05,0.19-0.14,0.32-0.24,0.39c-0.11,0.07-0.24,0.09-0.4,0.04c-0.18-0.05-0.3-0.14-0.35-0.27 c-0.05-0.12-0.05-0.26,0.01-0.45l0.27-0.9c0.09,0.01,0.21,0.03,0.28,0.02l0.01,0l0.04-0.12l-0.78-0.23l-0.01,0l0,0.01 c-0.03,0.11,0.01,0.15,0.2,0.24l-0.27,0.92c-0.08,0.27-0.07,0.47,0.03,0.64C109.73,55,109.81,55.08,109.92,55.14z"></path> <path class="st2" d="M112.94,54.04c0.01,0.11,0.02,0.19,0.05,0.28l0,0.01l0.1,0.02l0-0.01c0.04-0.06,0.1-0.2,0.11-0.3 c0.01-0.06,0.01-0.1,0-0.13l0-0.01l-1.34-0.2l-0.01,0l0,0.01c-0.02,0.12,0.03,0.15,0.22,0.21l-0.23,1.5 c-0.2,0.01-0.25,0.02-0.27,0.14l0,0.01l1.34,0.2l0.01,0l0-0.01c0.02-0.04,0.04-0.09,0.04-0.14c0.02-0.11,0-0.25-0.02-0.33l0-0.01 l-0.1-0.02l0,0.01c-0.05,0.08-0.09,0.16-0.13,0.27l-0.59-0.09l0.11-0.72l0.45,0.07c0.11,0.02,0.15-0.03,0.17-0.06l0,0l0.02-0.1 l-0.61-0.09l0.09-0.61L112.94,54.04z"></path> <path class="st2" d="M114.31,55.04L114.31,55.04l0,0.18l0.44,0c0.15,0,0.2,0,0.24-0.06l0,0l0-0.17l-0.44,0 C114.4,54.97,114.35,54.98,114.31,55.04z"></path> <path class="st2" d="M116.33,55.76l0,0.01l0.78-0.1l0.01,0l-0.02-0.12l-0.01,0c-0.05-0.01-0.14-0.02-0.26-0.02l-0.16-1.21l0-0.01 l-0.01,0c-0.04-0.02-0.09-0.02-0.16-0.02c-0.13,0.02-0.28,0.08-0.33,0.11l-0.01,0l0.01,0.1l0.01,0c0.05,0.01,0.13,0.02,0.23,0.02 l0.14,1.04C116.36,55.61,116.31,55.65,116.33,55.76z"></path> <path class="st2" d="M117.36,55.16c0.03,0.13,0.09,0.23,0.19,0.29c0.01,0,0.01,0.01,0.02,0.01c0.13,0.07,0.3,0.09,0.5,0.04 c0.36-0.08,0.57-0.35,0.51-0.65c-0.06-0.27-0.22-0.37-0.48-0.43c0.15-0.09,0.3-0.25,0.24-0.5c-0.05-0.22-0.25-0.42-0.65-0.33 c-0.17,0.04-0.31,0.12-0.4,0.23c-0.08,0.11-0.11,0.24-0.08,0.37c0.06,0.27,0.25,0.37,0.43,0.42 C117.42,54.73,117.31,54.95,117.36,55.16z M117.47,54.09c-0.02-0.09-0.01-0.16,0.04-0.22c0.04-0.05,0.11-0.09,0.2-0.11 c0.08-0.02,0.16-0.01,0.22,0.03c0.01,0,0.01,0.01,0.02,0.01c0.06,0.04,0.11,0.11,0.13,0.2c0.03,0.14-0.01,0.26-0.12,0.39 l-0.03-0.01C117.69,54.34,117.52,54.29,117.47,54.09z M117.78,54.64l0.11,0.02c0.25,0.05,0.38,0.11,0.43,0.31 c0.04,0.18-0.07,0.32-0.27,0.36c-0.22,0.05-0.37-0.05-0.42-0.26C117.59,54.87,117.68,54.74,117.78,54.64z"></path> <path class="st2" d="M119.09,55.21l0,0.01l0.75-0.24l0.01,0l-0.04-0.12l-0.01,0c-0.05,0-0.14,0.01-0.26,0.03l-0.37-1.17l-0.01,0 c-0.04-0.01-0.1-0.01-0.16,0.01c-0.12,0.04-0.26,0.13-0.31,0.17l-0.01,0.01l0.03,0.1l0.01,0c0.05,0,0.13-0.01,0.23-0.02l0.32,1 C119.1,55.06,119.05,55.11,119.09,55.21z"></path> <path class="st2" d="M120.25,54.63c0.01,0,0.01,0.01,0.02,0.01c0.16,0.08,0.34,0.09,0.53,0.01c0.17-0.07,0.29-0.2,0.35-0.38 c0.05-0.16,0.04-0.34-0.02-0.5c-0.06-0.15-0.17-0.27-0.29-0.33c-0.14-0.07-0.29-0.07-0.45,0c-0.22,0.09-0.3,0.26-0.32,0.37 c-0.09-0.44,0.1-0.85,0.5-1.11l0.01-0.01l-0.07-0.11l-0.01,0c-0.64,0.27-0.9,0.91-0.63,1.56 C119.97,54.37,120.1,54.54,120.25,54.63z M120.38,53.66c0.11-0.05,0.21-0.04,0.3,0.01c0,0,0,0,0,0c0.08,0.05,0.15,0.14,0.2,0.26 c0.05,0.13,0.07,0.24,0.04,0.34c-0.02,0.1-0.08,0.17-0.17,0.21c-0.09,0.04-0.18,0.04-0.27,0c-0.01-0.01-0.02-0.01-0.03-0.02 c-0.21-0.12-0.32-0.42-0.33-0.47C120.14,53.88,120.23,53.73,120.38,53.66z"></path> <path class="st2" d="M122.45,53.21c0.16,0,0.29-0.13,0.29-0.28c0-0.16-0.13-0.29-0.28-0.29c-0.16,0-0.29,0.13-0.29,0.28 C122.16,53.08,122.29,53.2,122.45,53.21z"></path> <path class="st2" d="M99.22,36.49L99.22,36.49L99.22,36.49c-0.05,0.07-0.11,0.3-0.14,0.45c-0.08,0.46,0.08,0.84,0.43,1.04 c0.11,0.06,0.23,0.11,0.37,0.13c0.57,0.1,1-0.17,1.1-0.7c0.07-0.38-0.12-0.6-0.21-0.68l0,0l-0.01,0 c-0.02,0.01-0.08,0.04-0.1,0.06l-0.01,0.01l0.01,0.02c0.05,0.07,0.16,0.25,0.11,0.5c-0.03,0.19-0.14,0.34-0.3,0.42 c-0.16,0.08-0.36,0.1-0.58,0.07c-0.25-0.04-0.43-0.13-0.54-0.27c-0.11-0.13-0.14-0.29-0.11-0.49c0.02-0.12,0.06-0.22,0.09-0.26 c0.16,0,0.28-0.03,0.32-0.04l0.01,0l0.02-0.1l-0.01,0c-0.06-0.04-0.19-0.11-0.31-0.13C99.33,36.49,99.26,36.49,99.22,36.49z"></path> <path class="st2" d="M99.82,35.01c-0.13,0-0.22,0-0.28,0.18l-0.04,0.14l1.48,1.09c-0.01,0.13,0,0.19,0.06,0.23 c0.01,0.01,0.02,0.01,0.04,0.02l0.01,0l0.2-0.63l0-0.01l-0.12-0.04l-0.01,0.01c-0.05,0.07-0.09,0.16-0.12,0.22l-0.41-0.29 l0.21-0.64l0.5-0.01c-0.01,0.07-0.02,0.16-0.03,0.25l0,0.01l0.12,0.04l0.22-0.7l0-0.01l-0.01,0c-0.1-0.03-0.14,0.01-0.22,0.14 L99.82,35.01L99.82,35.01z M100.49,35.81l-0.72-0.52l0.89-0.01L100.49,35.81z"></path> <path class="st2" d="M100.45,33.28l-0.11-0.05l-0.32,0.72l-0.01,0.01l0.01,0.01c0.1,0.05,0.15,0.01,0.27-0.17l1.39,0.61 c-0.05,0.2-0.05,0.26,0.05,0.31l0.01,0l0.32-0.72l0-0.01l-0.11-0.05l-0.01,0.01c-0.05,0.05-0.11,0.14-0.16,0.21l-1.39-0.62 C100.42,33.47,100.44,33.36,100.45,33.28L100.45,33.28z"></path> <path class="st2" d="M101.13,32.13c0.1,0.03,0.23,0.05,0.29,0.05l0.01,0l0.05-0.09l-0.01-0.01c-0.14-0.15-0.26-0.24-0.37-0.26 l-0.01,0l0,0.01c-0.04,0.04-0.14,0.17-0.27,0.39c-0.2,0.36-0.16,0.65,0.11,0.8c0,0,0.01,0,0.01,0c0.19,0.1,0.38,0.09,0.57-0.03 c0.09-0.06,0.13-0.1,0.19-0.15c0.03-0.03,0.07-0.06,0.12-0.1c0.14-0.11,0.25-0.16,0.42-0.07c0,0,0,0,0.01,0 c0.16,0.09,0.2,0.27,0.09,0.48c-0.07,0.13-0.17,0.22-0.24,0.26c-0.09-0.04-0.22-0.07-0.33-0.08l-0.01,0l-0.05,0.09l0,0.01 c0.06,0.08,0.15,0.17,0.26,0.23c0.04,0.02,0.08,0.04,0.11,0.05l0.01,0l0,0c0.06-0.03,0.25-0.16,0.41-0.44 c0.2-0.37,0.14-0.68-0.16-0.85c0,0-0.01,0-0.01-0.01c-0.23-0.13-0.44-0.09-0.69,0.13c-0.02,0.02-0.04,0.04-0.06,0.05 c-0.06,0.06-0.1,0.09-0.17,0.14c-0.13,0.1-0.24,0.12-0.35,0.06c0,0,0,0-0.01,0c-0.15-0.09-0.17-0.24-0.07-0.43 C101.03,32.23,101.09,32.16,101.13,32.13z"></path> <path class="st2" d="M102.1,30.37L102.1,30.37l-0.01,0c-0.04,0.04-0.16,0.15-0.31,0.36c-0.24,0.33-0.23,0.63,0.02,0.81 c0.18,0.13,0.37,0.14,0.56,0.03c0.09-0.05,0.14-0.08,0.21-0.13c0.04-0.03,0.08-0.05,0.14-0.09c0.15-0.1,0.27-0.13,0.42-0.02 c0.08,0.05,0.12,0.13,0.13,0.21c0.01,0.09-0.02,0.18-0.09,0.27c-0.09,0.12-0.19,0.2-0.27,0.23c-0.08-0.05-0.21-0.1-0.32-0.12 l-0.01,0l-0.06,0.08l0,0.01c0.06,0.1,0.16,0.23,0.28,0.3c0.02,0.01,0.04,0.02,0.05,0.03l0,0l0,0c0.06-0.03,0.27-0.13,0.46-0.39 c0.25-0.35,0.22-0.66-0.07-0.87c-0.21-0.15-0.43-0.14-0.7,0.05c-0.03,0.02-0.05,0.03-0.07,0.05c-0.07,0.05-0.11,0.08-0.19,0.12 c-0.14,0.08-0.25,0.09-0.36,0.02c-0.14-0.1-0.15-0.26-0.02-0.44c0.07-0.1,0.14-0.16,0.18-0.19c0.09,0.04,0.23,0.08,0.29,0.09 l0.01,0l0.06-0.08l-0.01-0.01C102.32,30.5,102.21,30.4,102.1,30.37z"></path> <path class="st2" d="M103.31,29.2c0.09,0.05,0.17,0.08,0.26,0.11l0.01,0l0.07-0.08l0-0.01c-0.03-0.07-0.11-0.19-0.19-0.26 c-0.04-0.04-0.08-0.06-0.11-0.08l-0.01,0l-0.91,1.01l-0.01,0.01l0.01,0.01c0.09,0.08,0.14,0.06,0.3-0.07l1.13,1.02 c-0.11,0.17-0.12,0.22-0.04,0.3l0.01,0.01l0.91-1.01l0-0.01c-0.02-0.04-0.05-0.08-0.09-0.11c-0.08-0.07-0.21-0.14-0.28-0.16 l-0.01,0l-0.07,0.08l0,0.01c0.04,0.08,0.09,0.16,0.16,0.26l-0.4,0.45l-0.54-0.49l0.31-0.34c0.07-0.08,0.06-0.14,0.04-0.18 l-0.08-0.07l-0.41,0.46l-0.46-0.41L103.31,29.2C103.3,29.2,103.3,29.2,103.31,29.2z"></path> <path class="st2" d="M105.48,29.43L105.48,29.43l0.72-0.53c0.24-0.18,0.38-0.41,0.41-0.66c0.03-0.24-0.05-0.49-0.23-0.72 c-0.34-0.45-0.83-0.5-1.32-0.13l-0.71,0.54l0.01,0.01c0.07,0.09,0.12,0.08,0.3-0.01l0.92,1.21 C105.44,29.29,105.41,29.34,105.48,29.43z M104.88,27.76l0.25-0.19c0.37-0.28,0.73-0.22,1.01,0.15c0.16,0.21,0.23,0.39,0.23,0.56 c-0.01,0.19-0.11,0.36-0.31,0.51l-0.19,0.15c-0.04,0.03-0.07,0.03-0.1-0.01L104.88,27.76z"></path> <path class="st2" d="M107.12,28.22l0.01,0.01l1.18-0.67l0.01,0l0-0.01c-0.01-0.04-0.02-0.09-0.05-0.13 c-0.05-0.09-0.16-0.2-0.22-0.25l-0.01-0.01l-0.09,0.05l0,0.01c0.01,0.09,0.03,0.18,0.07,0.3l-0.52,0.3l-0.36-0.63l0.4-0.23 c0.09-0.05,0.1-0.11,0.1-0.15h-0.21l-0.37,0.21l-0.12-0.21h-0.32l0.65,1.14C107.1,28.08,107.07,28.12,107.12,28.22z"></path> <path class="st2" d="M109.37,26.83c-0.04,0.08-0.12,0.14-0.22,0.19c-0.14,0.06-0.27,0.06-0.35,0.05 c-0.04-0.08-0.12-0.18-0.2-0.26h-0.06l-0.05,0.02l0,0.01c-0.01,0.13,0.03,0.33,0.11,0.45l0,0l0.01,0 c0.06,0.01,0.29,0.03,0.59-0.09c0.19-0.08,0.32-0.19,0.39-0.32c0.01-0.02,0.02-0.05,0.03-0.07h-0.25 C109.37,26.81,109.37,26.82,109.37,26.83z"></path> <path class="st2" d="M125.73,48.53L125.73,48.53l-0.5,0.54l0.09,0.08l0.01,0c0.06-0.03,0.14-0.1,0.21-0.15l0.28,0.25v-0.28 l-0.13-0.12C125.8,48.66,125.82,48.6,125.73,48.53z"></path> <path class="st2" d="M125.81,51.26L125.81,51.26l0.02,0v-0.26C125.74,51.14,125.73,51.19,125.81,51.26z"></path> <path class="st2" d="M125.83,49.75l-1.1-0.13l-0.01,0l-0.04,0.05c-0.05,0.06-0.06,0.12-0.03,0.19c0.03,0.06,0.09,0.12,0.14,0.17 l1.03,0.91v-0.28L125,49.92l0.82,0.1V49.75z"></path> <path class="st2" d="M124.64,52.04c-0.08-0.06-0.2-0.13-0.26-0.15l-0.01,0l-0.08,0.07l0,0.01c0.07,0.19,0.16,0.31,0.25,0.37 l0.01,0l0.01,0c0.05-0.03,0.19-0.11,0.39-0.27c0.31-0.27,0.37-0.56,0.17-0.79c-0.14-0.16-0.32-0.22-0.54-0.17 c-0.1,0.02-0.16,0.05-0.23,0.07c-0.04,0.02-0.09,0.03-0.15,0.05c-0.17,0.06-0.29,0.06-0.42-0.08c-0.13-0.15-0.09-0.33,0.08-0.48 c0.11-0.1,0.24-0.14,0.32-0.16c0.07,0.06,0.18,0.15,0.28,0.19l0.01,0l0.08-0.07l0-0.01c-0.03-0.13-0.13-0.31-0.25-0.39l0,0l0,0 c-0.06,0.01-0.29,0.06-0.54,0.27c-0.15,0.13-0.25,0.28-0.28,0.42c-0.03,0.15,0.02,0.3,0.14,0.44c0.17,0.2,0.38,0.24,0.69,0.12 c0.03-0.01,0.05-0.02,0.08-0.03c0.08-0.03,0.13-0.05,0.21-0.07c0.16-0.05,0.27-0.03,0.35,0.07c0.11,0.13,0.08,0.29-0.08,0.43 C124.77,51.97,124.69,52.02,124.64,52.04z"></path> <path class="st2" d="M125.83,52.78c-2.99,2.61-6.89,4.2-11.17,4.2c-9.37,0-16.97-7.6-16.97-16.97c0-5.33,2.46-10.09,6.31-13.2 h-2.1c-3.45,3.34-5.61,8.02-5.61,13.2c0,10.14,8.22,18.36,18.36,18.36c4.2,0,8.08-1.42,11.17-3.79V52.78z"></path> </g> </g> </g> </svg> 