<?xml version="1.0" encoding="UTF-8"?> <svg xmlns="http://www.w3.org/2000/svg" xmlns:xlink="http://www.w3.org/1999/xlink" version="1.1" id="Calque_2" x="0px" y="0px" viewBox="0 0 192.57 112.69" style="enable-background:new 0 0 192.57 112.69;" xml:space="preserve"> <style type="text/css"> .st0{fill:none;} .st1{fill:#FF0000;} .st2{fill:#051039;} </style> <g> <rect x="0" y="0" class="st0" width="192.43" height="112.61"></rect> </g> <g> <g> <g> <path class="st1" d="M102.12,33.56c0.68-0.54,3.66-3.2,5.15-5.03c0.11-0.14,0.04-0.34-0.13-0.39 c-7.83-2.26-31.51-0.06-42.74,16.96c-0.15,0.23-0.12,0.3,0.05,0.44c3.91-6.37,12.82-11.35,23.58-12.4 c4.42-0.43,8.92-0.07,13.37,0.68C101.81,33.89,101.79,33.82,102.12,33.56z"></path> <g> <g> <path class="st2" d="M91.02,63.13h3.28l-5.54-13.47h-4.09l-5.54,13.47h3.17l0.87-2.27h6.97L91.02,63.13z M84.17,58.28l2.5-6.5 l2.5,6.5H84.17z"></path> <path class="st2" d="M71.08,61.71l3.45-5.65c0.13-0.21,0.79-1.35,1.01-1.78h0.04c-0.03,0.5-0.04,1.38-0.04,1.78v7.07h2.87 V49.66h-3.04l-4.25,7.21l-4.25-7.21H63.7v13.47h2.81v-7.07c0-0.41-0.01-1.28-0.04-1.78h0.04c0.22,0.43,0.88,1.57,1.01,1.78 l3.45,5.65H71.08z"></path> <path class="st2" d="M136.4,61.71l3.45-5.65c0.13-0.21,0.79-1.35,1.01-1.78h0.04c-0.03,0.5-0.04,1.38-0.04,1.78v7.07h2.87 V49.66h-3.04l-4.25,7.21l-4.25-7.21h-3.17v13.47h2.81v-7.07c0-0.41-0.01-1.28-0.04-1.78h0.04c0.22,0.43,0.88,1.57,1.01,1.78 l3.45,5.65H136.4z"></path> <path class="st2" d="M62.08,59.23h-3.02v0.08c0,1.05-0.59,1.27-1.9,1.27h-2.91c-2.2,0-2.52-0.26-2.52-2.69v-3.01 c0-2.43,0.32-2.69,2.52-2.69h2.91c1.31,0,1.9,0.22,1.9,1.27h3.02c0-2.88-1.14-3.87-4.75-3.87H53.6c-3.42,0-4.76,1.3-4.76,4.63 v4.32c0,3.33,1.34,4.63,4.76,4.63h3.73c3.61,0,4.75-0.99,4.75-3.87V59.23z"></path> <path class="st2" d="M111.73,59.23h-3.02v0.08c0,1.05-0.59,1.27-1.9,1.27h-2.91c-2.2,0-2.52-0.26-2.52-2.69v-3.01 c0-2.43,0.32-2.69,2.52-2.69h2.91c1.31,0,1.9,0.22,1.9,1.27h3.02c0-2.88-1.14-3.87-4.75-3.87h-3.73c-3.42,0-4.76,1.3-4.76,4.63 v4.32c0,3.33,1.34,4.63,4.76,4.63h3.73c3.61,0,4.75-0.99,4.75-3.87V59.23z"></path> <path class="st2" d="M124.05,58.05v1.26c0,1.05-0.59,1.27-1.9,1.27h-3.51c-2.2,0-2.52-0.26-2.52-2.69v-3.01 c0-2.43,0.32-2.69,2.52-2.69h3.36c1.31,0,1.9,0.22,1.9,1.27h3.02c0-2.88-1.14-3.87-4.75-3.87h-4.18c-3.42,0-4.76,1.3-4.76,4.63 v4.32c0,3.33,1.34,4.63,4.76,4.63h4.18c3.61,0,4.75-0.99,4.75-3.87v-3.56h-6.85v2.3H124.05z"></path> </g> </g> <path class="st1" d="M90.45,79.11c-0.68,0.54-3.66,3.2-5.15,5.03c-0.11,0.14-0.04,0.34,0.13,0.39 c7.83,2.26,31.51,0.06,42.74-16.96c0.15-0.23,0.12-0.3-0.05-0.44c-3.91,6.37-12.82,11.35-23.58,12.4 c-4.42,0.43-8.92,0.07-13.37-0.68C90.76,78.78,90.78,78.85,90.45,79.11z"></path> </g> </g> <rect x="26.77" y="5.33" class="st0" width="139.02" height="102.03"></rect> </g> </svg> 