<?xml version="1.0" encoding="UTF-8"?> <svg xmlns="http://www.w3.org/2000/svg" xmlns:xlink="http://www.w3.org/1999/xlink" version="1.1" x="0px" y="0px" viewBox="0 0 192.57 112.69" style="enable-background:new 0 0 192.57 112.69;" xml:space="preserve"> <style type="text/css"> .st0{display:none;} .st1{display:inline;} .st2{fill:none;} .st3{fill:#0082C3;} .st4{fill:#FFFFFF;} .st5{fill:#3643BA;} </style> <g id="Calque_1" class="st0"> <g class="st1"> <rect x="0" y="0" class="st2" width="192.43" height="112.61"></rect> </g> <g class="st1"> <g id="XMLID_1_"> <path id="XMLID_6_" d="M81.77,82.07v-1.79h-4.29v3.34c-0.12-0.97-0.5-1.76-1.1-2.34c-0.83-0.79-1.7-0.97-2.95-0.97h-2.69v8.1 h2.96c1.1,0,1.84-0.17,2.69-1.01c0.59-0.6,0.96-1.36,1.09-2.26v3.22h4.29v-1.74h-2.39v-1.51h2.07v-1.73h-2.07v-1.32H81.77z M73.45,86.63h-0.77v-4.56h0.76c1.43,0,2.19,0.81,2.19,2.27C75.62,85.93,74.92,86.63,73.45,86.63z"></path> <path id="XMLID_5_" d="M90.44,80.28l-2.84,5.18c-0.06,0.11-0.62,0.99-1.77,1.07c-1.13,0.05-2.09-1.06-2.07-2.26 c0.03-1.19,0.88-2.14,2.03-2.16c0.96,0.02,1.68,0.8,1.68,0.8c0.2,0.17,0.33,0.32,0.49,0.56l1.03-1.88 c-0.18-0.2-0.27-0.29-0.49-0.48c-0.59-0.55-1.46-0.98-2.67-1.03c-1.16-0.03-2.34,0.48-3.25,1.69c-0.56,0.77-0.79,1.46-0.81,2.49 c0.02,1.19,0.43,2.17,1.03,2.87c1.05,1.13,2.31,1.4,2.99,1.4c0.96-0.03,1.68-0.28,2.35-0.75c0.21-0.15,0.44-0.36,0.68-0.61h1.8 v1.17h1.86v-8.08H90.44z M90.62,85.51h-1l1-1.85V85.51z"></path> <polygon id="XMLID_4_" points="92.83,82.2 94.3,82.2 94.3,88.42 96.22,88.42 96.22,82.2 97.71,82.2 97.71,80.32 92.83,80.32 "></polygon> <polygon id="XMLID_3_" points="101.96,83.39 99.98,83.39 99.98,80.32 98.06,80.32 98.06,88.42 99.98,88.42 99.98,85.32 101.96,85.32 101.96,88.42 103.9,88.42 103.9,80.32 101.96,80.32 "></polygon> <path id="XMLID_2_" d="M119.9,80.32v4.5l-2.89-4.5h-1.75v2.73c-0.19-0.62-0.53-1.19-1.02-1.68c-0.77-0.77-1.75-1.19-2.81-1.19 c-1.13,0-2.1,0.4-2.87,1.18c-0.79,0.8-1.2,1.81-1.2,2.93c0,0.89,0.21,1.67,0.62,2.35h-1.47v-6.31h-1.91v8.1h4.17v-0.85 c0.73,0.66,1.63,1,2.66,1c1.1,0,2.14-0.45,2.9-1.27c0.44-0.47,0.76-1.03,0.94-1.64v2.76h1.94V83.9l2.94,4.51h1.69v-8.1H119.9z M111.42,86.57c-1.09,0-2.07-0.99-2.07-2.26c0-1.19,0.92-2.14,2.09-2.14c1.1,0,2.03,0.95,2.03,2.14 C113.47,85.63,112.55,86.57,111.42,86.57z"></path> </g> <path d="M70.73,24.13v51.12h51.12V24.13H70.73z M86.93,51.58c2.77,0,7.07,0,7.5,0c4.05,0,6.19-2.24,6.19-6.22 c0-3.98-2.14-6.22-6.19-6.22c-0.43,0-4.73,0-7.5,0V34.1c3.66,0,7.01,0,7.5,0c7.31,0,11.18,4.05,11.18,11.23 c0,7.18-3.87,11.23-11.18,11.23c-0.49,0-3.84,0-7.5,0V51.58z M105.61,65.27H86.93v-4.98h18.68V65.27z"></path> </g> </g> <g id="Calque_2" class="st0"> <g class="st1"> <rect x="30.95" y="40.09" class="st3" width="130.67" height="32.51"></rect> <polygon class="st4" points="53.95,47.98 63.56,47.98 63.56,51.66 58.27,51.66 58.27,54.39 62.85,54.39 62.85,57.98 58.27,57.99 58.27,61.01 63.56,61.01 63.56,64.68 53.95,64.68 "></polygon> <g> <path class="st4" d="M83.29,47.98c0,0-5.56,9.42-6.1,10.26c-0.63,1-2.01,2.58-4.1,2.55c-3.4-0.05-4.68-2.39-4.68-4.49 c0-2.39,1.91-4.44,4.41-4.48c2.82-0.06,4.92,2.63,4.92,2.63l2.21-3.54c0,0-2.5-3.38-7.09-3.27c-6.91,0.15-8.93,5.92-8.93,8.59 c0,5.62,4.35,8.43,7.91,8.77c5.12,0.5,7.92-2.83,7.92-2.83s-0.04-0.01,0.14-0.01c1.03-0.01,3.76,0.01,3.76,0.01v2.51h4.16v-16.7 H83.29z M83.74,58.68h-2.23l2.23-3.78V58.68z"></path> </g> <polygon class="st4" points="92.07,64.69 92.07,51.97 88.72,51.97 88.72,47.97 99.74,47.97 99.74,51.97 96.39,51.97 96.39,64.69 "></polygon> <polygon class="st4" points="109.4,58.3 104.95,58.3 104.95,64.69 100.64,64.69 100.64,47.98 104.95,47.98 104.95,54.32 109.4,54.32 109.4,47.98 113.72,47.98 113.72,64.69 109.4,64.69 "></polygon> <polygon class="st4" points="115.04,64.69 115.04,47.98 119.33,47.98 119.33,61 124.37,61 124.37,64.69 "></polygon> <g> <path class="st4" d="M124.48,50.09c1.68-1.63,3.78-2.46,6.21-2.46c2.28,0,4.43,0.87,6.09,2.48c1.73,1.68,2.64,3.83,2.64,6.12 c0,2.41-0.86,4.57-2.47,6.19c-1.65,1.7-3.91,2.62-6.28,2.62c-2.52,0-4.67-0.9-6.35-2.65c-1.6-1.68-2.42-3.75-2.42-6.23 C121.9,53.85,122.8,51.72,124.48,50.09 M130.66,60.89c2.45,0,4.44-1.94,4.44-4.68c0-2.46-1.99-4.42-4.39-4.42 c-2.54,0-4.53,1.96-4.53,4.42C126.18,58.86,128.31,60.89,130.66,60.89"></path> </g> <polygon class="st4" points="139.01,64.69 139.01,47.98 142.91,47.98 149.4,57.26 149.4,47.98 153.73,47.98 153.73,64.69 149.93,64.69 143.33,55.38 143.33,64.69 "></polygon> <g> <path class="st4" d="M38.86,64.69V47.98h6.04c2.8,0,4.76,0.35,6.6,2c1.69,1.5,2.58,3.69,2.58,6.44c0,2.54-0.87,4.63-2.56,6.21 c-1.88,1.74-3.55,2.07-6.03,2.07H38.86z M49.78,56.28c0-3.01-1.72-4.71-4.89-4.71h-1.72v9.45h1.73 C48.22,61.02,49.78,59.57,49.78,56.28"></path> </g> </g> <g class="st1"> <rect x="0" y="0" class="st2" width="192.43" height="112.61"></rect> </g> </g> <g id="Calque_3"> <g> <path class="st5" d="M60.12,87.47h8.62V84.7H63.4v-2.32h4.73V79.8H63.4v-2.32h5.34v-2.76h-8.62V87.47z M126.25,74.46 c-3.85,0-6.44,2.61-6.44,6.63s2.59,6.63,6.44,6.63c3.86,0,6.44-2.61,6.44-6.63S130.12,74.46,126.25,74.46z M126.25,84.79 c-1.89,0-3.09-1.27-3.09-3.7s1.19-3.7,3.09-3.7c1.9,0,3.09,1.27,3.09,3.7S128.16,84.79,126.25,84.79z M141.07,74.71v7.02 l-4.23-7.02h-3.4v12.75h3.17v-7.32l4.4,7.32h3.23V74.71H141.07z M53.12,74.71h-4.79v12.75h4.79c3.8,0,6.25-2.51,6.25-6.38 C59.37,77.22,56.92,74.71,53.12,74.71z M53.08,84.7h-1.47v-7.22h1.47c1.9,0,2.96,1.34,2.96,3.62 C56.04,83.36,54.97,84.7,53.08,84.7z M115.17,74.71h-3.28v12.75h8.23v-2.76h-4.95V74.71z M79.43,81.98 c-1.25,1.99-2.46,2.82-4.02,2.82c-2.02,0-3.2-1.42-3.2-3.89c0-2.34,1.08-3.51,2.75-3.51c1.1,0,2.01,0.49,2.3,2.13h3.28 c-0.36-3.12-2.35-5.07-5.54-5.07c-3.7,0-6.13,2.61-6.13,6.62c0,4.04,2.43,6.64,6.43,6.64c2.61,0,4.39-1.09,5.57-2.57h4.47v2.31 h3.26V74.71h-4.63L79.43,81.98z M85.35,82.59h-2.89l2.89-4.69V82.59z M107.66,79.58h-4.42v-4.87h-3.28v12.75h3.28v-5.14h4.42v5.14 h3.28V74.71h-3.28V79.58z M89.43,77.47h3.22v9.99h3.28v-9.99h3.22v-2.76h-9.71V77.47z"></path> <path class="st5" d="M109.18,24.97c-17.45,0-39.15,18.05-39.15,33.02c0,7.73,5.94,11.63,13.78,11.63c5.76,0,12.72-2.11,19.44-6.16 V33.59c-1.79,3.07-10.21,15.43-16.98,22.02c-3.45,3.36-6.18,4.82-8.53,4.82c-2.64,0-3.9-1.79-3.9-4.46 c0-12.1,20.36-27.82,33.85-27.82c5.56,0,9.14,2.46,9.14,7.26c0,4.39-2.98,9.9-8.06,14.99v9.25c8.87-7.01,14.18-15.95,14.18-23.16 C122.93,28.89,117.02,24.97,109.18,24.97z"></path> </g> <g> <rect x="0" y="0" class="st2" width="192.43" height="112.61"></rect> </g> </g> </svg> 