<?xml version="1.0" encoding="UTF-8"?> <!-- Generator: Adobe Illustrator 24.0.1, SVG Export Plug-In . SVG Version: 6.00 Build 0) --> <svg xmlns="http://www.w3.org/2000/svg" xmlns:xlink="http://www.w3.org/1999/xlink" version="1.1" id="Calque_1" x="0px" y="0px" viewBox="0 0 192.57 112.69" style="enable-background:new 0 0 192.57 112.69;" xml:space="preserve"> <style type="text/css"> .st0{fill:none;} .st1{fill:#003781;} </style> <g> <rect x="0.11" y="0.11" class="st0" width="192.34" height="112.56"></rect> <g> <path class="st1" d="M33.28,57.47h-5.26l2.8-9.14L33.28,57.47z M25.3,67.54l1.79-6.01h7.09l1.68,6.01h6.57L35.9,44.63 c-0.38-1.35-1.19-1.98-2.62-1.98h-9.29v2.16h0.78c0.97,0,1.5,0.38,1.5,1.12c0,0.49-0.11,0.9-0.49,2.01l-6.53,19.59H25.3z"></path> <path class="st1" d="M49.99,67.54V44.56c0-1.2-0.7-1.91-1.86-1.91h-5.74v2.16h0.37c0.97,0,1.38,0.41,1.38,1.39v21.34H49.99z"></path> <path class="st1" d="M59.95,67.54V44.56c0-1.2-0.71-1.91-1.87-1.91h-5.74v2.16h0.37c0.97,0,1.38,0.41,1.38,1.39v21.34H59.95z"></path> <path class="st1" d="M70.17,44.92c0-1.67-1.24-2.68-3.36-2.68c-2.09,0-3.36,1.01-3.36,2.68c0,1.69,1.28,2.69,3.36,2.69 C68.93,47.61,70.17,46.61,70.17,44.92 M70.06,67.54V50.79c0-1.19-0.71-1.9-1.87-1.9h-5.67v2.12h0.33c0.97,0,1.38,0.45,1.38,1.42 v15.12H70.06z"></path> <path class="st1" d="M82.89,58.58v3.63c-0.97,1.01-2.16,1.61-3.17,1.61c-1.05,0-1.42-0.52-1.42-1.91c0-1.38,0.29-2.01,1.34-2.42 C80.42,59.15,81.43,58.86,82.89,58.58 M75.01,54.23c1.94-0.93,4.07-1.46,5.75-1.46c1.57,0,2.13,0.56,2.13,2.19v0.42 c-2.39,0.38-3.13,0.53-4.48,0.83c-0.78,0.18-1.5,0.4-2.2,0.71c-2.35,0.94-3.47,2.76-3.47,5.56c0,3.54,1.53,5.26,4.7,5.26 c1.16,0,2.2-0.22,3.14-0.59c0.82-0.36,1.3-0.67,2.5-1.6v0.26c0,1.16,0.59,1.75,1.75,1.75h5.34v-2.01H89.9 c-1.01,0-1.38-0.45-1.38-1.64v-8.89c0-4.74-1.64-6.39-6.39-6.39c-1.53,0-3.02,0.19-4.47,0.53c-1.46,0.33-2.21,0.63-3.96,1.49 L75.01,54.23z"></path> <path class="st1" d="M98.66,67.54V54.93c0.97-1.08,1.98-1.57,3.14-1.57c1.24,0,1.53,0.49,1.53,2.36v11.82h5.82V54.86 c0-2.95-0.21-3.89-1.15-4.89c-0.78-0.86-1.98-1.31-3.51-1.31c-2.28,0-3.88,0.71-6.04,2.72v-0.74c0-1.16-0.61-1.75-1.8-1.75h-5.53 v2.12h0.34c0.97,0,1.39,0.45,1.39,1.42v15.12H98.66z"></path> <path class="st1" d="M126.42,63.63h-8.14l7.76-10.89v-3.85h-12.16c-1.38,0-2.02,0.63-2.02,2.02v3.39h2.16v-0.33 c0-0.86,0.45-1.27,1.37-1.27h4.19l-7.84,11.01v3.84h14.66V63.63z"></path> <path class="st1" d="M156.98,67.07V45.98c0-1.68-0.6-2.25-2.23-2.25h-4.94v2.35h0.29c1.13,0,1.35,0.25,1.35,1.61v19.37H156.98z M159.41,67.07h5.48V50.64c0-1.65-0.64-2.24-2.24-2.24h-3.24V67.07z M149.03,67.07V48.4h-3.25c-1.61,0-2.24,0.59-2.24,2.24v16.42 H149.03z M170.08,56.35c0,9.29-6.68,16.05-15.86,16.05c-9.18,0-15.86-6.76-15.86-16.05c0-9.3,6.68-16.05,15.86-16.05 C163.4,40.3,170.08,47.1,170.08,56.35 M173.33,56.35c0-10.93-8.17-19.11-19.11-19.11c-10.94,0-19.11,8.18-19.11,19.11 c0,10.94,8.17,19.11,19.11,19.11C165.15,75.46,173.33,67.29,173.33,56.35"></path> </g> </g> </svg> 