<?xml version="1.0" encoding="UTF-8"?> <svg xmlns="http://www.w3.org/2000/svg" width="193" height="113" viewBox="0 0 193 113" fill="none"><g clip-path="url(#clip0_1525_258)"><path d="M120.647 27H72.3533C69.3919 27 67 29.3919 67 32.3533V80.5328C67 83.4942 69.3919 85.8861 72.3533 85.8861H125.886V32.3533C125.886 29.3919 123.608 27 120.647 27Z" fill="#E40520"></path><path d="M84.4259 37.0233L83.0591 34.6314L76.2252 38.6179L78.2754 42.2626L80.895 40.7819L81.0089 41.0097C81.3506 41.6931 81.6923 42.4904 81.4645 43.2877C81.3506 43.9711 80.8951 44.5406 79.9839 45.1101C79.1866 45.5657 78.3893 45.5657 77.8198 45.3379C77.1364 44.9962 76.5669 44.5406 74.6306 41.3514C72.8082 38.1623 72.6943 37.365 72.8082 36.6816C72.9221 36.1121 73.2638 35.4287 74.0611 34.9731C75.5418 34.0619 76.5669 34.4036 77.7059 35.5426L82.034 33.0368C79.9838 30.4171 76.3391 28.5947 71.7831 31.2144C69.619 32.4673 68.5939 33.948 68.0244 35.9982C67.2271 38.9596 68.7078 41.3514 70.3024 43.9711C71.7831 46.5908 73.1499 49.0966 76.1113 49.8939C78.1615 50.4634 80.0977 50.2356 82.1479 49.0966C84.0842 47.9576 85.5649 46.5908 86.1344 44.1989C86.59 41.807 86.1344 39.8707 84.4259 37.0233Z" fill="white"></path><path d="M92.0579 47.3883C92.0579 47.73 93.6525 56.1586 93.8803 57.5254C93.4247 57.1837 86.249 50.8053 86.249 50.8053C86.1351 50.8053 84.9961 51.4887 84.9961 51.4887C84.9961 51.6026 94.222 59.4617 94.222 59.4617C94.3359 59.4617 95.361 58.8922 95.361 58.8922H95.4749L93.4247 46.9327C93.1969 46.7049 92.0579 47.3883 92.0579 47.3883Z" fill="white"></path><path d="M106.067 39.1876C104.928 39.871 104.131 40.896 103.903 42.1489C103.903 41.9211 103.448 41.0099 103.448 41.0099C103.334 41.0099 102.309 41.5794 102.309 41.5794C102.309 41.6933 107.89 51.4887 107.89 51.4887C108.004 51.4887 109.029 50.9192 109.029 50.9192C109.029 50.8053 105.612 44.6547 105.612 44.6547C104.587 42.8323 104.928 41.2377 106.637 40.3265C108.345 39.3015 109.826 39.871 110.851 41.6933L114.382 47.8439L115.521 47.1605C115.521 47.0466 111.99 40.7821 111.99 40.7821C111.307 39.6431 110.395 38.8459 109.37 38.6181C108.345 38.3903 107.206 38.6181 106.067 39.1876Z" fill="white"></path><path d="M110.054 32.9233C110.054 33.1511 111.762 36.1125 111.762 36.2264C111.762 36.1125 110.509 36.9098 110.509 36.9098C110.509 37.0237 110.965 37.821 110.965 37.821C111.079 37.821 112.446 37.1376 112.446 37.1376C112.446 37.3654 115.976 43.516 115.976 43.516C116.888 45.1106 118.482 45.6801 119.963 44.7689L120.874 44.1994C120.874 44.0855 120.419 43.1743 120.419 43.1743C120.305 43.1743 119.621 43.516 119.621 43.516C118.71 44.0855 117.913 43.8577 117.343 42.8326C117.343 42.8326 113.699 36.3403 113.585 36.3403C113.585 36.4542 115.749 35.2013 115.749 35.2013C115.749 35.0874 115.293 34.2901 115.293 34.2901C115.179 34.2901 112.901 35.543 112.901 35.543C112.901 35.3152 111.193 32.4677 111.193 32.4677C111.079 32.3538 110.054 32.9233 110.054 32.9233Z" fill="white"></path><path d="M123.039 35.6563L121.33 36.4536C119.963 37.137 119.052 36.9092 118.483 35.998C117.799 34.859 118.255 33.72 119.849 32.8088C120.874 32.2393 122.013 32.0115 123.039 32.1254C123.152 32.0115 123.494 30.9864 123.494 30.9864C122.127 30.6447 120.647 30.9864 119.28 31.7837C117.116 33.0366 116.318 34.9729 117.344 36.6814C118.255 38.276 119.735 38.6177 121.9 37.5926L123.608 36.7953C124.633 36.3397 125.317 36.3397 125.886 36.7953H126V35.2007C125.089 34.9729 124.178 35.0868 123.039 35.6563Z" fill="white"></path><path d="M104.586 50.6912C104.13 52.058 103.561 52.8553 102.536 53.4248C100.599 54.5638 98.6632 53.8804 97.2964 51.4885C97.5242 51.3746 104.016 47.616 104.016 47.616C104.016 47.5021 103.789 47.0465 103.789 47.0465C102.08 43.9712 99.4605 43.06 96.9547 44.4268C95.9296 44.9963 95.1323 45.9075 94.9045 46.9326C94.5628 48.2994 94.9045 50.0078 95.9296 51.8302C96.9547 53.6526 98.2076 54.7916 99.5744 55.1333C100.713 55.475 101.852 55.2472 103.105 54.5638C104.814 53.5387 105.383 52.3997 105.839 50.919C105.725 50.8051 104.586 50.6912 104.586 50.6912ZM96.0435 48.5272C95.9296 47.2743 96.4991 46.1353 97.6381 45.5658C98.7771 44.9963 100.03 44.9963 101.055 45.7936C101.625 46.2492 101.852 46.5909 102.422 47.3882C102.308 47.2743 96.7269 50.5773 96.7269 50.5773C96.2713 49.6661 96.1574 49.3244 96.0435 48.5272Z" fill="white"></path><path d="M88.868 59.6893C88.4124 61.0561 87.8429 61.8534 86.8178 62.4229C85.9066 62.9924 84.9954 63.1063 84.1981 62.8785C83.173 62.6507 82.3757 61.8534 81.5784 60.4866C81.8062 60.3727 88.2985 56.614 88.2985 56.614C88.2985 56.5001 88.0707 56.0445 88.0707 56.0445C86.3622 52.9692 83.7425 52.058 81.2367 53.4248C78.7309 54.9055 78.2753 57.6391 80.0977 60.8283C82.034 64.1314 84.5398 65.0426 87.2734 63.448C88.9819 62.4229 89.5514 61.2839 90.007 59.8032C89.8931 59.8032 88.868 59.6893 88.868 59.6893ZM80.3255 57.5252C80.2116 56.2723 80.7811 55.1333 81.9201 54.5638C83.0591 53.9943 84.312 53.9943 85.3371 54.7916C85.9066 55.2472 86.1344 55.5889 86.7039 56.3862C86.59 56.2723 81.0089 59.5754 81.0089 59.5754C80.4394 58.6642 80.3255 58.3225 80.3255 57.5252Z" fill="white"></path><path d="M92.2856 37.5927L86.1351 27H80.3262L90.2354 43.971L101.853 37.251L99.6891 33.3784L92.2856 37.5927Z" fill="white"></path><path d="M124.52 40.7818C123.153 41.5791 121.9 41.8069 120.647 41.4652C120.533 41.5791 120.191 42.6042 120.191 42.6042C121.786 43.1737 123.381 42.832 125.089 41.8069L125.886 41.3513V39.8706C125.545 39.9845 124.52 40.7818 124.52 40.7818Z" fill="white"></path></g><defs><clipPath id="clip0_1525_258"><rect width="192.6" height="112.7" fill="white"></rect></clipPath></defs></svg> 